<svg width="1180" height="555" fill="none" xmlns="http://www.w3.org/2000/svg"><path d="M1160.85 554.102v.796l-.53-.796h.53z" fill="#3B3361"/><path d="M604.725 498.504H1180v-29.369H604.725v29.369z" fill="#DC7567"/><path d="M810.779 500.615h3.242v-2.597h-3.242v2.597zM817.262 500.615h3.242v-2.597h-3.242v2.597zM840.077 467.023h-3.242v2.605h3.242v-2.605zM807.654 467.023h-3.242v2.605h3.242v-2.605zM820.62 467.023h-3.242v2.605h3.242v-2.605zM830.236 500.615h3.242v-2.597h-3.242v2.597zM833.59 467.023h-3.241v2.605h3.241v-2.605zM836.719 500.615h3.242v-2.597h-3.242v2.597zM762.255 467.023h-3.241v2.605h3.241v-2.605zM827.107 467.023h-3.25v2.605h3.25v-2.605zM823.753 500.615h3.241v-2.597h-3.241v2.597zM814.136 467.023h-3.241v2.605h3.241v-2.605zM775.229 467.023h-3.25v2.605h3.25v-2.605zM778.357 500.615h3.242v-2.597h-3.242v2.597zM771.874 500.615h3.241v-2.597h-3.241v2.597zM781.713 467.023h-3.241v2.605h3.241v-2.605zM765.384 500.615h3.249v-2.597h-3.249v2.597zM768.738 467.023h-3.242v2.605h3.242v-2.605zM784.84 500.615h3.242v-2.597h-3.242v2.597zM797.813 500.615h3.242v-2.597h-3.242v2.597zM794.678 467.023h-3.241v2.605h3.241v-2.605zM788.195 467.023h-3.242v2.605h3.242v-2.605zM791.324 500.615h3.241v-2.597h-3.241v2.597zM801.17 467.023h-3.249v2.605h3.249v-2.605zM804.297 500.615h3.241v-2.597h-3.241v2.597zM898.437 467.023h-3.242v2.605h3.242v-2.605zM924.378 467.023h-3.241v2.605h3.241v-2.605zM895.083 500.615h3.241v-2.597h-3.241v2.597zM901.572 500.615h3.241v-2.597h-3.241v2.597zM891.953 467.023h-3.241v2.605h3.241v-2.605zM888.599 500.615h3.242v-2.597h-3.242v2.597zM885.472 467.023h-3.242v2.605h3.242v-2.605zM917.895 467.023h-3.242v2.605h3.242v-2.605zM908.055 500.615h3.242v-2.597h-3.242v2.597zM921.021 500.615h3.242v-2.597h-3.242v2.597zM911.411 467.023h-3.241v2.605h3.241v-2.605zM914.538 500.615h3.241v-2.597h-3.241v2.597zM882.116 500.615h3.241v-2.597h-3.241v2.597zM856.175 500.615h3.242v-2.597h-3.242v2.597zM859.532 467.023h-3.242v2.605h3.242v-2.605zM853.051 467.023h-3.249v2.605h3.249v-2.605zM849.694 500.615h3.242v-2.597h-3.242v2.597zM862.66 500.615h3.241v-2.597h-3.241v2.597zM846.56 467.023h-3.242v2.605h3.242v-2.605zM843.203 500.615h3.241v-2.597h-3.241v2.597zM875.632 500.615h3.242v-2.597h-3.242v2.597zM866.014 467.023h-3.242v2.605h3.242v-2.605zM878.983 467.023h-3.242v2.605h3.242v-2.605zM872.496 467.023h-3.241v2.605h3.241v-2.605zM869.141 500.615h3.242v-2.597h-3.242v2.597zM904.92 467.023h-3.241v2.605h3.241v-2.605zM652.012 467.023h-3.241v2.605h3.241v-2.605zM648.662 500.615h3.241v-2.597h-3.241v2.597zM658.495 467.023h-3.242v2.605h3.242v-2.605zM639.05 467.023h-3.249v2.605h3.249v-2.605zM645.533 467.023h-3.242v2.605h3.242v-2.605zM642.174 500.615h3.242v-2.597h-3.242v2.597zM655.145 500.615h3.242v-2.597h-3.242v2.597zM674.596 500.615h3.242v-2.597h-3.242v2.597zM661.625 500.615h3.249v-2.597h-3.249v2.597zM671.471 467.023h-3.242v2.605h3.242v-2.605zM664.987 467.023h-3.249v2.605h3.249v-2.605zM668.114 500.615h3.241v-2.597h-3.241v2.597zM609.755 500.615h3.242v-2.597h-3.242v2.597zM616.239 500.615h3.241v-2.597h-3.241v2.597zM606.619 467.023h-1.899v2.605h1.899v-2.605zM613.106 467.023h-3.25v2.605h3.25v-2.605zM677.954 467.023h-3.241v2.605h3.241v-2.605zM604.724 500.615h1.78v-2.597h-1.78v2.597zM632.556 467.023h-3.242v2.605h3.242v-2.605zM619.589 467.023h-3.241v2.605h3.241v-2.605zM635.684 500.615h3.25v-2.597h-3.25v2.597zM629.203 500.615h3.241v-2.597h-3.241v2.597zM758.901 500.615h3.242v-2.597h-3.242v2.597zM626.073 467.023h-3.242v2.605h3.242v-2.605zM622.721 500.615h3.242v-2.597h-3.242v2.597zM729.831 467.023h-3.241v2.605h3.241v-2.605zM739.444 500.615h3.249v-2.597h-3.249v2.597zM736.315 467.023h-3.242v2.605h3.242v-2.605zM681.08 500.615h3.241v-2.597h-3.241v2.597zM723.348 467.023h-3.242v2.605h3.242v-2.605zM726.477 500.615h3.242v-2.597h-3.242v2.597zM752.417 500.615h3.241v-2.597h-3.241v2.597zM719.995 500.615h3.241v-2.597h-3.241v2.597zM755.772 467.023h-3.242v2.605h3.242v-2.605zM742.797 467.023h-3.241v2.605h3.241v-2.605zM745.935 500.615h3.242v-2.597h-3.242v2.597zM749.289 467.023h-3.241v2.605h3.241v-2.605zM732.961 500.615h3.241v-2.597h-3.241v2.597zM690.917 467.023h-3.241v2.605h3.241v-2.605zM694.055 500.615h3.242v-2.597h-3.242v2.597zM687.565 500.615h3.249v-2.597h-3.249v2.597zM697.411 467.023h-3.242v2.605h3.242v-2.605zM684.434 467.023h-3.242v2.605h3.242v-2.605zM710.378 467.023h-3.241v2.605h3.241v-2.605zM713.507 500.615h3.249v-2.597h-3.249v2.597zM716.862 467.023h-3.242v2.605h3.242v-2.605zM700.538 500.615h3.241v-2.597h-3.241v2.597zM703.894 467.023h-3.242v2.605h3.242v-2.605zM707.02 500.615h3.242v-2.597h-3.242v2.597zM1167.44 500.615h3.25v-2.597h-3.25v2.597zM1144.86 467.023h-3.24v2.605h3.24v-2.605zM1141.5 500.615h3.25v-2.597h-3.25v2.597zM1147.99 500.615h3.25v-2.597h-3.25v2.597zM1151.35 467.023h-3.24v2.605h3.24v-2.605zM1135.02 500.615h3.24v-2.597h-3.24v2.597zM1138.38 467.023h-3.24v2.605h3.24v-2.605zM1173.93 500.615h3.25v-2.597h-3.25v2.597zM1131.89 467.023h-3.24v2.605h3.24v-2.605zM1164.32 467.023h-3.24v2.605h3.24v-2.605zM1170.8 467.023h-3.24v2.605h3.24v-2.605zM1157.84 467.023h-3.25v2.605h3.25v-2.605zM1160.96 500.615h3.24v-2.597h-3.24v2.597zM1154.48 500.615h3.24v-2.597h-3.24v2.597zM1102.6 500.615h3.24v-2.597h-3.24v2.597zM1105.96 467.023h-3.24v2.605h3.24v-2.605zM1109.08 500.615h3.24v-2.597h-3.24v2.597zM1099.47 467.023h-3.24v2.605h3.24v-2.605zM1092.99 467.023h-3.25v2.605h3.25v-2.605zM1096.12 500.615h3.24v-2.597h-3.24v2.597zM1115.57 500.615h3.24v-2.597h-3.24v2.597zM1122.06 500.615h3.24v-2.597h-3.24v2.597zM927.511 500.615h3.242v-2.597h-3.242v2.597zM1125.41 467.023h-3.24v2.605h3.24v-2.605zM1118.93 467.023h-3.25v2.605h3.25v-2.605zM1128.54 500.615h3.24v-2.597h-3.24v2.597zM1177.29 467.023h-3.24v2.605h3.24v-2.605zM1089.63 500.615h3.25v-2.597h-3.25v2.597zM1112.44 467.023h-3.24v2.605h3.24v-2.605zM979.384 500.615h3.249v-2.597h-3.249v2.597zM1086.5 467.023h-3.24v2.605h3.24v-2.605zM976.259 467.023h-3.241v2.605h3.241v-2.605zM982.742 467.023H979.5v2.605h3.242v-2.605zM972.901 500.615h3.242v-2.597h-3.242v2.597zM1005.32 500.615h3.25v-2.597h-3.25v2.597zM1002.2 467.023h-3.246v2.605h3.246v-2.605zM998.84 500.615h3.24v-2.597h-3.24v2.597zM966.418 500.615h3.241v-2.597h-3.241v2.597zM992.356 500.615h3.242v-2.597h-3.242v2.597zM989.23 467.023h-3.25v2.605h3.25v-2.605zM995.712 467.023h-3.241v2.605h3.241v-2.605zM969.777 467.023h-3.242v2.605h3.242v-2.605zM937.353 467.023h-3.242v2.605h3.242v-2.605zM963.289 467.023h-3.241v2.605h3.241v-2.605zM943.836 467.023h-3.241v2.605h3.241v-2.605zM930.861 467.023h-3.242v2.605h3.242v-2.605zM933.995 500.615h3.241v-2.597h-3.241v2.597zM940.478 500.615h3.242v-2.597h-3.242v2.597zM959.934 500.615h3.242v-2.597h-3.242v2.597zM956.801 467.023h-3.241v2.605h3.241v-2.605zM950.318 467.023h-3.242v2.605h3.242v-2.605zM946.961 500.615h3.241v-2.597h-3.241v2.597zM953.443 500.615h3.249v-2.597h-3.249v2.597zM985.875 500.615h3.241v-2.597h-3.241v2.597zM1060.56 467.023h-3.24v2.605h3.24v-2.605zM1008.68 467.023h-3.24v2.605h3.24v-2.605zM1057.2 500.615h3.24v-2.597h-3.24v2.597zM1054.08 467.023h-3.25v2.605h3.25v-2.605zM1067.05 467.023h-3.25v2.605h3.25v-2.605zM1050.72 500.615h3.24v-2.597h-3.24v2.597zM1083.14 500.615h3.24v-2.597h-3.24v2.597zM1080.02 467.023h-3.24v2.605h3.24v-2.605zM1047.59 467.023h-3.24v2.605h3.24v-2.605zM1073.53 467.023h-3.24v2.605h3.24v-2.605zM1076.66 500.615h3.24v-2.597h-3.24v2.597zM1070.18 500.615h3.24v-2.597h-3.24v2.597zM1063.69 500.615h3.24v-2.597h-3.24v2.597zM1018.3 500.615h3.24v-2.597h-3.24v2.597zM1021.65 467.023h-3.24v2.605h3.24v-2.605zM1011.81 500.615h3.24v-2.597h-3.24v2.597zM1015.17 467.023h-3.25v2.605h3.25v-2.605zM1024.78 500.615h3.24v-2.597h-3.24v2.597zM1037.75 500.615h3.24v-2.597h-3.24v2.597zM1044.24 500.615h3.24v-2.597h-3.24v2.597zM1041.11 467.023h-3.25v2.605h3.25v-2.605zM1034.62 467.023h-3.24v2.605h3.24v-2.605zM1031.26 500.615h3.24v-2.597h-3.24v2.597zM1028.14 467.023h-3.25v2.605h3.25v-2.605z" fill="#282142"/><path d="M604.725 499.801H1180v-2.598H604.725v2.598zM604.725 470.434H1180v-2.598H604.725v2.598z" fill="#282142"/><path d="M676.963 480.673a4.563 4.563 0 00-6.6 6.236 4.559 4.559 0 004.809 1.606 4.555 4.555 0 002.242-1.411 4.557 4.557 0 00-.451-6.431zm2.767 8.437a7.628 7.628 0 01-8.17 2.235 7.622 7.622 0 118.17-2.235zM756.51 480.672a4.563 4.563 0 00-6.948 1.189 4.555 4.555 0 002.521 6.582 4.554 4.554 0 004.886-1.34 4.556 4.556 0 00-.459-6.431zm2.774 8.437a7.623 7.623 0 01-11.786-.314 7.623 7.623 0 01-.605-8.452 7.628 7.628 0 0111.622-1.988 7.634 7.634 0 01.769 10.754zM836.05 480.672a4.564 4.564 0 00-5.027-.633 4.564 4.564 0 00-1.561 6.874 4.555 4.555 0 004.807 1.601 4.562 4.562 0 003.342-4.722 4.56 4.56 0 00-1.561-3.12zm2.775 8.436a7.621 7.621 0 01-11.786-.321 7.627 7.627 0 012.617-11.497 7.63 7.63 0 018.408 1.065 7.628 7.628 0 01.761 10.753zM915.599 480.673a4.563 4.563 0 00-7.544 3.761 4.56 4.56 0 003.106 4.007 4.56 4.56 0 004.438-7.768zm2.768 8.437a7.626 7.626 0 01-8.169 2.235 7.622 7.622 0 118.169-2.235zM995.144 480.672a4.56 4.56 0 00-6.948 1.188 4.566 4.566 0 00.361 5.054 4.562 4.562 0 004.807 1.6 4.56 4.56 0 001.78-7.842zm2.776 8.436a7.633 7.633 0 01-8.172 2.245 7.623 7.623 0 01-5.199-6.692 7.628 7.628 0 018.557-8.111 7.622 7.622 0 014.043 1.804 7.636 7.636 0 01.77 10.753M1074.69 480.675a4.546 4.546 0 00-2.42-1.079c-.89-.112-1.8.043-2.61.447a4.613 4.613 0 00-1.92 1.82 4.561 4.561 0 00-.58 2.582c.06.899.39 1.759.94 2.472a4.62 4.62 0 002.16 1.529 4.563 4.563 0 004.89-1.34 4.55 4.55 0 001.1-3.311 4.547 4.547 0 00-1.56-3.12zm4.52 4.772v.008a7.507 7.507 0 01-1.74 3.656 7.598 7.598 0 01-3.67 2.338c-1.42.407-2.93.39-4.35-.049a7.68 7.68 0 01-3.62-2.42 7.64 7.64 0 01-.94-8.287 7.675 7.675 0 012.99-3.169 7.621 7.621 0 0111.02 4.048 7.73 7.73 0 01.31 3.875zM1154.24 480.672a4.572 4.572 0 00-6.96 1.179 4.56 4.56 0 00-.58 2.582 4.553 4.553 0 005.75 4.08 4.547 4.547 0 002.24-1.41 4.595 4.595 0 001.11-3.309 4.594 4.594 0 00-1.56-3.122zm2.77 8.436a7.619 7.619 0 01-3.75 2.358 7.61 7.61 0 01-8.03-2.68 7.618 7.618 0 01-1.59-4.135c-.1-1.504.24-3.006.99-4.315a7.565 7.565 0 013.21-3.043 7.623 7.623 0 014.36-.744c1.5.19 2.91.818 4.05 1.806a7.634 7.634 0 012.6 5.219 7.652 7.652 0 01-1.84 5.534z" fill="#030323"/><path d="M16.705 469.012h627.607v29.369H16.705a14.684 14.684 0 110-29.369z" fill="#DC7567"/><path d="M438.254 466.9h-3.241v2.598h3.241V466.9zM431.77 466.9h-3.242v2.598h3.242V466.9zM408.961 500.492h3.241v-2.605h-3.241v2.605zM441.383 500.492h3.242v-2.605h-3.242v2.605zM428.42 500.492h3.241v-2.605h-3.241v2.605zM418.799 466.9h-3.241v2.598h3.241V466.9zM415.443 500.492h3.242v-2.605h-3.242v2.605zM412.315 466.9h-3.242v2.598h3.242V466.9zM486.783 500.492h3.241v-2.605h-3.241v2.605zM421.93 500.492h3.249v-2.605h-3.249v2.605zM425.284 466.9h-3.242v2.598h3.242V466.9zM434.901 500.492h3.242v-2.605h-3.242v2.605zM473.805 500.492h3.249v-2.605h-3.249v2.605zM470.676 466.9h-3.241v2.598h3.241V466.9zM477.161 466.9h-3.242v2.598h3.242V466.9zM467.325 500.492h3.241v-2.605h-3.241v2.605zM483.653 466.9h-3.25v2.598h3.25V466.9zM480.296 500.492h3.241v-2.605h-3.241v2.605zM464.192 466.9h-3.242v2.598h3.242V466.9zM451.221 466.9h-3.242v2.598h3.242V466.9zM454.36 500.492h3.242v-2.605h-3.242v2.605zM460.843 500.492h3.242v-2.605h-3.242v2.605zM457.708 466.9h-3.241v2.598h3.241V466.9zM447.865 500.492h3.249v-2.605h-3.249v2.605zM444.739 466.9h-3.242v2.598h3.242V466.9zM350.596 500.492h3.242v-2.605h-3.242v2.605zM324.662 500.492h3.241v-2.605h-3.241v2.605zM353.955 466.9h-3.241v2.598h3.241V466.9zM347.461 466.9h-3.241v2.598h3.241V466.9zM357.079 500.492h3.241v-2.605h-3.241v2.605zM360.433 466.9h-3.242v2.598h3.242V466.9zM363.568 500.492h3.242v-2.605h-3.242v2.605zM331.144 500.492h3.242v-2.605h-3.242v2.605zM340.978 466.9h-3.242v2.598h3.242V466.9zM328.01 466.9h-3.241v2.598h3.241V466.9zM337.626 500.492h3.241v-2.605h-3.241v2.605zM334.495 466.9h-3.242v2.598h3.242V466.9zM366.916 466.9h-3.241v2.598h3.241V466.9zM392.862 466.9h-3.242v2.598h3.242V466.9zM389.503 500.492h3.241v-2.605h-3.241v2.605zM395.988 500.492h3.249v-2.605h-3.249v2.605zM399.339 466.9h-3.241v2.598h3.241V466.9zM386.377 466.9h-3.241v2.598h3.241V466.9zM402.478 500.492h3.242v-2.605h-3.242v2.605zM405.831 466.9h-3.241v2.598h3.241V466.9zM373.4 466.9h-3.242v2.598h3.242V466.9zM383.02 500.492h3.242v-2.605h-3.242v2.605zM370.056 500.492h3.242v-2.605h-3.242v2.605zM376.538 500.492h3.241v-2.605h-3.241v2.605zM379.893 466.9h-3.242v2.598h3.242V466.9zM344.115 500.492h3.241v-2.605h-3.241v2.605zM597.023 500.492h3.242v-2.605h-3.242v2.605zM600.375 466.9h-3.241v2.598h3.241V466.9zM590.541 500.492h3.241v-2.605h-3.241v2.605zM609.986 500.492h3.249v-2.605h-3.249v2.605zM603.505 500.492h3.241v-2.605h-3.241v2.605zM606.86 466.9h-3.242v2.598h3.242V466.9zM593.891 466.9h-3.242v2.598h3.242V466.9zM574.438 466.9h-3.242v2.598h3.242V466.9zM587.413 466.9h-3.249v2.598h3.249V466.9zM577.564 500.492h3.242v-2.605h-3.242v2.605zM584.051 500.492h3.249v-2.605h-3.249v2.605zM580.92 466.9h-3.241v2.598h3.241V466.9zM3.218 479.263c-.31.942-.518 1.915-.622 2.901l-.488-.052-1.284-.141-.815-.089c.127-1.168.377-2.319.747-3.434l.77.253 1.234.406.458.156zM639.282 466.9h-3.242v2.598h3.242V466.9zM632.797 466.9h-3.241v2.598h3.241V466.9zM642.416 500.492h1.898v-2.605h-1.898v2.605zM635.927 500.492h3.249v-2.605h-3.249v2.605zM571.083 500.492h3.241v-2.605h-3.241v2.605zM644.313 466.9h-1.78v2.598h1.78V466.9zM616.475 500.492h3.242v-2.605h-3.242v2.605zM629.446 500.492h3.242v-2.605h-3.242v2.605zM613.352 466.9h-3.249v2.598h3.249V466.9zM619.835 466.9h-3.241v2.598h3.241V466.9zM490.131 466.9h-3.241v2.598h3.241V466.9zM622.964 500.492h3.241v-2.605h-3.241v2.605zM626.314 466.9h-3.242v2.598h3.242V466.9zM519.2 500.492h3.241v-2.605H519.2v2.605zM509.592 466.9h-3.249v2.598h3.249V466.9zM512.717 500.492h3.242v-2.605h-3.242v2.605zM567.952 466.9h-3.242v2.598h3.242V466.9zM525.688 500.492h3.242v-2.605h-3.242v2.605zM522.559 466.9h-3.242v2.598h3.242V466.9zM496.616 466.9h-3.242v2.598h3.242V466.9zM529.037 466.9h-3.241v2.598h3.241V466.9zM493.265 500.492h3.242v-2.605h-3.242v2.605zM506.236 500.492h3.242v-2.605h-3.242v2.605zM503.099 466.9h-3.242v2.598h3.242V466.9zM499.749 500.492h3.241v-2.605h-3.241v2.605zM516.076 466.9h-3.242v2.598h3.242V466.9zM558.118 500.492h3.241v-2.605h-3.241v2.605zM554.982 466.9h-3.242v2.598h3.242V466.9zM561.469 466.9h-3.249v2.598h3.249V466.9zM551.624 500.492h3.241v-2.605h-3.241v2.605zM564.599 500.492h3.242v-2.605h-3.242v2.605zM538.659 500.492h3.241v-2.605h-3.241v2.605zM535.529 466.9h-3.249v2.598h3.249V466.9zM532.176 500.492h3.242v-2.605h-3.242v2.605zM548.498 466.9h-3.241v2.598h3.241V466.9zM545.141 500.492h3.242v-2.605h-3.242v2.605zM542.014 466.9h-3.242v2.598h3.242V466.9zM81.59 466.9h-3.25v2.598h3.25V466.9zM104.177 500.492h3.242v-2.605h-3.242v2.605zM107.528 466.9h-3.249v2.598h3.249V466.9zM101.035 466.9h-3.242v2.598h3.242V466.9zM97.69 500.492h3.241v-2.605h-3.242v2.605zM114.013 466.9h-3.242v2.598h3.242V466.9zM110.659 500.492h3.241v-2.605h-3.241v2.605zM75.096 466.9h-3.242v2.598h3.242V466.9zM117.141 500.492h3.242v-2.605h-3.242v2.605zM84.718 500.492h3.242v-2.605h-3.242v2.605zM78.235 500.492h3.243v-2.605h-3.243v2.605zM91.2 500.492h3.241v-2.605H91.2v2.605zM88.074 466.9h-3.242v2.598h3.242V466.9zM94.558 466.9h-3.243v2.598h3.243V466.9zM146.432 466.9h-3.242v2.598h3.242V466.9zM143.083 500.492h3.241v-2.605h-3.241v2.605zM139.949 466.9h-3.242v2.598h3.242V466.9zM149.565 500.492h3.242v-2.605h-3.242v2.605zM156.045 500.492h3.249v-2.605h-3.249v2.605zM152.919 466.9h-3.241v2.598h3.241V466.9zM133.458 466.9h-3.241v2.598h3.241V466.9zM126.98 466.9h-3.242v2.598h3.242V466.9zM321.524 466.9h-3.242v2.598h3.242V466.9zM123.624 500.492h3.241v-2.605h-3.241v2.605zM130.11 500.492h3.249v-2.605h-3.249v2.605zM120.497 466.9h-3.241v2.598h3.241V466.9zM36.189 466.9h-3.242v2.598h3.242V466.9zM13.58 498.045l.109-.474c.965.209 1.95.316 2.938.318v.496l-.008 1.295-.007.814a17.274 17.274 0 01-3.482-.385l.177-.799.273-1.265zM23.22 466.9H19.98v2.598h3.241V466.9zM13.682 469.32l-.26-1.26-.17-.799a16.941 16.941 0 013.457-.355h.03v2.591h-.03c-.982.001-1.962.103-2.924.304l-.103-.481zM19.866 500.492h3.241v-2.605h-3.241v2.605zM26.36 500.492h3.242v-2.605H26.36v2.605zM71.748 500.492h3.241v-2.605h-3.241v2.605zM29.704 466.9h-3.241v2.598h3.241V466.9zM3.958 490.982l.43-.242a14.479 14.479 0 001.731 2.403l-.362.326-.97.862-.607.544a17.204 17.204 0 01-2.05-2.849l.71-.407 1.118-.637zM.805 485.3l1.295-.126.481-.051c.102.985.305 1.957.607 2.901l-.465.145-1.236.402-.777.251a16.517 16.517 0 01-.71-3.44l.805-.082zM8.02 495.533l.296-.4c.795.591 1.65 1.095 2.553 1.503l-.199.444-.533 1.176-.34.748a16.811 16.811 0 01-3.027-1.776l.481-.653.77-1.042zM4.017 476.313L2.9 475.66l-.711-.409a17.482 17.482 0 012.067-2.829l.608.544.96.87.37.327a14.42 14.42 0 00-1.755 2.394l-.422-.244zM8.11 471.794l-.755-1.051-.48-.66a16.792 16.792 0 013.046-1.746l.329.748.518 1.185.2.443c-.905.404-1.766.9-2.568 1.48l-.29-.399zM32.843 500.492h3.242v-2.605h-3.242v2.605zM55.65 466.9h-3.24v2.598h3.24V466.9zM62.128 466.9h-3.241v2.598h3.241V466.9zM58.784 500.492h3.241v-2.605h-3.241v2.605zM68.612 466.9H65.37v2.598h3.242V466.9zM65.265 500.492h3.242v-2.605h-3.242v2.605zM45.807 500.492h3.242v-2.605h-3.242v2.605zM39.325 500.492h3.242v-2.605h-3.242v2.605zM42.672 466.9h-3.241v2.598h3.241V466.9zM49.16 466.9H45.92v2.598h3.242V466.9zM159.404 466.9h-3.242v2.598h3.242V466.9zM52.295 500.492h3.241v-2.605h-3.241v2.605zM136.6 500.492h3.242v-2.605H136.6v2.605zM269.647 466.9h-3.25v2.598h3.25V466.9zM162.541 500.492h3.241v-2.605h-3.241v2.605zM272.781 500.492h3.241v-2.605h-3.241v2.605zM266.298 500.492h3.242v-2.605h-3.242v2.605zM276.131 466.9h-3.241v2.598h3.241V466.9zM243.712 466.9h-3.249v2.598h3.249V466.9zM246.839 500.492h3.242v-2.605h-3.242v2.605zM250.197 466.9h-3.242v2.598h3.242V466.9zM282.62 466.9h-3.242v2.598h3.242V466.9zM256.679 466.9h-3.241v2.598h3.241V466.9zM259.808 500.492h3.25v-2.605h-3.25v2.605zM253.323 500.492h3.241v-2.605h-3.241v2.605zM279.262 500.492h3.242v-2.605h-3.242v2.605zM311.686 500.492h3.242v-2.605h-3.242v2.605z" fill="#282142"/><path d="M285.745 500.492h3.241v-2.605h-3.241v2.605zM305.204 500.492h3.241v-2.605h-3.241v2.605zM318.179 500.492h3.242v-2.605h-3.242v2.605zM315.039 466.9h-3.241v2.598h3.241V466.9zM308.556 466.9h-3.242v2.598h3.242V466.9zM289.103 466.9h-3.242v2.598h3.242V466.9zM292.239 500.492h3.241v-2.605h-3.241v2.605zM298.72 500.492h3.242v-2.605h-3.242v2.605zM302.071 466.9h-3.242v2.598h3.242V466.9zM295.586 466.9h-3.249v2.598h3.249V466.9zM263.163 466.9h-3.241v2.598h3.241V466.9zM188.475 500.492h3.242v-2.605h-3.242v2.605zM240.357 500.492h3.242v-2.605h-3.242v2.605zM191.833 466.9h-3.241v2.598h3.241V466.9zM194.964 500.492h3.242v-2.605h-3.242v2.605zM181.986 500.492h3.249v-2.605h-3.249v2.605zM198.312 466.9h-3.242v2.598h3.242V466.9zM165.888 466.9h-3.242v2.598h3.242V466.9zM169.023 500.492h3.242v-2.605h-3.242v2.605zM201.446 500.492h3.242v-2.605h-3.242v2.605zM175.505 500.492h3.242v-2.605h-3.242v2.605zM172.371 466.9h-3.241v2.598h3.241V466.9zM178.856 466.9h-3.242v2.598h3.242V466.9zM185.339 466.9h-3.241v2.598h3.241V466.9zM230.734 466.9h-3.242v2.598h3.242V466.9zM227.386 500.492h3.242v-2.605h-3.242v2.605zM237.218 466.9h-3.241v2.598h3.241V466.9zM233.868 500.492h3.249v-2.605h-3.249v2.605zM224.257 466.9h-3.241v2.598h3.241V466.9zM211.279 466.9h-3.242v2.598h3.242V466.9zM204.794 466.9h-3.241v2.598h3.241V466.9zM207.926 500.492h3.249v-2.605h-3.249v2.605zM214.417 500.492h3.241v-2.605h-3.241v2.605zM217.773 466.9h-3.242v2.598h3.242V466.9zM220.899 500.492h3.242v-2.605h-3.242v2.605z" fill="#030323"/><path d="M.82 481.966a15.39 15.39 0 01.704-3.271c.35-1.057.812-2.074 1.376-3.034a15.293 15.293 0 011.969-2.695 15.897 15.897 0 015.38-3.885 15.54 15.54 0 013.176-1.029c1.08-.226 2.182-.34 3.286-.34H644.31v2.598H16.71a13.384 13.384 0 100 26.768h627.6v2.598H16.62a15.802 15.802 0 01-3.315-.37 15.493 15.493 0 01-3.167-1.051 15.853 15.853 0 01-2.887-1.68 16.912 16.912 0 01-2.464-2.242 15.395 15.395 0 01-1.945-2.72 14.999 14.999 0 01-1.355-3.047 15.352 15.352 0 01-.681-3.271 16.307 16.307 0 01-.082-1.606c-.002-.576.03-1.152.097-1.725" fill="#030323"/><path d="M572.07 486.846a4.56 4.56 0 105.986-6.88 4.56 4.56 0 00-5.986 6.88zm-2.77-8.442a7.622 7.622 0 018.171-2.236 7.628 7.628 0 014.21 11.009 7.623 7.623 0 11-12.381-8.773zM492.526 486.847a4.557 4.557 0 007.534-3.77 4.56 4.56 0 10-7.534 3.77zm-2.773-8.442a7.63 7.63 0 018.173-2.235 7.628 7.628 0 014.21 11.012 7.623 7.623 0 01-14.227-3.24 7.642 7.642 0 011.844-5.537zM412.983 486.846a4.564 4.564 0 005.027.632 4.557 4.557 0 001.56-6.874 4.562 4.562 0 00-4.806-1.6 4.563 4.563 0 00-3.342 4.722 4.56 4.56 0 001.561 3.12zm-2.776-8.442a7.625 7.625 0 1111.522 9.99 7.625 7.625 0 01-11.522-9.99zM333.434 486.847a4.563 4.563 0 007.544-3.761 4.562 4.562 0 10-7.544 3.761zm-2.77-8.442a7.628 7.628 0 018.17-2.235 7.622 7.622 0 11-8.17 2.235zM253.89 486.847a4.557 4.557 0 007.534-3.77 4.56 4.56 0 10-7.534 3.77zm-2.773-8.442a7.629 7.629 0 0111.785.325 7.634 7.634 0 011.581 4.135 7.634 7.634 0 01-4.198 7.36 7.626 7.626 0 01-8.406-1.061 7.637 7.637 0 01-.762-10.759zM174.344 486.846a4.56 4.56 0 006.948-1.188 4.564 4.564 0 00-.361-5.053 4.555 4.555 0 00-4.807-1.601 4.556 4.556 0 00-1.78 7.842zm-4.517-4.773v-.008a7.527 7.527 0 011.741-3.656 7.623 7.623 0 018.02-2.289 7.621 7.621 0 015.319 6.424 7.622 7.622 0 01-3.744 7.452 7.622 7.622 0 01-11.336-7.923zM94.794 486.846a4.56 4.56 0 007.544-3.761 4.569 4.569 0 00-.944-2.475 4.565 4.565 0 00-7.051-.195 4.56 4.56 0 00.451 6.431zm-2.769-8.442a7.622 7.622 0 0113.363 4.457 7.621 7.621 0 01-12.601 6.296 7.625 7.625 0 01-.762-10.753zM15.251 486.847a4.561 4.561 0 006.948-1.188 4.562 4.562 0 00-2.521-6.583 4.554 4.554 0 00-4.886 1.34 4.557 4.557 0 00.46 6.431zm-2.772-8.442a7.627 7.627 0 11.761 10.759 7.636 7.636 0 01-.761-10.759z" fill="#030323"/><g><path d="M293.479 369.322l1.741-1.414c-15.324-18.837-21.563-34.549-19.075-48.031 3.388-18.357 22.686-29.485 39.717-39.302 9.56-5.512 18.588-10.719 23.687-16.623 3.829-4.431 5.414-9.23 4.715-14.263-1.586-11.419-14.318-19.924-14.856-20.28l-1.236 1.876c.124.083 12.43 8.313 13.87 18.716.604 4.362-.806 8.562-4.189 12.479-4.854 5.62-13.724 10.733-23.113 16.148-17.45 10.061-37.228 21.465-40.805 40.838-2.612 14.165 3.78 30.478 19.544 49.856z" fill="#DFAFA2"/><path d="M241.037 430.861l7.572-4.842c-12.442-19.455-12.438-37.106.009-51.047 20.689-23.172 62.696-4.855 63.118-4.668l3.664-8.207a104.38 104.38 0 00-26.729-7.197c-20.087-2.549-36.253 2.322-46.758 14.087-15.196 17.02-15.508 38.995-.876 61.874zM427.459 243.955a100.245 100.245 0 008.393-31.711c2.038-23.577-6.48-41.978-24.639-53.212-13.266-8.207-27.866-10.583-42.226-6.873-16.56 4.279-29.762 16.056-33.471 22.668l7.835 4.397c2.476-4.409 13.531-14.655 27.884-18.363 12.098-3.127 23.959-1.17 35.249 5.814 15.301 9.465 22.166 24.536 20.415 44.795a92.02 92.02 0 01-7.533 28.575l8.093 3.91z" fill="#DFAFA2"/><path d="M351.986 180.303l-21.664-12.508-3.433 5.947 21.664 12.508 3.433-5.947z" fill="#DC7567"/><path d="M195.19 294.302l5.547.813 15.75-40.692-15.125-2.218-6.172 42.097zM137.535 294.016l-5.603-.213-8.057-42.891 15.278.581-1.618 42.523z" fill="#DFAFA2"/><path d="M154.981 241.525l32.597-.022a7.223 7.223 0 00-.01-14.441l-32.597.022a7.228 7.228 0 00-5.161 2.087 7.214 7.214 0 00-1.583 7.922 7.214 7.214 0 003.963 3.91 7.233 7.233 0 002.791.522z" fill="#441346"/><path d="M188.494 222.835l-32.381.032.004 3.928 32.381-.032-.004-3.928zM180.078 152.114l-14.792.015.069 68.528 14.792-.015-.069-68.528z" fill="#DFAFA2"/><path d="M163.746 199.745l17.336-.011a13.665 13.665 0 015.038 10.628l-.024 12.538-27.397-.031.024-12.54c0-2.026.451-4.027 1.32-5.857a13.656 13.656 0 013.703-4.727zM183.839 229.411a6.19 6.19 0 018.621-.519l21.317 18.389a10.305 10.305 0 012.749 12.074 10.301 10.301 0 01-6.459 5.657 10.291 10.291 0 01-11.606-4.317l-15.255-23.773a6.187 6.187 0 01.633-7.508" fill="#441346"/><path d="M209.845 252.398a3.958 3.958 0 11-6.167 4.966 3.958 3.958 0 016.167-4.966z" fill="#DFAFA2"/><path d="M191.176 232.184a3.044 3.044 0 01-1.318 4.76 3.037 3.037 0 01-3.453-.986 3.046 3.046 0 01-.105-3.59 3.04 3.04 0 014.876-.184z" fill="#030323"/><path d="M159.682 229.712a6.187 6.187 0 00-8.472-1.657l-23.563 15.42a10.307 10.307 0 00-4.641 7.222 10.306 10.306 0 002.447 8.229 10.287 10.287 0 007.833 3.513 10.292 10.292 0 007.773-3.645l18.26-21.553a6.194 6.194 0 00.363-7.53" fill="#441346"/><path d="M157.201 233.129a3.048 3.048 0 11-5.976 1.203 3.048 3.048 0 015.976-1.203z" fill="#030323"/><path d="M137.532 251.179a3.962 3.962 0 01-1.97 4.24 3.958 3.958 0 111.97-4.24zM224.386 148.512h-54.498v17.534h54.498v-17.534z" fill="#DFAFA2"/><path d="M217.752 176.475h35.306a19.194 19.194 0 000-38.387h-35.306v38.387zM172.022 176.475h24.88v-38.387h-24.88a19.194 19.194 0 000 38.387z" fill="#441346"/><path d="M173.667 151.713a5.852 5.852 0 013.591 5.426 5.853 5.853 0 01-3.638 5.395 5.858 5.858 0 01-7.619-7.684 5.862 5.862 0 017.666-3.137zm-6.175 14.729a10.117 10.117 0 0013.833-7.314 10.124 10.124 0 00-4.26-10.409 10.121 10.121 0 00-14.991 4.485 10.123 10.123 0 005.418 13.238z" fill="#DFAFA2"/><path d="M354.024 190.702l-30.447 47.101 9.832 6.355 30.447-47.1-9.832-6.356z" fill="#DC7567"/><path d="M420.191 266.737a15.276 15.276 0 00-.296-16.978 15.274 15.274 0 00-4.289-4.143l-78.637-50.628-16.54 25.707 78.642 50.628a15.284 15.284 0 0021.12-4.586z" fill="#DFAFA2"/><path d="M327.224 245.059l-85.073-63.004a25.743 25.743 0 01-6.276-34.715 25.746 25.746 0 0134.267-8.386l91.979 52.089-34.897 54.016z" fill="#441346"/><path d="M262.771 153.411a9.567 9.567 0 014.194 9.764 9.564 9.564 0 11-17.425-6.952 9.578 9.578 0 0113.231-2.812zm-14.206 21.872a16.52 16.52 0 10-4.856-22.851 16.538 16.538 0 004.856 22.851z" fill="#DFAFA2"/><path d="M294.127 398.658a49.603 49.603 0 0069.978-4.978l81.474-93.955a49.624 49.624 0 009.584-16.816 49.624 49.624 0 00-2.695-37.872 49.603 49.603 0 00-47.889-27.293 49.596 49.596 0 00-33.958 16.982l-81.473 93.954a49.606 49.606 0 004.979 69.978z" fill="#441346"/><path d="M399.777 276.824a15.618 15.618 0 1020.464-23.6 15.618 15.618 0 00-20.464 23.6zm27.344-31.533a26.12 26.12 0 017.664 27.986 26.113 26.113 0 01-37.705 14.432 26.114 26.114 0 1130.041-42.418zM276.244 407.746h90.147v-38.672a45.073 45.073 0 00-45.073-45.075 45.075 45.075 0 00-45.074 45.075v38.672z" fill="#DFAFA2"/><path d="M312.782 377.677a12.258 12.258 0 0018.684-3.191 12.26 12.26 0 10-22.283-9.947 12.268 12.268 0 00.666 9.36 12.25 12.25 0 002.933 3.778zm21.46-24.75a20.506 20.506 0 016.019 21.97 20.502 20.502 0 11-6.019-21.97z" fill="#441346"/><path d="M376.639 403.199H261.388v33.863h115.251v-33.863z" fill="#DFAFA2"/><path d="M221.573 450.437h204.823c.11.951.164 1.908.165 2.865v98.311H221.41v-98.311c0-.957.055-1.914.164-2.865" fill="#441346"/><path d="M266.321 419.496h115.476c24.707 6.714 42.787 18.272 44.672 34.674H221.648c1.886-16.403 19.966-27.96 44.674-34.674" fill="#441346"/><path d="M431.275 521.703H215.312v29.917h215.963v-29.917zM343.589 478.869a5.511 5.511 0 005.098-3.406 5.514 5.514 0 00-1.196-6.014 5.521 5.521 0 00-6.013-1.196 5.525 5.525 0 00-3.407 5.098 5.522 5.522 0 005.518 5.518zM324.883 478.869a5.511 5.511 0 005.098-3.406 5.514 5.514 0 00-1.196-6.014 5.522 5.522 0 00-8.49.837 5.518 5.518 0 004.588 8.583zM306.18 478.869a5.514 5.514 0 005.098-3.406 5.514 5.514 0 00-1.196-6.014 5.521 5.521 0 00-9.42 3.902 5.522 5.522 0 005.518 5.518zM287.477 478.869a5.514 5.514 0 005.098-3.406 5.514 5.514 0 00-1.196-6.014 5.521 5.521 0 00-9.42 3.902 5.521 5.521 0 005.518 5.518zM403.085 516.42h-32.062v-29.359h32.062v29.359zm-32.576.512h33.086V486.55h-33.086v30.382zM393.505 437.256c-3.363-4.842-8.402-8.254-13.405-11.257h2.431c5.002 3.003 10.042 6.416 13.408 11.258l-2.434-.001zM387.72 437.256c-3.357-4.841-8.398-8.251-13.397-11.255l2.432.002c4.998 3.002 10.04 6.411 13.399 11.252l-2.434.001zM381.939 437.253c-3.346-4.843-8.39-8.251-13.38-11.254h2.429c4.992 3.004 10.033 6.413 13.387 11.254h-2.436zM376.153 437.256c-3.34-4.841-8.382-8.251-13.365-11.253h2.428c4.986 3.002 10.028 6.412 13.371 11.253h-2.434zM370.372 437.253c-3.334-4.84-8.373-8.25-13.35-11.254h2.427c4.982 3.007 10.022 6.414 13.358 11.255l-2.435-.001zM364.591 437.254c-3.327-4.839-8.369-8.254-13.335-11.255l2.427.002c4.971 3.002 10.015 6.413 13.343 11.253h-2.435zM358.807 437.258c-3.323-4.835-8.364-8.245-13.328-11.248l2.426.002c4.969 3 10.014 6.406 13.336 11.245l-2.434.001z" fill="#030323"/></g><g><path d="M1131.05 410.332h-63.87v56.069h63.87v-56.069z" fill="#030323"/><path d="M1111.8 410.332h-63.87v56.069h63.87v-56.069z" fill="#441346"/><path d="M1066.88 455.998h-6.65v6.347h6.65v-6.347zM1057.67 455.998h-6.64v6.347h6.64v-6.347zM1076.15 455.998h-6.65v6.347h6.65v-6.347z" fill="#E89E8A"/><g><path d="M726.922 410.332h-63.874v56.069h63.874v-56.069z" fill="#441346"/><path d="M707.668 410.332h-63.874v56.069h63.874v-56.069z" fill="#030323"/><path d="M662.744 455.998h-6.642v6.347h6.642v-6.347z" fill="#E89E8A"/><path d="M653.535 455.998h-6.642v6.347h6.642v-6.347zM672.016 455.998h-6.642v6.347h6.642v-6.347z" fill="#E68D45"/></g><g><path d="M919.978 410.332h-63.874v56.069h63.874v-56.069z" fill="#030323"/><path d="M900.727 410.332h-63.873v56.069h63.873v-56.069z" fill="#441346"/><path d="M855.8 455.998h-6.642v6.347h6.642v-6.347z" fill="#E68D45"/><path d="M846.593 455.998h-6.642v6.347h6.642v-6.347z" fill="#E89E8A"/><path d="M865.071 455.998h-6.642v6.347h6.642v-6.347z" fill="#E68D45"/></g><g><path d="M547.041 410.332h-63.874v56.069h63.874v-56.069z" fill="#E68D45"/><path d="M527.786 410.332h-63.874v56.069h63.874v-56.069z" fill="#030323"/><path d="M482.862 455.998h-6.642v6.347h6.642v-6.347zM473.654 455.998h-6.642v6.347h6.642v-6.347zM492.134 455.998h-6.642v6.347h6.642v-6.347z" fill="#E89E8A"/></g><g><path d="M196.637 410.332h-63.874v56.069h63.874v-56.069z" fill="#DFAFA2"/><path d="M177.383 410.332h-63.874v56.069h63.874v-56.069z" fill="#441346"/><path d="M132.458 455.998h-6.642v6.347h6.642v-6.347zM123.248 455.998h-6.642v6.347h6.642v-6.347zM141.729 455.998h-6.642v6.347h6.642v-6.347z" fill="#E89E8A"/></g></g><g fill="#DFAFA2"><path d="M167.84 128.802a5.441 5.441 0 007.627-.313 5.28 5.28 0 001.425-3.835 5.281 5.281 0 00-1.733-3.705 5.44 5.44 0 00-7.627.313 5.286 5.286 0 00-1.425 3.834 5.295 5.295 0 001.733 3.706zM150.478 107.655a1.695 1.695 0 01.023-2.394 30.828 30.828 0 0142.722-.755 1.694 1.694 0 01.103 2.394 1.748 1.748 0 01-2.451.149 27.65 27.65 0 00-37.943.67 1.737 1.737 0 01-2.452-.064"/><path d="M155.476 112.833l-.008-.011a1.71 1.71 0 01.074-2.436 24.229 24.229 0 0132.814-.589 1.715 1.715 0 01.496 1.857 1.723 1.723 0 01-.345.581l-.008.009a1.742 1.742 0 01-2.419.165 21.046 21.046 0 00-28.182.506 1.746 1.746 0 01-2.422-.082z"/><path d="M160.321 117.855l-.015-.017a1.702 1.702 0 01-.319-1.912c.099-.208.238-.394.41-.547a17.838 17.838 0 0123.264-.427 1.693 1.693 0 01.525 1.869 1.709 1.709 0 01-.35.588l-.015.017a1.754 1.754 0 01-2.384.195 14.667 14.667 0 00-18.723.341 1.75 1.75 0 01-2.394-.108"/></g><g fill="#DFAFA2"><path d="M448.759 52.7a8.43 8.43 0 0011.813-.484 8.191 8.191 0 001.442-9.078 8.198 8.198 0 00-1.92-2.6 8.428 8.428 0 00-11.812.484 8.193 8.193 0 00-1.442 9.078 8.197 8.197 0 001.919 2.6zM421.874 19.949a2.627 2.627 0 01.036-3.707 47.744 47.744 0 0166.162-1.17 2.626 2.626 0 01.159 3.706 2.708 2.708 0 01-3.795.23 42.823 42.823 0 00-58.76 1.04 2.704 2.704 0 01-3.8-.1"/><path d="M429.61 27.97l-.012-.013a2.637 2.637 0 01-.74-1.912 2.658 2.658 0 01.848-1.866 37.523 37.523 0 0150.83-.912 2.648 2.648 0 01.233 3.776l-.014.01a2.699 2.699 0 01-3.745.255 32.604 32.604 0 00-43.644.787 2.701 2.701 0 01-3.756-.125z"/><path d="M437.117 35.745l-.024-.026a2.619 2.619 0 01-.744-1.935 2.617 2.617 0 01.887-1.873 27.624 27.624 0 0136.028-.662 2.63 2.63 0 01.271 3.809l-.024.026a2.72 2.72 0 01-3.692.297 22.72 22.72 0 00-29.002.529 2.722 2.722 0 01-3.7-.165z"/></g><g fill="#DFAFA2"><path d="M1031.58 41.243c1.3 1.18 3.01 1.8 4.76 1.728a6.701 6.701 0 004.62-2.112 6.499 6.499 0 001.75-4.718 6.353 6.353 0 00-.61-2.494 6.409 6.409 0 00-1.52-2.065 6.684 6.684 0 00-4.77-1.729 6.679 6.679 0 00-4.61 2.114 6.5 6.5 0 00-1.35 2.182 6.452 6.452 0 00.2 5.03c.37.782.88 1.484 1.53 2.064zM1010.22 15.235a2.124 2.124 0 01-.59-1.474c.01-.55.23-1.077.62-1.464a37.924 37.924 0 0152.55-.928c.4.374.64.892.67 1.441a2.11 2.11 0 01-.55 1.494c-.37.42-.9.675-1.47.71a2.137 2.137 0 01-1.54-.527 34.01 34.01 0 00-46.67.827 2.14 2.14 0 01-1.52.58 2.171 2.171 0 01-1.5-.659z"/><path d="M1016.37 21.605l-.01-.01a2.079 2.079 0 01-.4-2.327c.11-.255.28-.483.48-.673a29.794 29.794 0 0140.37-.725 2.073 2.073 0 01.72 1.46 2.039 2.039 0 01-.54 1.537l-.01.01a2.136 2.136 0 01-2.97.204 25.897 25.897 0 00-34.66.62c-.41.375-.95.574-1.51.556a2.12 2.12 0 01-1.47-.652z"/><path d="M1022.32 27.776l-.02-.017a2.17 2.17 0 01-.45-.707 2.13 2.13 0 01-.14-.829c.01-.282.08-.56.2-.816.12-.256.29-.485.5-.673a21.95 21.95 0 0114.22-5.572 21.92 21.92 0 0114.4 5.047 2.09 2.09 0 01.76 1.465c.02.282-.02.566-.11.834s-.24.514-.43.723l-.02.021c-.37.404-.87.653-1.42.697-.54.044-1.09-.121-1.51-.46a18.056 18.056 0 00-11.59-3.942 18.02 18.02 0 00-11.44 4.364 2.157 2.157 0 01-2.94-.133"/></g><g><path d="M948.151 126.842l48.559 26.41 24.7-61.073 12.7 3.192s-8.23 70.946-21.44 83.933c-13.212 12.987-80.631-15.624-80.631-15.624-16.519-10.566-1.471-44.07 16.115-36.839" fill="#FFB8A5"/><path d="M1020.52 101.122s-4.14-13.62-3.15-17.135c.99-3.514 14.6-6.916 15.11-5.268.5 1.648 1.51 5.69-7.34 7.248 5.29 5.865 10.8 17.093-4.62 15.155z" fill="#FFB8A5"/><path d="M1019.77 101.654s0-11.937 2.36-16.522c3.14-6.111 11.07-9.485 11.07-9.485s12.39 11.713 12.63 13.647c.23 1.933-11.97 12.513-11.97 12.513s-9.02 7.105-14.09-.153z" fill="#FFB8A5"/><path d="M1022.79 86.273s6-29.226 10.57-27.937c2.11.592-3.52 28.51-3.52 28.51l-7.05-.573z" fill="#FFB8A5"/><path d="M1019.37 97.258a.153.153 0 00.16-.029.2.2 0 00.05-.072.127.127 0 000-.086c-1.02-3.989-2.64-10.99-2.07-13.043.77-2.71 9.74-5.538 13.5-5.58 1.12-.013 1.29.237 1.31.314.24.587.34 1.22.31 1.853-.04.633-.22 1.25-.53 1.805-.98 1.603-3.34 2.743-6.99 3.387l-.29.05.2.218c2.2 2.431 4.75 6.18 5.31 9.392 0 .022.01.043.02.062.01.019.03.035.04.049.02.013.04.022.06.027.02.005.05.006.07.002a.181.181 0 00.06-.023.108.108 0 00.04-.046l.03-.06c0-.022 0-.044-.01-.065-.55-3.186-3.01-6.872-5.2-9.343 3.59-.669 5.93-1.84 6.93-3.482.33-.595.52-1.254.56-1.93a4.64 4.64 0 00-.3-1.987c-.12-.375-.65-.55-1.62-.544-3.81.043-12.98 2.881-13.8 5.812-.6 2.127 1.03 9.187 2.06 13.207 0 .025.02.048.03.067.02.019.04.033.07.042" fill="#030323"/><path d="M1035.94 93.138c.05.017.09.033.13.048l.11.035.07-.09c2.17-2.817 6.8-3.605 6.85-3.61.04-.007.08-.03.1-.064.03-.034.04-.077.03-.119 0-.041-.03-.079-.06-.103a.17.17 0 00-.12-.028c-.19.03-4.71.797-6.98 3.64h-.02c-2.76-1.08-6.13-8.162-6.16-8.235a.164.164 0 00-.09-.081.182.182 0 00-.13.006.225.225 0 00-.08.09.17.17 0 00.01.121c.14.295 3.46 7.264 6.34 8.39z" fill="#030323"/><path d="M939.294 123.733s10.172 1.353 34.588 16.938c-2.709 10.512-10.839 37.978-10.839 37.978s-37.298-11.514-42.39-24.056c-5.092-12.543.331-35.941 18.641-30.86z" fill="#fff"/><path d="M820.184 551.172h38.539a4.596 4.596 0 001.728-1.547c1.984-28.664 4.843-42.464 4.843-42.464l-26.842-1.088-6.077 21.327c-8.991 6.137-19.711 19.321-12.191 23.772z" fill="#DC7567"/><path d="M861.643 551.689h-45.691c-1.159 0-.769-6.354.39-6.354l45.418.261c1.191 0 1.076 6.093-.117 6.093z" fill="#231F20"/><path d="M877.569 245.895c-13.43 20.654-23.239 120.457-41.743 270.735l27.353 1.44c8.216-40.027 17.483-60.32 26.893-118.019 22.54-50.927 34.229-99.174 40.226-148.843 5.832-37.445-40.14-57.108-52.73-5.314" fill="#441346"/><path d="M909.918 253.009a846.281 846.281 0 0014.96 135.158c2.986 61.202 7.026 59.155 12.693 130.487l24.723-.326c2.08-30.566 18.57-173.041 5.765-264.487-6.194-41.196-62.094-54.829-58.141-.832z" fill="#441346"/><path d="M937.57 518.654c-2.206 11.81-3.788 21.024-2.862 31.713l59.877 1.166s5.925-5.767-1.524-14.431c-7.449-8.664-21.602-3.648-30.767-18.777l-24.724.329z" fill="#DC7567"/><path d="M997.305 551.689H933.69c-1.159 0-.855-6.354.305-6.354l63.345.261c1.192 0 1.157 6.093-.035 6.093z" fill="#231F20"/><path d="M966.215 249.552c0 12.637-89.75 8.979-89.75-3.659-5.143-110.304-31.801-99.021-24.981-110.12 11.758-19.141 71.154-18.056 92.539-9.829 8.487 3.265 19.894 16.579 23.541 37.801 1.875 10.911-6.158 23.613-7.427 32.435-2.937 20.411 5.482 50.443 6.078 53.372z" fill="#fff"/><path d="M910.264 134.625c-15.153 2.206-24.575-8.37-26.792-12.791l1.06-30.663 17.369-1.691a51.607 51.607 0 0114.406 3.333l3.911 20.193.862 4.377c1.966 4.31 4.336 15.038-10.816 17.242z" fill="#FFB8A5"/><g><path d="M890.383 98.114c2.724 4.192 14.131 14.93 29.839 14.892l-3.383-17.468-26.456 2.576z" fill="#030323"/><path d="M928.823 57.723c1.366 6.04 4.169 19.302 3.71 25.41-.699 9.3-9.384 19.617-16.959 20.968-8.769.894-20.589-1.717-27.007-7.227-3.572-4.185-10.485-14.115-13.667-22.807-6.637-18.131 6.175-34.03 22.427-37.701 16.253-3.672 27.25 2.523 31.496 21.357z" fill="#FFB8A5"/><path d="M880.342 86.037c-3.393-5.965 1.114-8.379 6.052-3.75-.849-4.501-5.976-17.686-1.431-22.064 5.134-5.075 27.727-2.866 39.864-15.521 0 0-9.046-19.836-38.738-8.122-33.538 17.782-5.747 49.457-5.747 49.457z" fill="#441346"/><path d="M884.543 80.37c2.566 3.123 2.671 7.266.241 9.248-2.431 1.982-6.489 1.063-9.054-2.061-2.565-3.125-2.675-7.263-.24-9.249 2.434-1.985 6.488-1.063 9.053 2.061z" fill="#FFB8A5"/><path d="M921.353 47.436s9.267 4.024 18.9.122c-1.463 6.581-48.044 16.34-54.019 13.78-5.975-2.562 22.437-16.706 35.119-13.902z" fill="#441346"/></g><g><path d="M857.64 129.567c10.091-1.207 19.983 47.512 13.053 60.863-.019.985-.032 1.984-.057 2.988-.076 3.802-.172 7.726-.293 11.692l-.171 5.29c-.134 3.898-.287 7.814-.436 11.699-1.243 30.102-3.115 58.19-3.115 58.19h105.114c-.839-20.644-3.853-41.834-5.913-58.192-.534-4.26-1.004-8.195-1.348-11.698-.19-1.895-.344-3.662-.451-5.29a42.872 42.872 0 01.089-9.123c.134-.85.213-1.708.236-2.569.532-15.372-9.874-58.464-17.357-66.538a64.043 64.043 0 00-21.89-5.253c.738 21.915-7.978 41.579-7.978 41.579s-22.258-19.104-34.398-41.832c-10.663 1.71-20.383 3.853-25.087 8.194" fill="#DC7567"/><path d="M964.023 205.105a43.004 43.004 0 01.09-9.123c.134-.85.213-1.708.237-2.569h-93.713c-.076 3.802-.172 7.726-.293 11.692h93.679zM869.729 222.095h96.089c-.533-4.26-1.004-8.196-1.347-11.699h-94.304c-.133 3.897-.286 7.814-.435 11.699" fill="#fff"/></g><g><path d="M869.831 69.153c-1.292-9.467-2.766-33.788 18.769-40.043 19.138-5.556 32.861 5.945 39.352 13.524 2.809.435 10.369-1.619 11.7-.055.311.932.018 2.739-7.669 5.787l.04.073c-27.794 6.103-51.5 13.865-61.52 27.2a9.513 9.513 0 01-2.858.82c-.92 0 1.377-3.718 2.186-7.306z" fill="#DC7567"/><path d="M908.079 48.902s-8.749-20.63-29.489-15.125l-.402-.88a52.42 52.42 0 0111.151-5.056c6.555-1.035 21.73 1.495 30.468 17.418-4.485 2.3-11.728 3.643-11.728 3.643z" fill="#E89E8A"/></g><g><path d="M869.592 184.412l-14.69 32.62 59.662 29.751-1.108 12.551s-78.751-10.025-85.661-27.3c-6.91-17.276 21.11-91.359 21.11-91.359 7.873-18.897 18.398 27.973 20.687 43.737z" fill="#FFB8A5"/><path d="M914.36 247.591l29.2.737s-8.967 14.348-29.367 11.747c-26.866-3.426-16.252-13.617.168-12.485" fill="#F7C4B9"/></g><g><path d="M1013.2 247.911v1.481c0 .074 0 .149-.02.223a2.55 2.55 0 01-2.7 1.705H885.75a2.554 2.554 0 01-2.699-1.705 1.2 1.2 0 01-.02-.223v-1.481H1013.2z" fill="#E9DBD2"/><path d="M1013.18 249.614a2.556 2.556 0 01-2.7 1.705l-124.743-.048a2.555 2.555 0 01-2.7-1.706l130.143.049z" fill="#030323"/><path d="M1027.67 162.62l.72.707-.39.553-.93-1.3.6.04z" fill="#241F3C"/><path d="M1011.39 247.688H910.197a2.564 2.564 0 01-2.064-.926 2.573 2.573 0 01-.535-2.197l13.354-79.556a3.85 3.85 0 013.647-3.123h101.191c.39-.013.78.063 1.14.224.36.16.67.4.92.702.25.301.43.655.53 1.036.09.381.09.778.01 1.161l-13.35 79.556a3.905 3.905 0 01-1.28 2.201 3.84 3.84 0 01-2.37.922z" fill="#E9DBD2"/><path d="M1012.13 248.42H910.936a2.566 2.566 0 01-2.586-1.962 2.586 2.586 0 01-.013-1.161l13.354-79.556a3.845 3.845 0 013.647-3.123h101.192c.39-.013.78.064 1.14.224.36.161.67.401.92.702.25.301.43.656.52 1.037.1.38.1.777.02 1.16l-13.36 79.556a3.83 3.83 0 01-3.64 3.123z" fill="#fff"/><path d="M956.573 206.142a13.625 13.625 0 0011.685 15.309 13.62 13.62 0 0014.86-12.252 13.622 13.622 0 00-11.684-15.313 13.621 13.621 0 00-14.861 12.256z" fill="#E9DBD2"/></g><g><path d="M869.676 189.596l-34.086-17.265s9.925-35.282 21.216-42.028c5.506 3.304 8.178 10.9 11.187 24.547 2.598 11.79 3.764 23.684 1.683 34.746z" fill="#fff"/></g><g fill="#030323"><path d="M916.935 80.857a.305.305 0 00.067-.007c.159-.03 3.831-.785 4.997-2.727 1.154-1.923-6.472-9.576-8.837-11.873a.347.347 0 00-.254-.101.36.36 0 00-.328.226.34.34 0 00-.025.137c0 .047.01.094.029.137a.344.344 0 00.079.115c4.652 4.518 9.309 10.01 8.721 10.99-1.003 1.671-4.484 2.387-4.519 2.394a.358.358 0 00.07.71zM910.971 88.884a33.174 33.174 0 0011.317-2.126.363.363 0 00.192-.469.36.36 0 00-.469-.193c-.129.055-13.093 5.332-22.058-1.148a.353.353 0 00-.267-.063.363.363 0 00-.233.144.366.366 0 00-.064.267.363.363 0 00.144.233 19.251 19.251 0 0011.438 3.355zM920.016 63.365c.327 1.417 1.239 2.415 2.036 2.231.797-.184 1.177-1.48.851-2.898-.326-1.417-1.239-2.417-2.036-2.231-.797.185-1.179 1.48-.851 2.898zM896.964 69.28c.496 1.515 1.589 2.517 2.441 2.239.851-.28 1.141-1.734.645-3.248-.496-1.515-1.589-2.516-2.441-2.237-.852.278-1.14 1.732-.645 3.247z"/></g></g><g><path d="M574.461 98.347a32.726 32.726 0 1065.452.001 32.726 32.726 0 00-65.452 0z" fill="#441346"/><g fill="#FFB8A5"><path d="M455.847 91.63l-.202.336a1.939 1.939 0 01-2.652.663l-6.061-4.71c-4.473-3.446-2.739-5.197 1.84-2.787l6.411 3.844a1.936 1.936 0 01.664 2.653z"/><path d="M468.855 110.649s-19.67-1.355-16.915-20.517C453.098 82.08 475 92.2 475 92.2s-2.829-12.731 1.873-11.59c2.072 8.896 4.033 17.365 5.753 25.161.109 3.119-8.089 7.445-13.771 4.878z"/><path d="M566.274 121.125c7.944-15.052-7.485-33.16-23.798-18.194l-33.401 38.071-27.109-36.804c-3.273 4.622-5.427 6.814-10.228 6.613 0 0 18.251 51.697 32.418 55.036 16.808 3.959 55.89-34.615 62.118-44.722z"/></g><path d="M448.093 75.398c-.186-2.169 2.771-3.934 3.058-2.561l14.69-3.7a2.021 2.021 0 012.368 1.567l9.999 38.56a2.086 2.086 0 01-1.324 2.612l-14.939 3.993c-.062.258-.204.49-.406.661a2.69 2.69 0 01-3.299-1.036 2.37 2.37 0 01-.367-.803c-.07-.517-9.763-38.778-9.78-39.293z" fill="#030323"/><path d="M461.698 116.495l17.157-4.551a2.145 2.145 0 001.375-2.678l-10.317-39.657a2.077 2.077 0 00-2.448-1.601l-16.866 4.3a2.092 2.092 0 00-1.395 2.592l9.997 39.932a2.11 2.11 0 001.672 1.669c.274.053.557.051.83-.007" fill="#000"/><path d="M461.388 116.267c.074-.009.147-.023.218-.042l17.15-4.57a1.872 1.872 0 001.181-2.341l-10.3-39.608a1.819 1.819 0 00-2.12-1.415l-16.866 4.28a1.647 1.647 0 00-1.058.854c-.22.431-.274.928-.151 1.395l10.008 39.967a1.854 1.854 0 001.938 1.48z" fill="#000"/><path d="M450.086 74.86l9.978 39.831 19.325-5.115-10.286-39.626-19.017 4.91z" fill="#fff"/><path d="M459.821 99.03a2.138 2.138 0 01-2.923.732l-8.426-5.054a2.13 2.13 0 112.19-3.653l8.428 5.053a2.137 2.137 0 01.731 2.922z" fill="#FFB8A5"/><path d="M461.596 104.249a2.138 2.138 0 01-2.923.731l-8.426-5.052a2.132 2.132 0 01.594-3.865 2.13 2.13 0 011.596.211l8.428 5.052a2.139 2.139 0 01.731 2.923z" fill="#FFB8A5"/><path d="M459.728 107.079a1.693 1.693 0 01-2.313.579l-6.669-3.999a1.682 1.682 0 01-.159-2.82 1.69 1.69 0 011.268-.305c.222.036.433.115.623.234l6.671 3.999a1.689 1.689 0 01.579 2.312z" fill="#FFB8A5"/><path d="M616.228 158.235c-2.459 8.668-5.543 17.39-8.488 25.222-4.461 11.888-8.596 30.978-9.671 35.451l-66.577 1.576c2.078-25.205-5.013-76.244-3.775-79.423 3.52-9.043 16.904-32.949 26.562-42.055 9.657-9.105 61.848 2.379 67.367 22.071 2.493 9.704-1.466 23.237-5.418 37.158z" fill="#fff"/><path d="M567.581 95.841s-12.244 20.845-4.886 21.849c25.53-3.195 38.119-13.353 38.61-14.008-5.246-5.411-6.398-6.22-11.75-7.234-9.43-1.784-21.979-.608-21.979-.608" fill="#FFB8A5"/><path d="M568.525 254.618c23.666 83.965 73.484 248.538 73.484 248.538l21.949-3.84-39.809-246.332c-8.148-34.921-62.028-49.436-55.625 1.632" fill="#DC7567"/><path d="M681.208 546.346c5.107-4.006-5.954-9.018-5.954-9.018l-11.363-36.684-.051-.986h-23.449l-1.633 14.704 20.418 31.984h22.032z" fill="#030323"/><path d="M650.347 546.344l3.032-33.923-14.656 1.839 8.251 32.083 3.373.001z" fill="#030323"/><path d="M574.575 251.92c-4.292 87.131-24.222 259.204-24.222 259.204l-22.251-1.198-9.495-245.545c.403-45.497 50.793-63.667 55.968-12.461z" fill="#DC7567"/><path d="M515.759 551.691c-5.115-3.991 5.932-9.031 5.932-9.031l4.718-36.701.049-.986 23.45-.06 1.67 14.7-13.788 32.022-22.031.056z" fill="#030323"/><path d="M546.619 551.609l-9.665-33.905 14.659 1.81-1.621 32.086-3.373.009z" fill="#030323"/><path d="M599.6 208.654s23.967 15.665 25.71 51.713c-27.387 4.889-105.861 12.06-105.861 12.06-1.679-25.311 2.357-48.486 12.509-63.075 55.398-2.684 67.642-.698 67.642-.698z" fill="#DC7567"/><path d="M580.61 66.497l-1.042 5.753-3.751 20.662-1.279 7.036c.435 7.625 20.24 8.647 25.877 3.398.071-1.369.268-4.57.507-8.421.442-7.21 1.042-16.703 1.273-20.713l.056-1.05-8.513-2.62c-4.822-1.487-10.067-3.104-13.129-4.045" fill="#FFB8A5"/><g><path d="M579.564 72.25l-3.917 21.568c18.756 1.19 26.006-15.022 26.006-15.022l-.13-1.623a140.886 140.886 0 00-17.156-5.005 11.925 11.925 0 00-4.802.076" fill="#030323"/><path d="M561.462 46.71c-6.472 16.237-.071 32.992 7.946 36.603 13.054 5.88 33.747-1.17 40.219-17.408 6.471-16.238.938-33.705-12.363-39.006-13.302-5.301-29.329 3.568-35.802 19.81z" fill="#FFB8A5"/><path d="M575.824 28.03s24.703 14.681 26.239 54.38c20.433-16.33 25.532-33.342 14.964-48.683-9.458-13.73-29.115-14.72-41.203-5.698z" fill="#441346"/><path d="M577.638 29.285s-8.868 1.62-15.988 16.963c3.686-13.731 19.463-37.402 46.054-20.914s-30.066 3.951-30.066 3.951z" fill="#441346"/><path d="M594.95 62.998a6.121 6.121 0 00.617 6.776 6.121 6.121 0 006.497 2.024 6.127 6.127 0 004.356-5.228 6.13 6.13 0 00-3.164-6.025 6.124 6.124 0 00-8.306 2.453z" fill="#FFB8A5"/></g><g><path d="M570.93 61.848a.31.31 0 00.088-.608c-.03-.008-2.975-.897-3.709-2.417a.343.343 0 01.008-.314c.499-1.174 4.539-2.68 6.049-3.16a.311.311 0 00.196-.389.311.311 0 00-.384-.203c-.584.185-5.724 1.868-6.432 3.506a.975.975 0 000 .83c.853 1.765 3.963 2.703 4.095 2.743a.335.335 0 00.089.012z" fill="#030323"/><path d="M584.042 68.67c-15.677 3.01-18.813-1.941-18.813-1.941s1.848 9.558 10.183 9.782c5.938.157 8.63-7.84 8.63-7.84z" fill="#fff"/><path d="M569.606 46.529c-.393 1.197-1.258 1.992-1.931 1.771-.673-.22-.898-1.38-.507-2.571.391-1.192 1.257-1.993 1.931-1.771.674.22.901 1.37.507 2.57zM588.996 53.76c-.546 1.268-1.568 2.05-2.281 1.742-.714-.308-.846-1.59-.301-2.855.545-1.265 1.569-2.05 2.281-1.742.713.307.849 1.583.301 2.855z" fill="#030323"/></g><g><path d="M623.269 61.634c2.938-9.173 8.635-33.048-11.643-43.005-18.023-8.85-33.652.17-41.411 6.56-2.862-.06-10.011-3.416-11.6-2.095-.473.871-.497 2.715 6.601 7.081l-.052.065c26.518 10.898 48.689 22.734 56.308 37.714a9.578 9.578 0 002.693 1.317c.913.16-.718-3.93-.896-7.632" fill="#DC7567"/><path d="M588.85 34.87s12.279-18.949 31.899-9.867l.552-.798a52.781 52.781 0 00-10.185-6.964c-6.322-2.168-21.823-2.304-33.27 11.97 4.049 3.062 11.004 5.658 11.004 5.658z" fill="#E89E8A"/></g><g><path d="M570.468 175.668c-11.818 4.474-47.094-57.501-53.057-69.162-6.386-16.84 48.211 40.202 49.376 38.864 5.298-7.49 20.055-22.826 25.338-28.014 10.047-9.865 35.342 7.249 25.642 22.851 0 0-28.311 30.468-47.3 35.456" fill="#FFB8A5"/><path d="M523.09 115.312l6.664-1.536-5.767-18.43a15.108 15.108 0 00-5.223-.878 14.82 14.82 0 00-5.938 1.508s-2.123 6.731-2.263 7.821c-1.033 8.125 12.527 11.515 12.527 11.515z" fill="#FFB8A5"/><path d="M525.969 101.675c-.027-.378-6.361-21.152-6.361-21.152s-1.781.845-1.913 4.142c-.138 3.331 1.655 17.054 1.652 17.018l6.622-.008z" fill="#FFB8A5"/><path d="M512.317 98.368a9.398 9.398 0 014.866-.94l.06-.365a9.578 9.578 0 00-5.079.967l.153.338zM511.569 100.884a9.398 9.398 0 014.864-.937l.058-.366a9.566 9.566 0 00-5.074.965l.152.338zM510.821 104.083a9.405 9.405 0 014.866-.939l.06-.366a9.59 9.59 0 00-5.079.967l.153.338z" fill="#030323"/></g></g><g><path d="M690.519 238.17l94.232 1.862-.998-132.397c-12.137-19.154-82.195-15.232-92.269-.036l-.965 130.571z" fill="#fff"/><path d="M804.831 504.203l.728 23.63-27.158 7.606-4.177-27.726 30.607-3.51z" fill="#FFB8A5"/><path d="M775.393 551.688l1.856-24.066s13.201 6.355 17.628 2.793c1.375-11.463 14.903-12.926 21.832-2.141l18.498 9.083-6.021 14.331h-53.793z" fill="#441346"/><path d="M814.68 551.688c2.96-8.94 8.782-15.045 15.427-15.045 7.663 0 13.805 5.028 15.832 15.045H814.68z" fill="#030323"/><path d="M666.84 504.203l-.728 23.63 27.158 7.605 4.177-27.725-30.607-3.51z" fill="#FFB8A5"/><path d="M696.275 551.688l-1.857-24.066s-13.2 6.355-17.628 2.793c-1.372-11.464-14.901-12.927-21.825-2.142l-18.498 9.083 6.015 14.332h53.793z" fill="#441346"/><path d="M656.988 551.688c-2.959-8.94-8.78-15.045-15.425-15.045-7.663 0-13.807 5.028-15.834 15.045h31.259z" fill="#030323"/><path d="M719.691 110.879c2.305 13.424 32.616 13.424 36.162 0l-1.64-21.642-.482-6.369h-31.914l-.785 10.321-1.341 17.69z" fill="#FFB8A5"/><path d="M755.82 100.772c-2.758 9.508-9.826 12.591-18.882 16.743-7.835-3.924-12.861-7.606-16.725-16.742l-4.046 5.395s-1.076 21.039 21.041 21.039c23.817 0 22.932-16.993 22.932-16.993l-4.32-9.442z" fill="#fff"/><path d="M664.641 517.12l33.086 2.148 39.556-215.908 35.483 215.908 32.071-2.148c3.373-92.586-12.28-252.32-18.716-324.166-.516-5.783-1.079-10.991-1.684-15.561l-5.349-13.589-11.486-29.173-57.243-.336-12.371 29.513-6.827 16.286c-.754 2.394-1.475 7.422-2.159 14.602-5.223 55.016-28.291 236.137-24.364 322.429" fill="#441346"/><path d="M689.003 194.689c43.583-13.39 82.907-5.644 97.12-1.741-.516-5.782-1.079-10.99-1.684-15.56l-5.35-13.581h-81.105l-6.825 16.282c-.751 2.394-1.472 7.419-2.156 14.6zM769.123 199.105h-63.758s-12.239 43.686 31.369 43.686c43.609 0 32.389-43.686 32.389-43.686z" fill="#030323"/><path d="M771.307 98.235l-4.378 42.795-8.279-.608 4.11-43.532 8.547 1.345zM706.593 98.231l4.378 42.796 8.28-.608-4.11-43.532-8.548 1.344zM805.907 504.095l-36.089 2.805s-1.991.244-1.328 6.587c.663 6.342 2.256 7.32 2.256 7.32l36.09-2.441c2.256-2.318.661-11.438-.929-14.271z" fill="#441346"/><path d="M841.634 549.035h-66.798v2.759h66.798v-2.759z" fill="#030323"/><path d="M663.401 505.876l36.089 2.807s1.991.243 1.328 6.586-2.259 7.319-2.259 7.319l-36.087-2.441c-2.256-2.318-.661-11.437.929-14.271z" fill="#441346"/><path d="M697.084 548.99h-66.798v2.76h66.798v-2.76z" fill="#030323"/><g><path d="M710.111 166.206a210.057 210.057 0 0011.579 5.058 194.575 194.575 0 0028.767 9.094c26.082 5.976 46.589 4.12 49.383-5.547 4.142-14.335-1.089-60.501-19.954-70.917-5.834 8.03-5.549 18.878-4.885 28.384 2.215 9.734 3.395 19.644 4.321 25.623a54.65 54.65 0 00-9.099-2.711c-15.188-3.348-39.478-4.688-55.652-1.502-6.212 1.221-6.018 10.765-4.462 12.514" fill="#FFB8A5"/></g><g><path d="M721.216 170.075c.038.435.205.848.478 1.187 9.921 3.983 15.555 5.722 15.599 5.707 9.303-3.208 20.931-9.511 29.893-14.267a68.998 68.998 0 0112.136-4.8 23.098 23.098 0 00-9.099-2.711c-19.618-2.092-48.756 12.528-49.007 14.884z" fill="#030323"/></g><g><path d="M680.011 178.01c5.672 19.335 56.75.55 89.918-18.681.721-4.161 1.11-7.29-3.861-10.517-22.502-1.999-57.168 6.04-66.204 8.269-1.363.336-2.144.544-2.211.556.1-.168 2.659-4.419 4.179-13.197a75.92 75.92 0 00.957-8.535c2.753-14.84-4.522-26.107-8.923-30.954-10.261 6.169-18.971 55.633-13.858 73.062" fill="#FFB8A5"/></g><g><path d="M774.39 100.347a40.187 40.187 0 0123.811 27.28l-22.524 11.811s-8.074-22.231-1.283-39.091" fill="#fff"/></g><g><path d="M697.374 102.884c14.628 10.755 6.059 39.193 6.059 39.193l-25.845-13.67-.234-.35s7.845-19.786 20.02-25.173z" fill="#fff"/></g><g><path d="M766.067 148.809s8.581-1.189 12.21 2.072c.54 2.304.892 4.648 1.05 7.009 0 0-5.977-.912-9.457 1.7-3.479 2.613-12.603-10.897-3.802-10.78" fill="#FFB8A5"/></g><g><path d="M696.657 158.328a70.543 70.543 0 01-6.697-2.972c-2.048-1.072-1.414-3.446-.468-2.784l7.577 2.274a18.166 18.166 0 01-2.53-4.498 1.7 1.7 0 011.234-2.301l5.57 5.083c-.739-1.401-2.451-6.774.762-6.832.66 3.339 3.374 6.907 4.767 9.201a73.286 73.286 0 00-10.215 2.829z" fill="#FFB8A5"/><path d="M696.594 158.504l.126-.352a70.674 70.674 0 01-6.674-2.961 2.08 2.08 0 01-1.255-1.826.776.776 0 01.279-.696.294.294 0 01.315.056l.054.026 8.126 2.443-.35-.458a18.053 18.053 0 01-2.503-4.438 1.678 1.678 0 01.085-1.362c.217-.329.542-.57.92-.681l6.291 5.735-.499-.946c-.587-1.111-1.643-4.369-.775-5.839a1.444 1.444 0 011.221-.713c.571 2.644 2.344 5.363 3.771 7.557.366.559.704 1.082.987 1.543l.319-.195c-.285-.468-.624-.99-.991-1.553-1.441-2.21-3.233-4.959-3.751-7.584l-.03-.153h-.157a1.86 1.86 0 00-1.69.903c-.808 1.369-.158 3.917.405 5.383l-4.994-4.553-.094.02a2.083 2.083 0 00-1.252.88 2.032 2.032 0 00-.123 1.658 16.24 16.24 0 002.231 4.112l-7.015-2.108a.648.648 0 00-.676-.064 1.13 1.13 0 00-.481 1.028 2.45 2.45 0 001.459 2.156 71.414 71.414 0 006.721 2.982z" fill="#030323"/></g><g><path d="M694.632 159.4a211.216 211.216 0 0171.424-10.403l.022-.373c-.345-.018-34.976-1.948-71.565 10.422l.119.354z" fill="#030323"/></g><g><path d="M708.298 57.52c1.197 17.047 12.99 34.73 29.013 35.886 11.532.3 28.493-18.2 29.008-35.887 4.244-54.312-62.283-54.299-58.017 0" fill="#FFB8A5"/><path d="M763.598 64.706c.459.22.961.331 1.469.327 2.204.032 4.561-1.79 5.722-4.717 1.438-3.58.551-7.386-1.989-8.559a3.894 3.894 0 00-2.356-.227 7.235 7.235 0 00-4.836 4.621c-1.437 3.578-.55 7.384 1.99 8.555zM704.324 60.317c1.072 2.667 3.121 4.39 5.111 4.652a3.524 3.524 0 002.079-.262 4.834 4.834 0 002.541-3.837 8.24 8.24 0 00-.522-4.62c0-.032-.031-.065-.031-.098-1.101-2.732-3.242-4.522-5.324-4.679a3.81 3.81 0 00-1.896.293c-2.51 1.172-3.398 4.977-1.959 8.556" fill="#FFB8A5"/><path d="M766.443 51.533c2.789-4.51 3.44-13.129 2.591-24.626 0 0-5.86-13.736-31.682-13.736-25.823 0-31.6 14.76-31.6 14.76-.109 9.617-.34 19.477 2.43 23.536 1.585.935 2.541 2.816 3.487 4.71a65.429 65.429 0 011.143-20.296s3.846-7.326 25.821-7.326 23.992 7.875 23.992 7.875c.821 8.038.932 14.76-.256 19.08a5.608 5.608 0 014.074-3.977z" fill="#441346"/><path d="M754.401 83.617s-6.495 9.662-16.769 12.93c-12.237-3.922-16.67-10.688-16.67-10.688s9.537 5.105 16.999 5.137c8.422.037 16.44-7.379 16.44-7.379z" fill="#231F20"/></g><g><path d="M733.724 68.363c.017.01.035.02.054.027.131.047 3.22 1.134 4.968.204 1.73-.922-.538-10.085-1.274-12.872a.314.314 0 00-.605.16c1.448 5.483 2.465 11.69 1.585 12.16-1.504.8-4.433-.23-4.461-.242a.314.314 0 00-.267.563zM736.931 78.794a28.973 28.973 0 009.892-1.859.31.31 0 00.172-.17.315.315 0 000-.242.316.316 0 00-.415-.166c-.109.048-11.444 4.659-19.277-1.004a.316.316 0 00-.452.06.31.31 0 00-.054.242.311.311 0 00.139.205 16.825 16.825 0 009.995 2.934z" fill="#030323"/><path d="M750.449 54.475c-.125 1.71.554 3.154 1.516 3.225.962.07 1.843-1.26 1.969-2.97.126-1.71-.553-3.154-1.515-3.225-.963-.07-1.844 1.26-1.97 2.97zM720.797 55.315c.178 1.705 1.101 3.008 2.06 2.908.959-.1 1.594-1.565 1.416-3.272-.177-1.707-1.101-3.008-2.061-2.908-.96.1-1.593 1.565-1.415 3.272z" fill="#231F20"/></g><g><path d="M703.678 41.781l67.186-.847a53.66 53.66 0 00.049-3.723c-.481-23.804-16.656-35.135-33.436-34.704-28.11.724-32.91 24.56-33.675 34.737a39.719 39.719 0 00-.124 4.537z" fill="#DC7567"/><path d="M732.83 38.576h11.612L742.918 1.17h-8.562l-1.526 37.406z" fill="#E89E8A"/><path d="M703.681 41.781l67.183-.847c.056-1.275.073-2.516.049-3.724-21.716-4.975-44.096-4.915-67.112.034a39.484 39.484 0 00-.12 4.537z" fill="#E89E8A"/><path d="M774.116 39.091c-23.742-6.002-48.282-5.933-73.592 0 0 0-4.053 7.874 38.218 7.874 36.462 0 35.374-7.874 35.374-7.874z" fill="#DC7567"/><path d="M771.246 37.89c.365-.01 1.057-29.362-26.474-34.9 8.327 2.587 22.351 13.752 20.66 30.28-.345 3.377-8.215 1.196-8.215 1.196l14.029 3.423z" fill="#fff"/></g></g></svg>