<?xml version="1.0" encoding="utf-8"?>
<!-- Generator: Adobe Illustrator 23.0.2, SVG Export Plug-In . SVG Version: 6.00 Build 0)  -->
<svg version="1.1" id="Layer_1" xmlns="http://www.w3.org/2000/svg" xmlns:xlink="http://www.w3.org/1999/xlink" x="0px" y="0px"
	 width="143px" height="56px" viewBox="0 0 143 56" style="enable-background:new 0 0 143 56;" xml:space="preserve">
<style type="text/css">
	.st0{clip-path:url(#SVGID_2_);}
	.st1{fill:url(#SVGID_3_);}
	.st2{fill:url(#SVGID_4_);}
	.st3{fill:url(#SVGID_5_);}
	.st4{fill:url(#SVGID_6_);}
	.st5{fill:url(#SVGID_7_);}
	.st6{fill:url(#SVGID_8_);}
	.st7{fill:url(#SVGID_9_);}
	.st8{fill:#FFFFFF;}
</style>
<g>
	<defs>
		<rect id="SVGID_1_" width="46.5" height="54.6"/>
	</defs>
	<clipPath id="SVGID_2_">
		<use xlink:href="#SVGID_1_"  style="overflow:visible;"/>
	</clipPath>
	<g class="st0">
		
			<linearGradient id="SVGID_3_" gradientUnits="userSpaceOnUse" x1="-4.434" y1="37.8298" x2="37.741" y2="-2.2262" gradientTransform="matrix(1 0 0 -1 0 56)">
			<stop  offset="4.400000e-02" style="stop-color:#DFAFA2"/>
			<stop  offset="0.547" style="stop-color:#DC7567"/>
			<stop  offset="0.922" style="stop-color:#441346"/>
		</linearGradient>
		<path class="st1" d="M9.8,48.3c0.1,0,0.2,0,0.3,0c0.4,0,0.8-0.1,1.2-0.1c0.9,0,1.8-0.2,2.7-0.4c0.9-0.2,1.8-0.5,2.7-0.8
			c2.4-0.9,4.7-1.9,6.9-3.2c1-0.6,1.9-1.2,2.9-1.8c0.2-0.1,0.4-0.1,0.6,0c2.9,1.9,6,3.5,9.2,4.7c2,0.7,4.1,1.4,6.2,1.6
			c0.6,0.1,1.2,0.1,1.7,0.1c0.2,0,0.3,0,0.5,0c-0.5,0.9-5.4,3.8-8.2,4.8c-3,1.1-6.1,1.6-9.3,1.6s-6.3-0.6-9.3-1.6
			C15,52,12.3,50.4,9.8,48.3z"/>
		
			<linearGradient id="SVGID_4_" gradientUnits="userSpaceOnUse" x1="25.136" y1="60.1027" x2="30.3921" y2="37.4433" gradientTransform="matrix(1 0 0 -1 0 56)">
			<stop  offset="0" style="stop-color:#DFAFA2"/>
			<stop  offset="0.39" style="stop-color:#DC7567"/>
			<stop  offset="0.916" style="stop-color:#441346"/>
		</linearGradient>
		<path class="st2" d="M9.9,6.3C15.1,2,21.1,0,27.9,0c6.5,0,12.2,2.3,17.3,6.4c-0.1,0-0.2,0-0.3,0c-1.5-0.1-2.9,0.1-4.3,0.4
			C38.3,7.3,36,8.1,33.8,9c-2.3,1-4.5,2.2-6.6,3.5c-0.2,0.1-0.3,0.1-0.5,0c-3.3-2.2-6.8-4-10.6-5.2c-1.1-0.4-2.3-0.7-3.5-0.8
			c-0.7-0.1-1.5-0.1-2.2-0.1C10.2,6.4,10,6.4,9.9,6.3C9.9,6.4,9.9,6.4,9.9,6.3z"/>
		
			<linearGradient id="SVGID_5_" gradientUnits="userSpaceOnUse" x1="-3.9529" y1="38.3349" x2="38.2222" y2="-1.7212" gradientTransform="matrix(1 0 0 -1 0 56)">
			<stop  offset="4.400000e-02" style="stop-color:#DFAFA2"/>
			<stop  offset="0.547" style="stop-color:#DC7567"/>
			<stop  offset="0.922" style="stop-color:#441346"/>
		</linearGradient>
		<path class="st3" d="M6.2,44.7C1.6,39-0.4,32.5,0,25.3C0.4,19.5,2.5,14.4,6.1,10h0.1c0,0.2,0,0.3,0,0.5c0,1.2,0.1,2.3,0.3,3.4
			c0.4,2.4,1.2,4.7,2.2,6.9c0.9,2.2,2,4.2,3.3,6.2c0.2,0.3,0.2,0.5,0,0.9c-1.3,2.1-2.5,4.3-3.5,6.7c-0.8,2-1.5,4.1-1.9,6.3
			c-0.2,1.2-0.3,2.4-0.3,3.7c0,0.1,0,0.2,0,0.2S6.3,44.6,6.2,44.7z"/>
		
			<linearGradient id="SVGID_6_" gradientUnits="userSpaceOnUse" x1="-6.9479" y1="35.1823" x2="35.2271" y2="-4.8737" gradientTransform="matrix(1 0 0 -1 0 56)">
			<stop  offset="4.400000e-02" style="stop-color:#DFAFA2"/>
			<stop  offset="0.547" style="stop-color:#DC7567"/>
			<stop  offset="0.922" style="stop-color:#441346"/>
		</linearGradient>
		<path class="st4" d="M12.8,28.1c3.6,5.2,8,9.6,13.3,13.1c-0.1,0.1-0.2,0.2-0.3,0.2c-2.3,1.5-4.7,2.8-7.2,3.8c-2,0.9-4,1.5-6.2,1.9
			c-1,0.2-2.1,0.2-3.1,0.1c-1.1-0.2-1.7-0.8-1.9-1.8c-0.3-1.2-0.2-2.4-0.1-3.6c0.4-3.3,1.5-6.4,3-9.3c0.7-1.4,1.5-2.7,2.2-4.1
			C12.6,28.4,12.7,28.3,12.8,28.1z"/>
		
			<linearGradient id="SVGID_7_" gradientUnits="userSpaceOnUse" x1="5.3833" y1="31.8401" x2="18.9035" y2="47.7235" gradientTransform="matrix(1 0 0 -1 0 56)">
			<stop  offset="6.000000e-03" style="stop-color:#DFAFA2"/>
			<stop  offset="0.35" style="stop-color:#DC7567"/>
			<stop  offset="0.905" style="stop-color:#441346"/>
		</linearGradient>
		<path class="st5" d="M12.8,26.4c-0.1-0.1-0.1-0.1-0.1-0.2C10.7,23,9,19.5,8,15.9c-0.4-1.5-0.7-2.9-0.8-4.5c0-0.8,0-1.5,0.2-2.3
			c0.2-0.9,0.8-1.5,1.7-1.8c1-0.2,1.9-0.2,2.8-0.1c2.3,0.3,4.6,1,6.7,1.9c2.4,1,4.8,2.3,7,3.7c0.1,0.1,0.2,0.1,0.3,0.2
			c-0.1,0.1-0.2,0.2-0.3,0.2c-1,0.8-2.1,1.5-3.1,2.3c-1.2,1-2.3,2-3.4,3c-2.3,2.2-4.3,4.6-6.1,7.2C13,26.1,12.9,26.2,12.8,26.4z"/>
		
			<linearGradient id="SVGID_8_" gradientUnits="userSpaceOnUse" x1="35.9193" y1="7.0611" x2="40.5169" y2="25.4252" gradientTransform="matrix(1 0 0 -1 0 56)">
			<stop  offset="5.000000e-03" style="stop-color:#DFAFA2"/>
			<stop  offset="0.273" style="stop-color:#DC7567"/>
			<stop  offset="0.524" style="stop-color:#441346"/>
		</linearGradient>
		<path class="st6" d="M27.8,41.2c0.1-0.1,0.2-0.2,0.3-0.2c1.2-0.9,2.4-1.8,3.6-2.8c0.8-0.6,1.7-1,2.7-1.1c1.4,0,2.5,0.5,3.5,1.5
			c1.2,1.2,2.3,2.3,3.5,3.4c1.6,1.6,3.2,3.1,4.8,4.7c0.1,0.1,0.2,0.2,0.3,0.2V47c-0.3,0.1-0.5,0.2-0.8,0.2c-0.8,0.2-1.6,0.2-2.4,0.1
			c-2.4-0.2-4.7-0.9-7-1.8c-2.8-1.1-5.5-2.5-8.1-4.1c-0.1-0.1-0.2-0.1-0.3-0.2C27.9,41.3,27.9,41.3,27.8,41.2z"/>
		
			<linearGradient id="SVGID_9_" gradientUnits="userSpaceOnUse" x1="33.1631" y1="61.966" x2="38.4191" y2="39.3066" gradientTransform="matrix(1 0 0 -1 0 56)">
			<stop  offset="0" style="stop-color:#DFAFA2"/>
			<stop  offset="0.39" style="stop-color:#DC7567"/>
			<stop  offset="0.916" style="stop-color:#441346"/>
		</linearGradient>
		<path class="st7" d="M27.8,13.2c0.2-0.1,0.4-0.2,0.5-0.3c2.9-1.7,5.9-3.2,9-4.3c1.7-0.6,3.4-1.1,5.1-1.3c1.1-0.1,2.2-0.1,3.3,0.2
			c0.1,0,0.3,0.1,0.5,0.2c0,0.1-0.1,0.2-0.1,0.3c-1.2,1.2-2.4,2.3-3.5,3.5c-1.5,1.5-3.1,3-4.6,4.5c-0.9,0.9-2,1.3-3.2,1.4
			c-0.8,0-1.6-0.2-2.3-0.7c-0.4-0.3-0.8-0.6-1.2-0.9c-1-0.7-2-1.5-2.9-2.2C28.1,13.4,28,13.3,27.8,13.2z"/>
	</g>
</g>
<path class="st8" d="M60.4,41.8c-0.3,0.1-0.6,0.2-0.9,0.2c-1,0-1.5-0.6-1.5-1.7v-3.4h-1V36h1v-1.4l0.9-0.3V36h1.5v0.8h-1.5v3.3
	c0,0.3,0,0.6,0.2,0.8c0.1,0.1,0.2,0.2,0.3,0.2s0.2,0.1,0.4,0c0.2,0,0.4-0.1,0.6-0.2V41.8z M68.2,39.1h-4.1c0,0.5,0.2,1.1,0.5,1.5
	c0.2,0.2,0.4,0.3,0.6,0.4c0.2,0.1,0.5,0.1,0.7,0.1c0.7,0,1.3-0.2,1.8-0.6v0.9c-0.6,0.4-1.3,0.6-2,0.6c-0.4,0-0.7,0-1.1-0.2
	c-0.3-0.1-0.6-0.3-0.9-0.6c-0.5-0.6-0.8-1.4-0.7-2.2c0-0.8,0.2-1.6,0.8-2.2c0.2-0.3,0.5-0.5,0.9-0.6c0.3-0.1,0.7-0.2,1-0.2
	c0.3,0,0.7,0,1,0.2c0.3,0.1,0.6,0.3,0.8,0.6c0.4,0.6,0.7,1.3,0.6,2V39.1z M67.2,38.4c0-0.5-0.1-0.9-0.4-1.3
	c-0.1-0.1-0.3-0.3-0.5-0.3c-0.2-0.1-0.4-0.1-0.6-0.1c-0.2,0-0.4,0-0.6,0.1c-0.2,0.1-0.4,0.2-0.5,0.4c-0.3,0.3-0.5,0.8-0.6,1.2
	L67.2,38.4z M75.4,41.5c-0.5,0.3-1,0.4-1.6,0.4c-0.4,0-0.7,0-1.1-0.2c-0.3-0.1-0.7-0.4-0.9-0.6C71.3,40.6,71,39.8,71,39
	c0-0.8,0.3-1.7,0.8-2.3c0.3-0.3,0.6-0.5,1-0.7c0.4-0.2,0.8-0.2,1.2-0.2c0.5,0,0.9,0.1,1.3,0.3v1c-0.4-0.3-0.9-0.5-1.4-0.5
	c-0.3,0-0.5,0-0.8,0.2c-0.3,0.1-0.5,0.3-0.7,0.5c-0.4,0.5-0.6,1.1-0.6,1.7c0,0.6,0.2,1.2,0.5,1.6c0.2,0.2,0.4,0.4,0.7,0.5
	c0.2,0.1,0.5,0.1,0.8,0.1c0.5,0,1-0.2,1.4-0.5L75.4,41.5z M83.5,41.8h-0.9v-3.3c0-1.2-0.4-1.8-1.3-1.8c-0.2,0-0.4,0-0.6,0.1
	c-0.2,0.1-0.4,0.2-0.5,0.4c-0.3,0.4-0.5,0.9-0.5,1.3v3.3h-0.9v-8.6h0.9V37h0c0.2-0.3,0.5-0.6,0.8-0.8c0.3-0.2,0.7-0.3,1.1-0.3
	c1.3,0,2,0.8,2,2.4L83.5,41.8z M91.9,41.8H91v-3.3c0-1.2-0.4-1.8-1.3-1.8c-0.2,0-0.4,0-0.6,0.1c-0.2,0.1-0.4,0.2-0.5,0.4
	C88.1,37.5,88,38,88,38.5v3.3h-0.9V36H88v1h0c0.2-0.3,0.5-0.6,0.8-0.8c0.3-0.2,0.7-0.3,1.1-0.3c0.3,0,0.5,0,0.8,0.1
	c0.3,0.1,0.5,0.3,0.7,0.5c0.4,0.5,0.5,1.1,0.5,1.8L91.9,41.8z M97.9,42c-0.4,0-0.8,0-1.1-0.2c-0.4-0.1-0.7-0.4-0.9-0.6
	c-0.5-0.6-0.8-1.4-0.8-2.2c0-0.4,0-0.8,0.2-1.2c0.1-0.4,0.4-0.8,0.6-1.1c0.3-0.3,0.6-0.5,1-0.6s0.8-0.2,1.2-0.2c0.4,0,0.8,0,1.1,0.2
	c0.3,0.1,0.7,0.3,0.9,0.6c0.5,0.6,0.8,1.4,0.7,2.2c0,0.8-0.2,1.6-0.8,2.2c-0.3,0.3-0.6,0.5-1,0.6C98.7,41.9,98.3,42,97.9,42z
	 M98,36.7c-0.3,0-0.5,0-0.8,0.1c-0.2,0.1-0.5,0.3-0.6,0.5c-0.4,0.5-0.6,1.1-0.5,1.7c0,0.6,0.2,1.2,0.5,1.6c0.2,0.2,0.4,0.4,0.6,0.5
	c0.2,0.1,0.5,0.2,0.8,0.1c0.3,0,0.5,0,0.8-0.1c0.2-0.1,0.5-0.3,0.6-0.5c0.4-0.5,0.5-1.1,0.5-1.7c0-0.6-0.1-1.2-0.5-1.7
	c-0.2-0.2-0.4-0.4-0.6-0.5C98.5,36.7,98.3,36.6,98,36.7L98,36.7z M105.1,41.8h-0.9v-8.6h0.9V41.8z M111.3,42c-0.4,0-0.8,0-1.1-0.2
	c-0.4-0.1-0.7-0.4-0.9-0.6c-0.5-0.6-0.8-1.4-0.8-2.2c0-0.4,0-0.8,0.2-1.2c0.1-0.4,0.4-0.8,0.6-1.1c0.3-0.3,0.6-0.5,1-0.6
	s0.8-0.2,1.2-0.2c0.4,0,0.8,0,1.1,0.2c0.3,0.1,0.7,0.3,0.9,0.6c0.5,0.6,0.8,1.4,0.7,2.2c0,0.8-0.2,1.6-0.8,2.2
	c-0.3,0.3-0.6,0.5-1,0.6C112,41.9,111.6,42,111.3,42L111.3,42z M111.3,36.7c-0.3,0-0.5,0-0.8,0.1c-0.2,0.1-0.5,0.3-0.6,0.5
	c-0.4,0.5-0.6,1.1-0.5,1.7c0,0.6,0.2,1.2,0.5,1.6c0.2,0.2,0.4,0.4,0.6,0.5c0.2,0.1,0.5,0.2,0.8,0.1c0.3,0,0.5,0,0.8-0.1
	c0.2-0.1,0.5-0.3,0.6-0.5c0.4-0.5,0.5-1.1,0.5-1.7c0-0.6-0.1-1.2-0.5-1.7c-0.2-0.2-0.4-0.4-0.6-0.5
	C111.8,36.7,111.6,36.6,111.3,36.7L111.3,36.7z M122.4,41.3c0,2.1-1,3.2-3.1,3.2c-0.7,0-1.3-0.1-1.9-0.4v-0.9
	c0.6,0.3,1.2,0.5,1.9,0.5c1.4,0,2.1-0.8,2.1-2.3v-0.6h0c-0.2,0.4-0.5,0.6-0.8,0.8c-0.4,0.2-0.8,0.3-1.2,0.3c-0.3,0-0.7-0.1-1-0.2
	c-0.3-0.1-0.6-0.3-0.8-0.6c-0.5-0.6-0.7-1.3-0.7-2.1c0-0.8,0.2-1.7,0.7-2.4c0.2-0.3,0.5-0.5,0.9-0.7c0.3-0.2,0.7-0.2,1.1-0.2
	c0.3,0,0.7,0.1,1,0.2c0.3,0.2,0.6,0.4,0.7,0.7h0V36h0.9L122.4,41.3z M121.5,39.2v-0.9c0-0.2,0-0.4-0.1-0.6c-0.1-0.2-0.2-0.4-0.4-0.5
	c-0.1-0.2-0.3-0.3-0.5-0.4c-0.2-0.1-0.4-0.1-0.6-0.1c-0.3,0-0.5,0-0.8,0.1s-0.4,0.3-0.6,0.5c-0.4,0.5-0.5,1.1-0.5,1.8
	c0,0.6,0.1,1.1,0.5,1.6c0.1,0.2,0.3,0.3,0.6,0.4c0.2,0.1,0.5,0.1,0.7,0.1c0.2,0,0.5,0,0.7-0.1c0.2-0.1,0.4-0.2,0.6-0.4
	C121.4,40.2,121.5,39.7,121.5,39.2z M126.7,34.5c-0.1,0-0.2,0-0.2,0c-0.1,0-0.1-0.1-0.2-0.1c-0.1-0.1-0.1-0.1-0.1-0.2
	c0-0.1,0-0.2,0-0.2c0-0.1,0-0.2,0-0.2c0-0.1,0.1-0.1,0.1-0.2c0.1-0.1,0.1-0.1,0.2-0.1c0.1,0,0.2,0,0.2,0c0.1,0,0.2,0,0.2,0
	c0.1,0,0.1,0.1,0.2,0.1c0.1,0.1,0.1,0.1,0.1,0.2c0,0.1,0,0.2,0,0.2c0,0.1,0,0.2,0,0.2c0,0.1-0.1,0.1-0.1,0.2
	c-0.1,0.1-0.1,0.1-0.2,0.1C126.8,34.5,126.7,34.5,126.7,34.5L126.7,34.5z M127.1,41.8h-0.9V36h0.9V41.8z M135.5,39.1h-4.1
	c0,0.5,0.2,1.1,0.5,1.5c0.2,0.2,0.4,0.3,0.6,0.4c0.2,0.1,0.5,0.1,0.7,0.1c0.7,0,1.3-0.2,1.8-0.6v0.9c-0.6,0.4-1.3,0.6-2,0.6
	c-0.4,0-0.7,0-1.1-0.2c-0.3-0.1-0.6-0.3-0.9-0.6c-0.5-0.6-0.8-1.4-0.7-2.2c0-0.8,0.2-1.6,0.8-2.2c0.2-0.3,0.5-0.5,0.9-0.6
	s0.7-0.2,1-0.2c0.3,0,0.7,0,1,0.2c0.3,0.1,0.6,0.3,0.8,0.6c0.4,0.6,0.7,1.3,0.6,2L135.5,39.1z M134.6,38.4c0-0.5-0.1-0.9-0.4-1.3
	c-0.1-0.2-0.3-0.3-0.5-0.3c-0.2-0.1-0.4-0.1-0.6-0.1c-0.2,0-0.4,0-0.6,0.1c-0.2,0.1-0.4,0.2-0.5,0.4c-0.3,0.3-0.5,0.8-0.6,1.2
	L134.6,38.4z M138.4,41.6v-1c0.5,0.4,1.1,0.6,1.7,0.6c0.8,0,1.2-0.3,1.2-0.8c0-0.1,0-0.3-0.1-0.4c-0.1-0.1-0.2-0.2-0.3-0.3
	c-0.1-0.1-0.3-0.2-0.4-0.2c-0.2-0.1-0.3-0.1-0.5-0.2c-0.2-0.1-0.5-0.2-0.7-0.3c-0.2-0.1-0.3-0.2-0.5-0.4c-0.1-0.1-0.2-0.3-0.3-0.4
	c-0.1-0.2-0.1-0.4-0.1-0.6c0-0.3,0.1-0.5,0.2-0.7c0.1-0.2,0.3-0.4,0.5-0.5c0.2-0.1,0.5-0.3,0.7-0.3c0.3-0.1,0.5-0.1,0.8-0.1
	c0.5,0,0.9,0.1,1.3,0.3v0.9c-0.4-0.3-1-0.4-1.5-0.4c-0.2,0-0.3,0-0.5,0.1c-0.1,0-0.3,0.1-0.4,0.2c-0.1,0.1-0.2,0.2-0.2,0.3
	c-0.1,0.1-0.1,0.2-0.1,0.3c0,0.1,0,0.3,0.1,0.4c0.1,0.1,0.1,0.2,0.2,0.3c0.1,0.1,0.2,0.2,0.4,0.2c0.2,0.1,0.3,0.1,0.5,0.2
	c0.2,0.1,0.5,0.2,0.7,0.3c0.2,0.1,0.4,0.2,0.5,0.4c0.1,0.1,0.3,0.3,0.3,0.5c0.1,0.2,0.1,0.4,0.1,0.6c0,0.3-0.1,0.5-0.2,0.7
	c-0.1,0.2-0.3,0.4-0.5,0.5c-0.2,0.1-0.5,0.3-0.7,0.3c-0.3,0.1-0.6,0.1-0.9,0.1C139.4,42,138.9,41.8,138.4,41.6L138.4,41.6z"/>
<path class="st8" d="M66.5,27.5c-1.1,0.5-2.3,0.8-3.5,0.7c-0.8,0-1.6-0.1-2.4-0.4c-0.7-0.3-1.4-0.8-2-1.3c-1.1-1.3-1.7-2.9-1.6-4.6
	c0-0.9,0.1-1.8,0.4-2.6c0.3-0.8,0.8-1.6,1.4-2.3c0.6-0.6,1.3-1.1,2.1-1.4c0.8-0.3,1.7-0.5,2.5-0.5c1,0,2,0.1,3,0.5v1.6
	c-0.9-0.5-2-0.8-3-0.8c-0.7,0-1.3,0.1-1.9,0.3c-0.6,0.3-1.2,0.6-1.6,1.1c-0.9,1.1-1.4,2.5-1.4,3.9c-0.1,1.4,0.4,2.7,1.3,3.7
	c0.4,0.5,0.9,0.8,1.5,1.1c0.6,0.2,1.2,0.3,1.8,0.3c1.2,0,2.3-0.3,3.3-0.9L66.5,27.5z M75.9,28.3c-0.8,0-1.6-0.1-2.4-0.4
	c-0.7-0.3-1.4-0.8-2-1.4c-1.1-1.3-1.7-2.9-1.6-4.6c-0.1-1.8,0.5-3.5,1.7-4.9c0.6-0.6,1.3-1.1,2.1-1.4c0.8-0.3,1.6-0.5,2.5-0.4
	c0.8,0,1.6,0.1,2.3,0.4c0.7,0.3,1.4,0.8,1.9,1.4c1.1,1.3,1.7,2.9,1.6,4.6c0.1,1.8-0.5,3.5-1.6,4.9c-0.6,0.6-1.2,1.1-2,1.4
	C77.5,28.1,76.7,28.3,75.9,28.3L75.9,28.3z M76,16.5c-0.6,0-1.2,0.1-1.8,0.4c-0.6,0.3-1.1,0.6-1.5,1.1c-0.9,1.1-1.3,2.4-1.2,3.8
	c-0.1,1.4,0.4,2.7,1.2,3.8c0.4,0.5,0.9,0.8,1.4,1.1c0.6,0.2,1.2,0.4,1.8,0.3c0.6,0,1.2-0.1,1.8-0.3c0.6-0.2,1.1-0.6,1.5-1.1
	c0.9-1.1,1.3-2.4,1.2-3.8c0.1-1.4-0.3-2.8-1.2-3.9c-0.4-0.5-0.9-0.8-1.5-1.1C77.2,16.5,76.6,16.4,76,16.5L76,16.5z M86.6,28V15.3
	h3.6c0.9-0.1,1.9,0.2,2.6,0.8c0.3,0.3,0.6,0.6,0.7,0.9c0.2,0.4,0.2,0.8,0.2,1.2c0,0.7-0.2,1.3-0.6,1.9c-0.4,0.5-1,0.9-1.6,1.1v0
	c0.8,0.1,1.5,0.4,2.1,1c0.5,0.6,0.8,1.3,0.8,2.1c0,0.5-0.1,1-0.3,1.5c-0.2,0.5-0.5,0.9-0.9,1.2c-0.8,0.7-1.9,1-3,1H86.6z M88.1,16.7
	v4.1h1.5c0.7,0,1.4-0.2,1.9-0.6c0.2-0.2,0.4-0.5,0.5-0.7c0.1-0.3,0.2-0.6,0.2-0.9c0-1.2-0.8-1.9-2.4-1.9L88.1,16.7z M88.1,22.1v4.6
	h2c0.7,0,1.5-0.2,2-0.6c0.2-0.2,0.4-0.5,0.6-0.8c0.1-0.3,0.2-0.6,0.2-0.9c0-1.5-1-2.2-3.1-2.2L88.1,22.1z M104.3,28.3
	c-0.8,0-1.6-0.1-2.4-0.4c-0.7-0.3-1.4-0.8-2-1.4c-1.1-1.3-1.7-2.9-1.6-4.6c-0.1-1.8,0.5-3.5,1.7-4.9c0.6-0.6,1.3-1.1,2.1-1.4
	c0.8-0.3,1.6-0.5,2.5-0.4c0.8,0,1.6,0.1,2.3,0.4c0.7,0.3,1.4,0.8,1.9,1.4c1.1,1.3,1.7,2.9,1.6,4.6c0.1,1.8-0.5,3.5-1.6,4.9
	c-0.6,0.6-1.2,1.1-2,1.4S105.1,28.3,104.3,28.3L104.3,28.3z M104.4,16.5c-0.6,0-1.2,0.1-1.8,0.4c-0.6,0.2-1.1,0.6-1.5,1.1
	c-0.9,1.1-1.3,2.4-1.2,3.8c-0.1,1.4,0.4,2.7,1.2,3.8c0.4,0.5,0.9,0.8,1.4,1.1c0.6,0.2,1.2,0.4,1.8,0.3c0.6,0,1.2-0.1,1.8-0.3
	c0.6-0.2,1.1-0.6,1.5-1.1c0.9-1.1,1.3-2.4,1.2-3.8c0.1-1.4-0.3-2.8-1.2-3.9c-0.4-0.5-0.9-0.8-1.5-1.1
	C105.6,16.5,105,16.4,104.4,16.5L104.4,16.5z M121.7,16.7H118V28h-1.5V16.7h-3.7v-1.3h8.8L121.7,16.7z M134.7,28h-1.8l-2.9-4.9
	c-0.1-0.2-0.2-0.4-0.3-0.6h0c-0.1,0.1-0.2,0.3-0.3,0.6l-3,4.9h-1.8l4.3-6.4l-3.9-6.3h1.8l2.6,4.5c0.2,0.3,0.3,0.6,0.5,0.9h0
	c0.1-0.3,0.3-0.6,0.5-0.9l2.7-4.4h1.7l-4,6.3L134.7,28z"/>
</svg>
