<svg width="197" height="81" viewBox="0 0 197 81" fill="none" xmlns="http://www.w3.org/2000/svg">
<g clip-path="url(#clip0)">
<path d="M13.9805 70.4042C14.1231 70.4042 14.2658 70.4042 14.4084 70.4042C14.9791 70.4042 15.5497 70.2606 16.1203 70.2606C17.4042 70.2606 18.6881 69.9736 19.972 69.6865C21.2559 69.3994 22.5398 68.9688 23.8237 68.5382C27.2474 67.2464 30.5285 65.8111 33.6669 63.9452C35.0934 63.084 36.3773 62.2228 37.8039 61.3616C38.0892 61.218 38.3745 61.218 38.6598 61.3616C42.7968 64.0887 47.2191 66.3852 51.7841 68.1076C54.6372 69.1124 57.633 70.1171 60.6287 70.4042C61.4846 70.5477 62.3406 70.5477 63.0539 70.5477C63.3392 70.5477 63.4818 70.5477 63.7671 70.5477C63.0539 71.8395 56.0638 76.002 52.0694 77.4373C47.7898 79.0162 43.3674 79.7339 38.8025 79.7339C34.2375 79.7339 29.8152 78.8727 25.5355 77.4373C21.3985 75.7149 17.5468 73.4184 13.9805 70.4042Z" fill="url(#paint0_linear)"/>
<path d="M14.123 9.83168C21.5411 3.65974 30.1004 0.789062 39.6583 0.789062C48.9309 0.789062 57.0622 4.09034 64.3377 9.97522C64.195 9.97522 64.0524 9.97522 63.9097 9.97522C61.7699 9.83168 59.7727 10.1188 57.7755 10.5494C54.4945 11.267 51.2134 12.4153 48.075 13.7071C44.7939 15.1424 41.6555 16.8648 38.6597 18.7308C38.3744 18.8743 38.2318 18.8743 37.9465 18.7308C33.2388 15.573 28.2459 12.9894 22.825 11.267C21.2558 10.6929 19.5439 10.2623 17.8321 10.1188C16.8335 9.97522 15.6923 9.97522 14.6937 9.97522C14.551 9.97522 14.2657 9.97522 14.123 9.83168C14.123 9.97522 14.123 9.97522 14.123 9.83168Z" fill="url(#paint1_linear)"/>
<path d="M8.8445 65.2339C2.28236 57.0525 -0.570746 47.7228 -0.000125725 37.2448C0.570495 28.9199 3.56625 21.5996 8.70184 15.1406H8.8445C8.8445 15.4277 8.8445 15.5712 8.8445 15.8583C8.8445 17.5807 8.98715 19.1596 9.27246 20.7384C9.84308 24.1832 10.9843 27.4845 12.4109 30.6423C13.6948 33.8 15.264 36.6707 17.1185 39.5414C17.4038 39.972 17.4038 40.259 17.1185 40.8332C15.264 43.8474 13.5521 47.0051 12.1256 50.4499C10.9843 53.3206 9.98574 56.3348 9.41512 59.4925C9.12981 61.2149 8.98715 62.9373 8.98715 64.8033C8.98715 64.9468 8.98715 65.0903 8.98715 65.0903C8.98715 65.0903 8.98715 65.0903 8.8445 65.2339Z" fill="url(#paint2_linear)"/>
<path d="M18.2602 41.2656C23.3958 48.7294 29.6726 55.0449 37.2333 60.2121C37.0906 60.3556 36.948 60.4991 36.8053 60.4991C33.5243 62.6521 30.1005 64.5181 26.5342 65.9534C23.6811 67.2452 20.828 68.1064 17.6896 68.6806C16.263 68.9676 14.6938 68.9676 13.2672 68.8241C11.698 68.537 10.8421 67.6758 10.5568 66.2405C10.1288 64.5181 10.2715 62.7957 10.4141 61.0733C10.9848 56.3367 12.554 51.8871 14.6938 47.7246C15.6924 45.7152 16.8336 43.8492 17.8322 41.8398C17.9749 41.6962 18.1175 41.5527 18.2602 41.2656Z" fill="url(#paint3_linear)"/>
<path d="M18.2602 38.8246C18.1175 38.6811 18.1175 38.6811 18.1175 38.5376C15.2644 33.9445 12.8393 28.9208 11.4127 23.7536C10.8421 21.6006 10.4141 19.5911 10.2715 17.2946C10.2715 16.1463 10.2715 15.1416 10.5568 13.9933C10.8421 12.7015 11.698 11.8403 12.9819 11.4097C14.4085 11.1226 15.6924 11.1226 16.9763 11.2662C20.2573 11.6968 23.5384 12.7015 26.5342 13.9933C29.9579 15.4286 33.3816 17.2946 36.52 19.304C36.6627 19.4476 36.8054 19.4476 36.948 19.5911C36.8054 19.7346 36.6627 19.8782 36.52 19.8782C35.0935 21.0264 33.5243 22.0312 32.0977 23.1795C30.3859 24.6148 28.8167 26.0501 27.2475 27.4855C23.9664 30.6432 21.1133 34.088 18.5455 37.8199C18.5455 38.394 18.4028 38.5376 18.2602 38.8246Z" fill="url(#paint4_linear)"/>
<path d="M39.5156 60.213C39.6583 60.0695 39.8009 59.9259 39.9436 59.9259C41.6555 58.6341 43.3673 57.3423 45.0792 55.907C46.2204 55.0458 47.5043 54.4717 48.9309 54.3281C50.928 54.3281 52.4972 55.0458 53.9238 56.4811C55.6357 58.2035 57.2049 59.7824 58.9167 61.3613C61.1992 63.6578 63.4817 65.8108 65.7642 68.1074C65.9068 68.2509 66.0495 68.3944 66.1921 68.3944V68.538C65.7642 68.6815 65.4789 68.825 65.0509 68.825C63.9097 69.1121 62.7684 69.1121 61.6272 68.9686C58.2035 68.6815 54.9224 67.6768 51.6413 66.385C47.647 64.8061 43.7953 62.7966 40.0862 60.5001C39.9436 60.3565 39.8009 60.3565 39.6583 60.213C39.6583 60.3565 39.6583 60.3565 39.5156 60.213Z" fill="url(#paint5_linear)"/>
<path d="M39.5156 19.8786C39.8009 19.735 40.0862 19.5915 40.2289 19.4479C44.3659 17.0079 48.6456 14.8549 53.0679 13.276C55.493 12.4148 57.9181 11.6971 60.3433 11.4101C61.9125 11.2665 63.4817 11.2665 65.0509 11.6971C65.1936 11.6971 65.4789 11.8407 65.7642 11.9842C65.7642 12.1277 65.6215 12.2713 65.6215 12.4148C63.9097 14.1372 62.1978 15.7161 60.6286 17.4385C58.4888 19.5915 56.2063 21.7445 54.0665 23.8975C52.7826 25.1893 51.2133 25.7634 49.5015 25.907C48.3602 25.907 47.219 25.6199 46.2204 24.9022C45.6498 24.4716 45.0792 24.041 44.5086 23.6104C43.082 22.6057 41.6555 21.4574 40.3716 20.4527C39.9436 20.1656 39.8009 20.0221 39.5156 19.8786Z" fill="url(#paint6_linear)"/>
</g>
<path d="M89.0507 53.5177C88.757 53.6618 88.4318 53.7295 88.1051 53.7147C87.0019 53.7147 86.4503 53.099 86.4503 51.8676V48.1372H85.3691V47.2752H86.4526V45.7362L87.4621 45.41V47.2752H89.0507V48.1372H87.4621V51.688C87.4341 52.0054 87.5099 52.3234 87.678 52.5942C87.7681 52.6913 87.8794 52.7663 88.0032 52.8133C88.127 52.8603 88.2601 52.8781 88.3919 52.8652C88.6287 52.8708 88.8606 52.7971 89.0507 52.6556V53.5177ZM97.4823 50.6809H93.0317C93.0089 51.2748 93.2112 51.8555 93.5982 52.3065C93.7922 52.5016 94.0253 52.6535 94.2821 52.7522C94.5389 52.851 94.8136 52.8943 95.0883 52.8794C95.8022 52.8779 96.4937 52.6299 97.0457 52.1773V53.1229C96.3961 53.553 95.6262 53.7644 94.848 53.7265C94.4565 53.7471 94.0653 53.6809 93.7023 53.5329C93.3393 53.3848 93.0134 53.1585 92.748 52.87C92.202 52.1876 91.9297 51.3262 91.9844 50.454C91.9468 49.5768 92.2452 48.7183 92.8189 48.0537C93.0751 47.7568 93.3935 47.5199 93.7516 47.3597C94.1096 47.1996 94.4984 47.1201 94.8905 47.127C95.2495 47.1065 95.6085 47.1679 95.9402 47.3066C96.272 47.4453 96.5678 47.6577 96.8054 47.9276C97.2899 48.5634 97.5301 49.3519 97.4823 50.1498V50.6809ZM96.4516 49.8236C96.4779 49.3342 96.3284 48.8515 96.03 48.4627C95.8867 48.2999 95.7084 48.1716 95.5085 48.0876C95.3085 48.0035 95.0922 47.9658 94.8756 47.9773C94.6491 47.9735 94.4242 48.017 94.2154 48.1049C94.0066 48.1928 93.8184 48.3232 93.6628 48.4879C93.3175 48.8556 93.1014 49.3259 93.0474 49.8275L96.4516 49.8236ZM105.327 53.2908C104.804 53.5924 104.207 53.7437 103.603 53.7281C103.199 53.7448 102.795 53.675 102.419 53.5235C102.043 53.372 101.704 53.1423 101.424 52.8495C100.859 52.23 100.561 51.4124 100.596 50.5745C100.552 49.6553 100.873 48.756 101.488 48.0718C101.796 47.7547 102.167 47.5064 102.578 47.3434C102.989 47.1804 103.429 47.1064 103.871 47.1262C104.376 47.116 104.877 47.2213 105.335 47.4343V48.469C104.899 48.151 104.374 47.9786 103.834 47.9765C103.535 47.968 103.237 48.0257 102.963 48.1454C102.689 48.2652 102.445 48.444 102.248 48.6691C101.82 49.1758 101.599 49.8258 101.63 50.4886C101.594 51.1251 101.802 51.7514 102.212 52.2396C102.41 52.4533 102.652 52.6213 102.921 52.7319C103.191 52.8425 103.481 52.8931 103.772 52.8802C104.336 52.8745 104.882 52.6803 105.324 52.3286L105.327 53.2908ZM114.103 53.5792H113.091V49.9473C113.091 48.6339 112.603 47.9773 111.626 47.9773C111.39 47.9742 111.155 48.0238 110.94 48.1223C110.725 48.2208 110.535 48.3659 110.383 48.547C110.036 48.9534 109.856 49.4753 109.878 50.0087V53.5792H108.868V44.2461H109.878V48.3216H109.902C110.104 47.9517 110.403 47.6445 110.768 47.4337C111.133 47.223 111.549 47.1169 111.97 47.127C113.389 47.127 114.098 47.9828 114.098 49.6943L114.103 53.5792ZM123.253 53.5792H122.244V49.9843C122.244 48.6463 121.755 47.9773 120.779 47.9773C120.541 47.9723 120.304 48.0209 120.087 48.1195C119.871 48.2181 119.679 48.3642 119.526 48.547C119.188 48.9479 119.011 49.4603 119.03 49.9843V53.5792H118.02V47.2752H119.029V48.3216H119.054C119.254 47.9503 119.553 47.642 119.919 47.431C120.284 47.22 120.701 47.1148 121.122 47.127C121.42 47.1086 121.717 47.1594 121.992 47.2753C122.266 47.3912 122.51 47.5692 122.705 47.7952C123.106 48.3552 123.301 49.0373 123.256 49.7251L123.253 53.5792ZM129.808 53.7273C129.395 53.746 128.982 53.6768 128.598 53.5244C128.213 53.372 127.866 53.1398 127.578 52.8432C127.002 52.2025 126.702 51.3607 126.743 50.5005C126.716 50.0502 126.779 49.5991 126.928 49.1733C127.077 48.7474 127.308 48.3554 127.61 48.0198C127.918 47.7167 128.285 47.4808 128.689 47.3272C129.093 47.1735 129.524 47.1053 129.956 47.127C130.363 47.104 130.771 47.1696 131.151 47.3192C131.531 47.4688 131.874 47.699 132.157 47.9938C132.716 48.6669 132.998 49.5277 132.945 50.4012C132.989 51.2873 132.683 52.1553 132.094 52.8187C131.8 53.1239 131.443 53.3628 131.049 53.5194C130.655 53.6761 130.231 53.7469 129.808 53.7273ZM129.882 47.9749C129.592 47.9618 129.303 48.0146 129.036 48.1292C128.77 48.2438 128.533 48.4174 128.343 48.6368C127.939 49.1565 127.738 49.805 127.776 50.4618C127.74 51.1016 127.945 51.7316 128.349 52.2285C128.541 52.4428 128.778 52.6119 129.043 52.7237C129.308 52.8354 129.594 52.887 129.882 52.8747C130.164 52.892 130.447 52.8442 130.708 52.7349C130.969 52.6256 131.201 52.4577 131.387 52.2443C131.768 51.723 131.954 51.0842 131.912 50.4398C131.955 49.7889 131.769 49.1434 131.387 48.6148C131.202 48.3995 130.97 48.2299 130.709 48.1193C130.447 48.0087 130.164 47.9601 129.881 47.9773L129.882 47.9749ZM137.585 53.5792H136.577V44.2461H137.585V53.5792ZM144.283 53.7273C143.87 53.7462 143.457 53.6772 143.072 53.5248C142.688 53.3724 142.34 53.14 142.052 52.8432C141.476 52.2025 141.176 51.3607 141.217 50.5005C141.19 50.0502 141.253 49.5991 141.402 49.1733C141.551 48.7474 141.782 48.3554 142.084 48.0198C142.392 47.7167 142.759 47.4808 143.163 47.3272C143.567 47.1735 143.998 47.1053 144.43 47.127C144.837 47.104 145.245 47.1696 145.625 47.3192C146.005 47.4688 146.348 47.699 146.631 47.9938C147.19 48.6669 147.472 49.5277 147.419 50.4012C147.463 51.2873 147.157 52.1553 146.568 52.8187C146.274 53.1237 145.918 53.3624 145.524 53.5191C145.13 53.6757 144.707 53.7467 144.283 53.7273V53.7273ZM144.357 47.9749C144.067 47.9618 143.778 48.0146 143.512 48.1292C143.245 48.2438 143.008 48.4174 142.818 48.6368C142.415 49.1565 142.213 49.805 142.252 50.4618C142.216 51.1016 142.42 51.7316 142.825 52.2285C143.016 52.4428 143.253 52.6119 143.518 52.7237C143.783 52.8354 144.07 52.887 144.357 52.8747C144.64 52.892 144.922 52.8442 145.183 52.7349C145.444 52.6256 145.677 52.4577 145.862 52.2443C146.244 51.7234 146.43 51.0849 146.389 50.4406C146.431 49.7888 146.243 49.1429 145.859 48.6148C145.675 48.3999 145.443 48.2306 145.182 48.12C144.922 48.0094 144.639 47.9606 144.356 47.9773L144.357 47.9749ZM156.433 53.0741C156.433 55.3887 155.325 56.546 153.109 56.546C152.402 56.5615 151.702 56.4089 151.065 56.1008V55.0937C151.681 55.4609 152.38 55.6644 153.097 55.6847C154.648 55.6847 155.424 54.8597 155.424 53.2096V52.5201H155.399C155.186 52.9023 154.87 53.2176 154.487 53.4308C154.104 53.6439 153.67 53.7466 153.232 53.7273C152.874 53.7399 152.518 53.6708 152.19 53.5252C151.862 53.3797 151.572 53.1616 151.341 52.8873C150.836 52.2472 150.582 51.4454 150.624 50.6313C150.575 49.7156 150.849 48.8118 151.396 48.0766C151.651 47.765 151.975 47.5173 152.342 47.3531C152.709 47.1889 153.11 47.1128 153.511 47.131C153.891 47.1104 154.268 47.1952 154.602 47.376C154.936 47.5568 155.213 47.8266 155.403 48.1554H155.427V47.2752H156.437L156.433 53.0741ZM155.424 50.729V49.7968C155.428 49.5594 155.385 49.3235 155.298 49.1027C155.211 48.8819 155.081 48.6804 154.916 48.51C154.755 48.3362 154.559 48.1986 154.341 48.1062C154.123 48.0138 153.888 47.9688 153.651 47.9741C153.37 47.9618 153.09 48.0171 152.836 48.1354C152.581 48.2538 152.358 48.4317 152.186 48.6542C151.802 49.2124 151.615 49.8831 151.656 50.5596C151.624 51.1637 151.804 51.7601 152.163 52.2467C152.322 52.4501 152.527 52.6133 152.76 52.7228C152.994 52.8324 153.25 52.8852 153.508 52.8771C153.769 52.8854 154.028 52.8355 154.267 52.7311C154.506 52.6267 154.719 52.4703 154.89 52.2735C155.256 51.8437 155.446 51.2925 155.424 50.729ZM161.012 45.6747C160.926 45.6764 160.841 45.6609 160.762 45.6292C160.683 45.5976 160.611 45.5503 160.55 45.4903C160.487 45.43 160.438 45.3571 160.405 45.2765C160.372 45.1959 160.357 45.1093 160.359 45.0223C160.356 44.9345 160.372 44.8472 160.405 44.7657C160.437 44.6843 160.487 44.6107 160.55 44.5495C160.61 44.4885 160.682 44.4404 160.761 44.4081C160.841 44.3759 160.926 44.3602 161.012 44.3619C161.099 44.3599 161.186 44.3755 161.267 44.4077C161.348 44.4399 161.422 44.4881 161.484 44.5495C161.548 44.6104 161.598 44.6839 161.631 44.7654C161.665 44.8468 161.681 44.9343 161.678 45.0223C161.68 45.1085 161.663 45.194 161.63 45.2735C161.596 45.3529 161.547 45.4246 161.484 45.484C161.423 45.5462 161.349 45.5952 161.268 45.628C161.186 45.6608 161.099 45.6767 161.012 45.6747V45.6747ZM161.504 53.5792H160.495V47.2752H161.504V53.5792ZM170.632 50.6793H166.181C166.158 51.2733 166.36 51.8539 166.747 52.305C166.941 52.5 167.175 52.6519 167.431 52.7506C167.688 52.8494 167.963 52.8927 168.238 52.8778C168.951 52.8764 169.643 52.6283 170.195 52.1757V53.1213C169.545 53.5514 168.775 53.7629 167.997 53.7249C167.606 53.7456 167.215 53.6796 166.852 53.5318C166.489 53.3841 166.164 53.1581 165.898 52.87C165.352 52.1876 165.08 51.3262 165.134 50.454C165.097 49.5776 165.396 48.7201 165.969 48.0561C166.225 47.7592 166.544 47.5222 166.902 47.3621C167.26 47.2019 167.648 47.1225 168.041 47.1294C168.4 47.1089 168.759 47.1703 169.09 47.309C169.422 47.4477 169.718 47.66 169.955 47.93C170.44 48.5657 170.68 49.3543 170.632 50.1522L170.632 50.6793ZM169.598 49.8236C169.624 49.3342 169.474 48.8515 169.176 48.4627C169.033 48.2997 168.855 48.1713 168.655 48.0871C168.455 48.0029 168.238 47.9651 168.022 47.9765C167.795 47.9727 167.57 48.0162 167.362 48.1041C167.153 48.192 166.965 48.3224 166.809 48.4871C166.464 48.8548 166.247 49.3251 166.194 49.8267L169.598 49.8236ZM173.795 53.3514V52.2679C174.316 52.664 174.952 52.878 175.607 52.8771C176.494 52.8771 176.937 52.5816 176.937 51.9906C176.942 51.8398 176.902 51.691 176.823 51.5627C176.741 51.4399 176.637 51.3342 176.515 51.2514C176.372 51.1539 176.22 51.0722 176.059 51.0079C175.885 50.936 175.697 50.8611 175.496 50.7833C175.244 50.6852 174.999 50.5732 174.76 50.4477C174.566 50.3473 174.387 50.2188 174.23 50.0663C174.092 49.929 173.983 49.7645 173.91 49.5832C173.835 49.3817 173.798 49.1679 173.802 48.9528C173.797 48.6765 173.867 48.4039 174.006 48.1648C174.142 47.9362 174.327 47.7405 174.548 47.5919C174.784 47.4335 175.045 47.316 175.32 47.2444C175.612 47.1662 175.914 47.127 176.216 47.1278C176.719 47.1193 177.218 47.2156 177.681 47.4107V48.4351C177.205 48.1278 176.647 47.9692 176.081 47.9796C175.908 47.9775 175.736 47.9993 175.57 48.0443C175.429 48.0813 175.296 48.1426 175.176 48.2255C175.072 48.2984 174.986 48.3941 174.924 48.5052C174.864 48.6157 174.833 48.7397 174.835 48.8654C174.83 49.008 174.861 49.1495 174.924 49.2775C174.988 49.394 175.078 49.4949 175.185 49.573C175.315 49.6683 175.455 49.7477 175.604 49.8094C175.768 49.8792 175.955 49.9552 176.164 50.0371C176.42 50.1337 176.671 50.2436 176.915 50.3665C177.12 50.4679 177.311 50.5962 177.482 50.7479C177.634 50.8846 177.757 51.0511 177.842 51.2372C177.931 51.4452 177.974 51.6699 177.968 51.896C177.975 52.1806 177.903 52.4617 177.761 52.7084C177.623 52.9388 177.435 53.1347 177.21 53.2813C176.966 53.4391 176.698 53.5537 176.415 53.6201C176.106 53.6955 175.788 53.7328 175.47 53.7313C174.889 53.7426 174.314 53.6123 173.795 53.3514V53.3514Z" fill="white"/>
<path d="M95.6361 38.043C94.451 38.6184 93.1434 38.8956 91.8269 38.8507C90.9519 38.8895 90.0787 38.7408 89.2659 38.4147C88.4531 38.0885 87.7193 37.5924 87.1138 36.9595C85.8955 35.5959 85.2599 33.8093 85.3432 31.9825C85.3006 31.0032 85.4548 30.0253 85.7969 29.1067C86.1389 28.188 86.6618 27.3474 87.3345 26.6344C87.9886 25.9624 88.7754 25.4339 89.6449 25.0826C90.5144 24.7312 91.4474 24.5646 92.3848 24.5935C93.496 24.5574 94.6027 24.7505 95.6361 25.1608V26.8826C94.6362 26.3279 93.5092 26.0428 92.3659 26.0552C91.6473 26.0287 90.9315 26.1569 90.2668 26.4311C89.6021 26.7053 89.0042 27.1192 88.5133 27.6446C87.4897 28.8134 86.9612 30.3347 87.0398 31.8864C86.9636 33.354 87.4584 34.7942 88.4203 35.9052C88.881 36.4012 89.4433 36.7919 90.069 37.0503C90.6946 37.3087 91.3687 37.4288 92.0451 37.4024C93.3067 37.4346 94.5523 37.1148 95.6424 36.4789L95.6361 38.043ZM105.84 38.8507C104.963 38.8881 104.089 38.7345 103.278 38.4006C102.466 38.0667 101.737 37.5605 101.141 36.917C99.928 35.5293 99.2959 33.7278 99.3759 31.8864C99.2769 29.9519 99.9204 28.0527 101.175 26.5769C101.798 25.9107 102.559 25.3881 103.404 25.0456C104.25 24.7031 105.16 24.5488 106.071 24.5935C106.932 24.5597 107.79 24.7144 108.585 25.0466C109.38 25.3789 110.093 25.8807 110.673 26.517C111.877 27.9089 112.502 29.7091 112.42 31.5476C112.526 33.4903 111.886 35.4003 110.63 36.8863C110.022 37.5414 109.278 38.0564 108.451 38.3956C107.624 38.7348 106.733 38.8901 105.84 38.8507V38.8507ZM105.952 26.0576C105.283 26.0367 104.619 26.1669 104.008 26.4383C103.396 26.7098 102.854 27.1157 102.422 27.6257C101.478 28.7842 100.996 30.25 101.066 31.7422C100.994 33.2248 101.464 34.683 102.388 35.8445C102.808 36.3489 103.337 36.751 103.935 37.0203C104.533 37.2896 105.184 37.4189 105.84 37.3985C106.509 37.4316 107.177 37.3159 107.796 37.0597C108.415 36.8036 108.969 36.4133 109.419 35.917C110.353 34.7447 110.819 33.2675 110.727 31.7714C110.824 30.257 110.374 28.7583 109.458 27.5485C109.024 27.0505 108.484 26.6575 107.876 26.3992C107.269 26.1409 106.611 26.0241 105.952 26.0576V26.0576ZM117.496 38.6199V24.8299H121.42C122.44 24.7748 123.446 25.0852 124.257 25.7053C124.595 25.9786 124.866 26.3262 125.048 26.721C125.23 27.1158 125.318 27.5473 125.307 27.9819C125.323 28.7127 125.1 29.4288 124.672 30.0212C124.235 30.6084 123.621 31.04 122.921 31.2529V31.2915C123.767 31.3609 124.56 31.7352 125.152 32.345C125.725 32.9762 126.025 33.8074 125.989 34.6586C126.007 35.2012 125.902 35.7407 125.682 36.2371C125.462 36.7335 125.133 37.1738 124.72 37.5253C123.824 38.273 122.683 38.6629 121.516 38.6199H117.496ZM119.111 26.2885V30.7399H120.766C121.516 30.783 122.257 30.556 122.854 30.1C123.109 29.877 123.31 29.5986 123.442 29.286C123.574 28.9734 123.632 28.6349 123.613 28.2963C123.613 26.9562 122.731 26.2861 120.968 26.2861L119.111 26.2885ZM119.111 32.1985V37.1629H121.304C122.097 37.2125 122.881 36.9735 123.511 36.4899C123.772 36.261 123.978 35.9759 124.114 35.6561C124.25 35.3363 124.312 34.9899 124.295 34.6428C124.295 33.0143 123.185 32.2 120.966 32.2L119.111 32.1985ZM136.712 38.8507C135.836 38.8881 134.961 38.7345 134.15 38.4006C133.339 38.0667 132.61 37.5605 132.013 36.917C130.8 35.5293 130.168 33.7278 130.248 31.8864C130.149 29.9519 130.793 28.0527 132.047 26.5769C132.67 25.9107 133.431 25.3881 134.277 25.0456C135.122 24.7031 136.032 24.5488 136.943 24.5935C137.804 24.5597 138.662 24.7144 139.457 25.0466C140.252 25.3789 140.965 25.8807 141.546 26.517C142.75 27.9089 143.374 29.7091 143.292 31.5476C143.399 33.4902 142.759 35.4002 141.503 36.8863C140.895 37.5415 140.151 38.0566 139.324 38.3958C138.497 38.735 137.605 38.8903 136.712 38.8507V38.8507ZM136.827 26.0576C136.159 26.0364 135.494 26.1663 134.882 26.4376C134.271 26.709 133.728 27.1148 133.295 27.6249C132.352 28.7835 131.869 30.2496 131.939 31.7422C131.868 33.2251 132.339 34.6833 133.264 35.8445C133.683 36.3485 134.211 36.7503 134.809 37.0196C135.406 37.2888 136.057 37.4184 136.712 37.3985C137.381 37.4315 138.049 37.3157 138.668 37.0596C139.286 36.8034 139.841 36.4132 140.29 35.917C141.225 34.7447 141.691 33.2675 141.599 31.7714C141.696 30.257 141.245 28.7583 140.329 27.5485C139.896 27.0511 139.357 26.6585 138.75 26.4003C138.144 26.142 137.486 26.0248 136.828 26.0576H136.827ZM155.64 26.2885H151.656V38.6199H150.042V26.2885H146.07V24.8299H155.641L155.64 26.2885ZM169.692 38.6199H167.722L164.547 33.3403C164.424 33.1213 164.319 32.8928 164.232 32.6571H164.194C164.13 32.8047 164.021 33.0324 163.867 33.3403L160.592 38.6199H158.611L163.228 31.6855L158.972 24.8299H160.954L163.773 29.6776C163.954 29.989 164.118 30.3102 164.264 30.6398H164.302C164.464 30.2968 164.644 29.9628 164.841 29.639L167.775 24.8322H169.632L165.296 31.665L169.692 38.6199Z" fill="white"/>
<defs>
<linearGradient id="paint0_linear" x1="-6.54719" y1="27.2475" x2="54.2276" y2="84.2183" gradientUnits="userSpaceOnUse">
<stop offset="0.044" stop-color="#DFAFA2"/>
<stop offset="0.547" stop-color="#DC7567"/>
<stop offset="0.922" stop-color="#441346"/>
</linearGradient>
<linearGradient id="paint1_linear" x1="35.7133" y1="-5.11261" x2="43.3826" y2="27.5204" gradientUnits="userSpaceOnUse">
<stop stop-color="#DFAFA2"/>
<stop offset="0.39" stop-color="#DC7567"/>
<stop offset="0.916" stop-color="#441346"/>
</linearGradient>
<linearGradient id="paint2_linear" x1="-5.71889" y1="26.3604" x2="55.0559" y2="83.3313" gradientUnits="userSpaceOnUse">
<stop offset="0.044" stop-color="#DFAFA2"/>
<stop offset="0.547" stop-color="#DC7567"/>
<stop offset="0.922" stop-color="#441346"/>
</linearGradient>
<linearGradient id="paint3_linear" x1="-10.0921" y1="31.0279" x2="50.6827" y2="87.9987" gradientUnits="userSpaceOnUse">
<stop offset="0.044" stop-color="#DFAFA2"/>
<stop offset="0.547" stop-color="#DC7567"/>
<stop offset="0.922" stop-color="#441346"/>
</linearGradient>
<linearGradient id="paint4_linear" x1="7.66289" y1="35.632" x2="27.1996" y2="12.9788" gradientUnits="userSpaceOnUse">
<stop offset="0.006" stop-color="#DFAFA2"/>
<stop offset="0.35" stop-color="#DC7567"/>
<stop offset="0.905" stop-color="#441346"/>
</linearGradient>
<linearGradient id="paint5_linear" x1="51.1609" y1="71.3736" x2="57.8679" y2="44.932" gradientUnits="userSpaceOnUse">
<stop offset="0.005" stop-color="#DFAFA2"/>
<stop offset="0.273" stop-color="#DC7567"/>
<stop offset="0.524" stop-color="#441346"/>
</linearGradient>
<linearGradient id="paint6_linear" x1="47.2307" y1="-7.81986" x2="54.8999" y2="24.8132" gradientUnits="userSpaceOnUse">
<stop stop-color="#DFAFA2"/>
<stop offset="0.39" stop-color="#DC7567"/>
<stop offset="0.916" stop-color="#441346"/>
</linearGradient>
<clipPath id="clip0">
<rect width="66.192" height="78.8" fill="white" transform="translate(0 0.789062)"/>
</clipPath>
</defs>
</svg>
