<?xml version="1.0" encoding="UTF-8"?> <svg xmlns="http://www.w3.org/2000/svg" width="328" height="220" viewBox="0 0 328 220" fill="none"><path d="M319.414 99.2868C310.787 86.3713 292.502 79.4515 292.027 60.0958C291.719 47.5185 297.042 40.702 288.524 29.9664C267.929 4.01466 236.193 0.973775 209.094 11.8147C181.996 22.6557 160.357 44.3764 130.24 43.0671C113.838 42.3538 98.5992 34.0075 82.3642 32.4417C77.3622 31.9565 67.4025 30.6194 63.0323 31.8178C46.6499 36.3178 37.4715 54.9692 32.0245 73.7406C27.6087 88.9581 33.2501 103.98 26.3173 118.882C18.9278 134.765 4.37513 145.797 0.708754 164.134C-3.69187 186.143 13.121 205.282 31.1816 205.88C42.6776 206.261 64.9742 215.75 74.7401 208.144C86.6313 198.884 109.693 210.733 123.556 211.088C149.938 211.763 176.039 207.181 202.081 211.712C224.395 215.594 234.308 208.378 256.923 209.108C273.531 209.645 287.626 209.886 296.613 190.543C307.355 167.428 337.508 126.377 319.414 99.2868Z" fill="#DFAFA2" fill-opacity="0.34"></path><path d="M124.193 173.832L124.002 173.672C123.643 173.373 123.265 173.041 122.847 172.653L122.422 172.26L122.986 172.383C123.425 172.479 123.875 172.554 124.322 172.607L124.5 172.628L124.193 173.832ZM123.475 172.801C123.661 172.967 123.839 173.123 124.011 173.27L124.106 172.899C123.896 172.871 123.686 172.838 123.475 172.801Z" fill="url(#paint0_linear)"></path><path d="M247.335 132.933C247.334 154.635 238.726 175.449 223.405 190.794C208.083 206.14 187.303 214.761 165.636 214.761C120.515 214.761 81.916 176.523 81.916 131.329C81.916 86.1342 120.515 51.0979 165.636 51.0979C176.365 51.0979 186.989 53.2146 196.901 57.3272C206.814 61.4399 215.82 67.4678 223.407 75.0669C230.993 82.666 237.011 91.6874 241.117 101.616C245.222 111.545 247.335 122.186 247.335 132.933Z" fill="#030323"></path><path d="M100.816 87.0679C100.783 87.0687 100.751 87.0602 100.724 87.0434C100.696 87.0267 100.673 87.0023 100.659 86.9733C100.644 86.9442 100.638 86.9115 100.642 86.8792C100.645 86.8468 100.657 86.8161 100.677 86.7906C115.74 66.784 140.005 54.8361 165.586 54.8361C176.396 54.8129 187.092 57.0581 196.983 61.4273C197.004 61.4364 197.022 61.4495 197.038 61.4658C197.053 61.4821 197.065 61.5012 197.073 61.5222C197.082 61.5432 197.085 61.5656 197.085 61.5881C197.084 61.6105 197.079 61.6327 197.07 61.6533C197.061 61.6739 197.048 61.6924 197.032 61.708C197.016 61.7235 196.997 61.7357 196.976 61.7438C196.955 61.7519 196.932 61.7558 196.91 61.7552C196.887 61.7547 196.865 61.7497 196.845 61.7406C186.997 57.3908 176.348 55.1554 165.585 55.1785C140.111 55.1785 115.948 67.0724 100.949 86.9944C100.934 87.0161 100.914 87.0341 100.891 87.0469C100.868 87.0596 100.842 87.0668 100.816 87.0679Z" fill="#DFAFA2"></path><path d="M236.219 132.932C236.219 151.718 228.768 169.735 215.505 183.019C202.243 196.303 184.255 203.766 165.499 203.766C126.442 203.766 93.0312 170.667 93.0312 131.546C93.0312 92.426 126.442 62.0977 165.499 62.0977C184.255 62.0977 202.243 69.5605 215.505 82.8445C228.768 96.1285 236.219 114.146 236.219 132.932Z" fill="url(#paint1_linear)"></path><path d="M236.219 132.932C236.219 114.145 228.769 96.1285 215.506 82.8445C202.244 69.5605 184.256 62.0976 165.5 62.0976C155.38 62.0747 145.362 64.1267 136.063 68.1273C126.764 72.1279 118.381 77.9924 111.43 85.3599L165.907 130.762L177.106 202.811C193.623 200.056 208.628 191.521 219.452 178.726C230.276 165.93 236.218 149.703 236.219 132.932Z" fill="url(#paint2_linear)"></path><path d="M226.594 128.006C226.594 163.312 197.426 191.933 161.446 191.933C125.466 191.933 94.6855 162.061 94.6855 126.755C94.6855 91.4493 125.462 64.0801 161.447 64.0801C197.433 64.0801 226.594 92.7012 226.594 128.006Z" fill="#441346"></path><path d="M111.105 129.258C111.043 130.335 110.663 131.369 110.014 132.229C109.364 133.09 108.475 133.738 107.458 134.093C106.441 134.447 105.342 134.491 104.299 134.22C103.257 133.948 102.319 133.373 101.603 132.568C100.887 131.762 100.425 130.762 100.277 129.694C100.128 128.625 100.299 127.537 100.768 126.566C101.237 125.595 101.983 124.785 102.911 124.239C103.84 123.693 104.909 123.434 105.984 123.497C106.698 123.538 107.397 123.72 108.041 124.032C108.684 124.344 109.261 124.78 109.736 125.315C110.212 125.85 110.577 126.474 110.812 127.15C111.047 127.827 111.147 128.543 111.105 129.258Z" fill="#DFAFA2"></path><path d="M228.732 136.116C228.67 137.192 228.29 138.227 227.641 139.087C226.992 139.948 226.102 140.596 225.085 140.951C224.068 141.305 222.969 141.349 221.927 141.078C220.885 140.806 219.946 140.232 219.23 139.426C218.514 138.621 218.052 137.62 217.904 136.552C217.755 135.484 217.926 134.395 218.395 133.424C218.864 132.453 219.61 131.644 220.538 131.097C221.467 130.551 222.536 130.292 223.611 130.355C224.325 130.396 225.024 130.578 225.668 130.89C226.311 131.202 226.887 131.638 227.363 132.173C227.839 132.708 228.204 133.331 228.439 134.008C228.674 134.684 228.774 135.401 228.732 136.116Z" fill="#DFAFA2"></path><path d="M154.876 185.055C155.935 185.248 156.914 185.752 157.687 186.503C158.46 187.254 158.994 188.217 159.221 189.272C159.448 190.326 159.357 191.424 158.961 192.427C158.564 193.43 157.88 194.293 156.994 194.906C156.108 195.519 155.06 195.856 153.983 195.873C152.907 195.89 151.849 195.586 150.944 195.001C150.04 194.416 149.329 193.575 148.901 192.585C148.473 191.595 148.348 190.501 148.542 189.439C148.801 188.017 149.614 186.755 150.802 185.933C151.99 185.111 153.456 184.795 154.876 185.055Z" fill="#DFAFA2"></path><path d="M176.048 68.9545C177.107 69.1482 178.085 69.6523 178.859 70.4029C179.632 71.1536 180.166 72.1171 180.393 73.1716C180.619 74.2261 180.529 75.3243 180.132 76.3272C179.736 77.3301 179.052 78.1928 178.166 78.8061C177.28 79.4194 176.232 79.7557 175.155 79.7727C174.079 79.7896 173.021 79.4863 172.116 78.9011C171.211 78.316 170.5 77.4753 170.073 76.4853C169.645 75.4953 169.52 74.4006 169.714 73.3394C169.842 72.6349 170.108 71.9626 170.496 71.361C170.883 70.7593 171.386 70.2401 171.974 69.8329C172.562 69.4257 173.225 69.1386 173.924 68.9878C174.623 68.8371 175.344 68.8258 176.048 68.9545Z" fill="#DFAFA2"></path><path d="M193.583 188.171C194.137 189.569 193.999 190.878 193.275 191.095C192.551 191.312 191.515 190.354 190.962 188.956C190.409 187.557 190.547 186.248 191.271 186.031C191.995 185.814 193.03 186.773 193.583 188.171Z" fill="#DFAFA2"></path><path d="M146.262 78.0514C146.815 79.4495 146.677 80.7589 145.953 80.9758C145.229 81.1928 144.194 80.2348 143.64 78.8367C143.086 77.4386 143.225 76.1286 143.949 75.9123C144.673 75.6961 145.708 76.6533 146.262 78.0514Z" fill="#DFAFA2"></path><path d="M218.293 167.236C219.491 168.144 220.051 169.335 219.545 169.896C219.039 170.457 217.658 170.177 216.46 169.272C215.262 168.367 214.702 167.174 215.208 166.612C215.714 166.051 217.095 166.326 218.293 167.236Z" fill="#DFAFA2"></path><path d="M120.765 97.7361C121.963 98.6435 122.524 99.8343 122.017 100.396C121.511 100.957 120.129 100.677 118.932 99.7719C117.735 98.8667 117.174 97.6738 117.68 97.1123C118.186 96.5509 119.567 96.8288 120.765 97.7361Z" fill="#DFAFA2"></path><path d="M221.391 104.885C222.747 104.239 224.061 104.289 224.326 104.998C224.591 105.708 223.703 106.806 222.35 107.453C220.997 108.1 219.68 108.049 219.416 107.34C219.151 106.631 220.039 105.532 221.391 104.885Z" fill="#DFAFA2"></path><path d="M114.872 159.554C116.228 158.907 117.541 158.958 117.806 159.667C118.07 160.376 117.183 161.475 115.83 162.122C114.477 162.768 113.161 162.717 112.896 162.009C112.632 161.3 113.516 160.2 114.872 159.554Z" fill="#DFAFA2"></path><path d="M198.886 81.596C199.709 80.338 200.858 79.6982 201.451 80.1667C202.044 80.6353 201.858 82.0348 201.036 83.2922C200.214 84.5495 199.064 85.1893 198.47 84.7215C197.876 84.2536 198.064 82.8534 198.886 81.596Z" fill="#DFAFA2"></path><path d="M136.187 183.716C137.01 182.458 138.159 181.818 138.753 182.287C139.346 182.757 139.16 184.154 138.337 185.412C137.515 186.67 136.365 187.309 135.771 186.842C135.178 186.374 135.363 184.975 136.187 183.716Z" fill="#DFAFA2"></path><path d="M206.188 54.4009V50.4929L210.193 46.7935C218.151 39.3954 221.897 35.3315 221.949 30.8509C221.949 27.8287 220.336 25.1719 215.915 25.1719C212.95 25.1719 210.401 26.683 208.684 27.9854L206.812 23.4521C209.789 21.1506 213.454 19.9209 217.215 19.9614C224.705 19.9614 228.346 24.7026 228.346 30.2257C228.346 36.1653 224.081 40.9585 218.203 46.4296L215.239 48.9825V49.0864H229.128V54.4009H206.188Z" fill="#DC7567"></path><path d="M248.165 54.3995V45.8044H232.871V41.6365L246.655 20.5354H254.198V40.9592H258.568V45.8044H254.198V54.3995H248.165ZM248.165 40.9572V31.7333C248.165 29.8057 248.218 27.8253 248.373 25.8457H248.165C247.127 27.982 246.24 29.701 245.2 31.5767L239.01 40.8504L238.958 40.9544L248.165 40.9572Z" fill="#DC7567"></path><path d="M260.131 56.4845L272.823 18.7075H277.297L264.604 56.4845H260.131Z" fill="#DC7567"></path><path d="M302.733 20.5347V24.6506L288.429 54.4009H281.667L295.919 25.9538V25.8491H280.002V20.5347H302.733Z" fill="#DC7567"></path><path d="M55.6415 30.0531C55.6415 30.0531 37.6342 25.1781 35.6875 45.4903C35.6875 45.4903 36.3366 60.9269 55.6415 58.3276C52.797 57.0306 50.4004 54.9177 48.7549 52.2562C47.1094 49.5947 46.289 46.5041 46.3974 43.3755C46.5565 32.1651 55.6415 30.0531 55.6415 30.0531Z" fill="#DC7567"></path><path d="M112.563 46.3172C117.624 41.2487 117.624 33.0311 112.563 27.9626C107.503 22.8941 99.2988 22.8941 94.2386 27.9626C89.1783 33.0311 89.1783 41.2487 94.2386 46.3172C99.2988 51.3857 107.503 51.3857 112.563 46.3172Z" fill="#DC7567"></path><path d="M196.167 144.447C195.639 144.342 195.091 144.403 194.598 144.621C194.106 144.84 193.692 145.204 193.414 145.666C193.016 146.325 192.591 146.974 192.141 147.612C189.146 151.858 185.193 155.336 180.604 157.765C176.014 160.193 170.917 161.503 165.728 161.589C160.538 161.674 155.401 160.532 150.735 158.256C146.068 155.979 142.003 152.633 138.87 148.488L123.715 154.934C128.043 161.749 133.98 167.393 141.002 171.366C148.023 175.34 155.913 177.521 163.975 177.718C172.037 177.914 180.024 176.12 187.23 172.494C194.436 168.868 200.64 163.52 205.295 156.924C206.752 154.859 208.05 152.687 209.179 150.425C209.359 150.064 209.454 149.666 209.456 149.262C209.457 148.858 209.366 148.459 209.189 148.096C209.012 147.733 208.753 147.416 208.434 147.17C208.114 146.923 207.742 146.754 207.347 146.675L196.167 144.447Z" fill="#DC7567"></path><path d="M145.32 154.828L126.301 163.103C125.688 163.37 125.016 163.476 124.35 163.41C123.685 163.343 123.047 163.108 122.497 162.725C121.948 162.343 121.506 161.826 121.212 161.224C120.918 160.622 120.782 159.955 120.818 159.286L122.064 136.099C122.103 135.37 122.344 134.667 122.76 134.067C123.176 133.468 123.751 132.996 124.419 132.706C125.088 132.415 125.824 132.316 126.545 132.42C127.266 132.525 127.944 132.828 128.503 133.297L146.275 148.208C146.787 148.638 147.182 149.193 147.421 149.819C147.66 150.445 147.735 151.121 147.639 151.785C147.543 152.448 147.28 153.076 146.874 153.608C146.468 154.141 145.933 154.561 145.32 154.828Z" fill="#DC7567"></path><path d="M135.272 110.618C135.801 110.797 136.374 110.802 136.907 110.633C137.44 110.464 137.905 110.129 138.234 109.677C143.397 102.678 151.11 98.0032 159.696 96.6699C168.281 95.3365 177.045 97.4523 184.082 102.557L196.107 91.4589C189.616 86.0834 181.856 82.4664 173.569 80.954C165.283 79.4417 156.748 80.0847 148.781 82.8215C138.171 86.4428 129.131 93.6176 123.187 103.137C122.978 103.473 122.848 103.852 122.807 104.246C122.766 104.64 122.815 105.039 122.949 105.411C123.084 105.783 123.301 106.12 123.584 106.397C123.868 106.673 124.21 106.881 124.586 107.006C127.637 108.027 131.208 109.233 135.272 110.618Z" fill="#DC7567"></path><path d="M177.63 98.7434L193.466 85.3357C193.977 84.9031 194.59 84.6086 195.246 84.48C195.903 84.3515 196.581 84.3931 197.217 84.601C197.853 84.8089 198.426 85.1762 198.88 85.668C199.334 86.1598 199.656 86.7598 199.814 87.411L205.281 109.977C205.453 110.686 205.424 111.43 205.198 112.124C204.972 112.818 204.558 113.435 204.001 113.907C203.444 114.378 202.767 114.685 202.046 114.793C201.325 114.9 200.589 114.805 199.919 114.517L178.615 105.359C178 105.094 177.463 104.677 177.054 104.146C176.646 103.615 176.38 102.989 176.281 102.326C176.183 101.663 176.255 100.986 176.491 100.359C176.727 99.7321 177.119 99.1759 177.63 98.7434Z" fill="#DC7567"></path><path d="M296.869 175.097C296.877 175.042 296.898 174.99 296.931 174.945C296.964 174.899 297.007 174.863 297.057 174.839C297.458 174.643 297.863 174.434 298.26 174.219C298.299 174.196 298.343 174.181 298.389 174.175C298.434 174.17 298.48 174.173 298.524 174.185C298.569 174.198 298.61 174.219 298.646 174.248C298.681 174.276 298.711 174.312 298.733 174.352C298.755 174.393 298.768 174.437 298.772 174.483C298.777 174.529 298.772 174.575 298.758 174.618C298.744 174.662 298.721 174.703 298.692 174.738C298.662 174.772 298.625 174.801 298.584 174.821C298.179 175.04 297.766 175.254 297.357 175.454C297.302 175.481 297.239 175.493 297.177 175.488C297.115 175.482 297.056 175.46 297.006 175.423C296.955 175.387 296.916 175.337 296.892 175.28C296.868 175.222 296.86 175.159 296.869 175.097Z" fill="#441346"></path><path d="M248.006 139.118C248.144 138.231 248.314 137.338 248.518 136.463C248.539 136.375 248.594 136.299 248.671 136.252C248.748 136.205 248.84 136.19 248.928 136.21C249.016 136.231 249.092 136.285 249.14 136.362C249.188 136.438 249.203 136.531 249.184 136.619C248.983 137.476 248.814 138.352 248.682 139.221C248.667 139.309 248.618 139.388 248.545 139.44C248.473 139.492 248.383 139.514 248.295 139.501C248.207 139.488 248.127 139.441 248.073 139.37C248.019 139.299 247.995 139.209 248.006 139.12V139.118ZM247.627 143.449C247.64 143.364 247.685 143.286 247.753 143.233C247.821 143.179 247.907 143.154 247.993 143.161C248.079 143.168 248.159 143.208 248.218 143.272C248.276 143.336 248.307 143.42 248.306 143.507C248.285 144.386 248.299 145.278 248.347 146.157C248.349 146.246 248.316 146.332 248.256 146.397C248.195 146.462 248.112 146.501 248.023 146.506C247.935 146.511 247.848 146.481 247.781 146.423C247.714 146.365 247.672 146.283 247.665 146.194C247.615 145.297 247.602 144.388 247.623 143.491C247.623 143.477 247.624 143.463 247.627 143.449ZM248.175 150.445C248.186 150.364 248.226 150.291 248.287 150.237C248.348 150.183 248.426 150.153 248.507 150.151C248.588 150.15 248.667 150.177 248.73 150.229C248.793 150.281 248.835 150.353 248.849 150.433C249.007 151.301 249.199 152.171 249.422 153.02C249.445 153.108 249.432 153.201 249.386 153.279C249.34 153.358 249.265 153.415 249.178 153.438C249.09 153.461 248.997 153.448 248.918 153.402C248.84 153.357 248.783 153.282 248.76 153.194C248.533 152.328 248.337 151.441 248.176 150.555C248.17 150.518 248.169 150.481 248.175 150.445ZM250.121 157.183C250.131 157.109 250.166 157.04 250.22 156.987C250.274 156.935 250.343 156.901 250.418 156.892C250.492 156.883 250.568 156.899 250.633 156.937C250.697 156.975 250.748 157.034 250.776 157.104C251.105 157.918 251.468 158.73 251.863 159.518C251.886 159.558 251.9 159.603 251.904 159.649C251.909 159.695 251.905 159.741 251.891 159.786C251.878 159.83 251.855 159.871 251.825 159.906C251.795 159.941 251.759 159.97 251.717 159.991C251.676 160.012 251.631 160.024 251.585 160.026C251.539 160.029 251.492 160.022 251.449 160.007C251.406 159.991 251.366 159.967 251.332 159.935C251.298 159.904 251.271 159.866 251.252 159.824C250.851 159.02 250.478 158.191 250.145 157.36C250.121 157.305 250.112 157.244 250.12 157.183H250.121ZM253.401 163.378C253.411 163.309 253.442 163.245 253.489 163.195C253.536 163.144 253.597 163.109 253.665 163.094C253.732 163.079 253.803 163.085 253.867 163.111C253.931 163.137 253.985 163.181 254.024 163.239C254.512 163.968 255.036 164.688 255.581 165.38C255.609 165.415 255.63 165.456 255.642 165.499C255.654 165.542 255.658 165.587 255.653 165.632C255.648 165.677 255.634 165.72 255.612 165.759C255.59 165.799 255.561 165.833 255.525 165.861C255.49 165.889 255.45 165.91 255.407 165.922C255.363 165.934 255.318 165.938 255.274 165.933C255.229 165.927 255.186 165.913 255.147 165.892C255.107 165.87 255.073 165.84 255.045 165.805C254.491 165.099 253.954 164.365 253.453 163.621C253.405 163.549 253.386 163.46 253.401 163.375V163.378ZM257.877 168.771C257.887 168.699 257.92 168.633 257.971 168.581C258.002 168.549 258.04 168.523 258.081 168.505C258.123 168.487 258.167 168.478 258.212 168.477C258.257 168.477 258.302 168.485 258.344 168.502C258.385 168.519 258.423 168.544 258.455 168.575C259.083 169.192 259.743 169.79 260.416 170.355C260.485 170.413 260.529 170.497 260.537 170.587C260.545 170.678 260.516 170.768 260.458 170.837C260.4 170.907 260.316 170.95 260.226 170.958C260.136 170.966 260.046 170.938 259.977 170.88C259.29 170.303 258.617 169.693 257.977 169.064C257.938 169.027 257.909 168.98 257.891 168.929C257.874 168.878 257.869 168.824 257.877 168.77V168.771ZM263.354 173.144C263.36 173.095 263.378 173.047 263.405 173.005C263.429 172.968 263.461 172.935 263.497 172.909C263.534 172.883 263.576 172.865 263.62 172.856C263.664 172.846 263.709 172.845 263.753 172.853C263.797 172.861 263.84 172.878 263.877 172.902C264.617 173.378 265.384 173.831 266.156 174.247C266.197 174.268 266.232 174.297 266.261 174.331C266.29 174.366 266.312 174.406 266.326 174.45C266.339 174.493 266.344 174.539 266.339 174.584C266.335 174.629 266.321 174.673 266.3 174.713C266.279 174.753 266.249 174.788 266.214 174.817C266.179 174.845 266.138 174.867 266.095 174.88C266.051 174.892 266.006 174.896 265.961 174.891C265.916 174.886 265.872 174.872 265.832 174.85C265.044 174.426 264.262 173.964 263.507 173.478C263.452 173.443 263.409 173.393 263.382 173.334C263.354 173.274 263.345 173.209 263.354 173.144ZM269.602 176.315C269.606 176.29 269.612 176.265 269.621 176.241C269.654 176.156 269.719 176.088 269.801 176.051C269.884 176.014 269.978 176.012 270.063 176.044C270.884 176.36 271.724 176.646 272.568 176.896C272.612 176.908 272.654 176.928 272.69 176.956C272.726 176.984 272.757 177.019 272.779 177.059C272.802 177.099 272.816 177.143 272.821 177.189C272.826 177.234 272.822 177.28 272.809 177.324C272.796 177.368 272.774 177.409 272.745 177.445C272.716 177.48 272.68 177.509 272.64 177.531C272.599 177.552 272.555 177.565 272.509 177.569C272.464 177.572 272.418 177.567 272.374 177.553C271.515 177.297 270.655 177.006 269.818 176.683C269.746 176.656 269.685 176.604 269.646 176.537C269.606 176.47 269.591 176.392 269.602 176.315ZM276.367 178.142V178.136C276.381 178.047 276.43 177.966 276.504 177.913C276.577 177.86 276.669 177.838 276.758 177.853C276.943 177.882 277.128 177.911 277.315 177.938C278.002 178.037 278.699 178.116 279.387 178.171C279.477 178.179 279.561 178.222 279.62 178.291C279.678 178.36 279.707 178.45 279.7 178.541C279.692 178.631 279.649 178.715 279.58 178.774C279.511 178.833 279.422 178.862 279.331 178.854C278.63 178.797 277.918 178.716 277.218 178.616C277.028 178.589 276.838 178.559 276.65 178.528C276.561 178.514 276.481 178.465 276.429 178.392C276.376 178.319 276.354 178.228 276.367 178.139L276.367 178.142ZM283.362 178.54C283.374 178.462 283.413 178.39 283.472 178.336C283.531 178.283 283.606 178.251 283.686 178.247C284.56 178.207 285.447 178.131 286.323 178.023C286.413 178.012 286.504 178.037 286.575 178.093C286.647 178.149 286.693 178.231 286.704 178.321C286.715 178.411 286.69 178.502 286.634 178.574C286.579 178.646 286.497 178.692 286.407 178.703C285.514 178.813 284.607 178.891 283.717 178.932C283.672 178.934 283.628 178.927 283.585 178.912C283.543 178.897 283.504 178.873 283.471 178.843C283.438 178.813 283.411 178.776 283.392 178.735C283.373 178.695 283.362 178.65 283.36 178.605C283.359 178.584 283.36 178.562 283.362 178.54ZM290.292 177.512C290.302 177.445 290.332 177.383 290.377 177.332C290.422 177.282 290.481 177.246 290.547 177.229C291.401 177.012 292.254 176.759 293.084 176.477C293.126 176.463 293.171 176.457 293.216 176.46C293.261 176.463 293.305 176.475 293.345 176.495C293.385 176.515 293.421 176.542 293.451 176.576C293.48 176.61 293.503 176.649 293.517 176.692C293.532 176.735 293.538 176.78 293.535 176.825C293.532 176.869 293.52 176.913 293.5 176.954C293.48 176.994 293.453 177.03 293.419 177.059C293.385 177.089 293.346 177.112 293.303 177.126C292.457 177.414 291.586 177.672 290.716 177.893C290.628 177.914 290.536 177.9 290.458 177.854C290.38 177.808 290.324 177.733 290.301 177.645C290.29 177.603 290.288 177.559 290.294 177.515L290.292 177.512Z" fill="#441346"></path><path d="M249.777 132.312C249.781 132.289 249.787 132.265 249.795 132.243C249.958 131.808 250.13 131.376 250.305 130.959C250.34 130.875 250.407 130.809 250.491 130.774C250.575 130.74 250.669 130.741 250.753 130.776C250.836 130.811 250.903 130.878 250.937 130.963C250.971 131.047 250.97 131.141 250.935 131.225C250.763 131.633 250.595 132.057 250.435 132.484C250.405 132.562 250.347 132.627 250.273 132.666C250.198 132.705 250.112 132.714 250.03 132.694C249.949 132.673 249.878 132.622 249.831 132.552C249.785 132.483 249.765 132.398 249.777 132.314V132.312Z" fill="#441346"></path><path d="M268.187 112.871C268.195 112.813 268.218 112.758 268.254 112.712C268.289 112.665 268.336 112.629 268.39 112.605C268.805 112.423 269.238 112.246 269.666 112.081C269.75 112.048 269.845 112.05 269.928 112.086C270.01 112.123 270.076 112.191 270.108 112.276C270.141 112.36 270.139 112.455 270.103 112.538C270.066 112.621 269.998 112.686 269.914 112.719C269.493 112.882 269.072 113.055 268.662 113.233C268.606 113.258 268.545 113.267 268.484 113.259C268.424 113.252 268.367 113.229 268.318 113.192C268.27 113.155 268.232 113.105 268.209 113.049C268.186 112.993 268.178 112.931 268.187 112.871Z" fill="#441346"></path><path d="M273.523 111.059C273.533 110.992 273.562 110.929 273.608 110.879C273.653 110.828 273.713 110.792 273.779 110.776C274.633 110.563 275.509 110.379 276.378 110.232C276.423 110.224 276.469 110.224 276.513 110.234C276.557 110.243 276.599 110.262 276.636 110.288C276.673 110.314 276.705 110.347 276.729 110.385C276.754 110.424 276.77 110.467 276.778 110.511C276.785 110.556 276.784 110.602 276.773 110.646C276.763 110.69 276.744 110.732 276.718 110.769C276.691 110.806 276.658 110.837 276.619 110.861C276.58 110.884 276.537 110.9 276.492 110.907C275.638 111.052 274.781 111.231 273.944 111.44C273.901 111.451 273.855 111.453 273.811 111.447C273.766 111.44 273.723 111.425 273.685 111.402C273.646 111.378 273.613 111.348 273.586 111.312C273.559 111.275 273.54 111.234 273.529 111.19C273.519 111.148 273.517 111.103 273.523 111.059ZM280.345 110.065C280.357 109.987 280.396 109.915 280.455 109.862C280.514 109.809 280.589 109.777 280.668 109.773C281.55 109.733 282.443 109.728 283.325 109.756C283.413 109.762 283.496 109.802 283.556 109.868C283.616 109.934 283.648 110.02 283.645 110.109C283.642 110.198 283.604 110.282 283.541 110.344C283.477 110.406 283.391 110.441 283.303 110.441C282.439 110.413 281.564 110.418 280.699 110.457C280.609 110.461 280.52 110.429 280.454 110.368C280.387 110.307 280.347 110.221 280.343 110.131C280.341 110.108 280.342 110.085 280.345 110.063V110.065ZM287.228 110.455V110.45C287.244 110.361 287.293 110.281 287.367 110.228C287.44 110.175 287.531 110.153 287.62 110.166C288.49 110.305 289.367 110.48 290.225 110.686C290.31 110.71 290.382 110.766 290.427 110.842C290.471 110.919 290.485 111.009 290.464 111.095C290.444 111.181 290.391 111.256 290.316 111.303C290.242 111.351 290.152 111.368 290.066 111.351C289.224 111.149 288.365 110.978 287.512 110.842C287.424 110.827 287.344 110.779 287.291 110.707C287.238 110.634 287.216 110.544 287.228 110.455ZM293.891 112.227C293.899 112.177 293.918 112.129 293.946 112.087C293.975 112.045 294.013 112.009 294.056 111.983C294.1 111.957 294.149 111.941 294.2 111.937C294.251 111.932 294.302 111.938 294.35 111.956C295.175 112.268 295.999 112.616 296.797 112.99C296.879 113.028 296.943 113.098 296.974 113.183C297.005 113.269 297 113.363 296.962 113.445C296.943 113.486 296.916 113.523 296.883 113.553C296.85 113.583 296.811 113.607 296.769 113.622C296.683 113.653 296.589 113.649 296.507 113.61C295.725 113.243 294.916 112.902 294.109 112.596C294.036 112.569 293.975 112.517 293.935 112.45C293.895 112.383 293.88 112.305 293.891 112.227ZM300.061 115.303C300.068 115.256 300.085 115.21 300.111 115.17C300.135 115.132 300.166 115.099 300.202 115.073C300.239 115.047 300.281 115.028 300.324 115.019C300.368 115.009 300.414 115.007 300.458 115.015C300.502 115.023 300.545 115.039 300.583 115.063C301.329 115.535 302.066 116.04 302.774 116.566C302.811 116.592 302.842 116.626 302.866 116.665C302.89 116.703 302.906 116.746 302.913 116.791C302.92 116.836 302.918 116.882 302.907 116.927C302.896 116.971 302.877 117.012 302.85 117.049C302.822 117.085 302.788 117.116 302.749 117.139C302.71 117.163 302.667 117.178 302.622 117.184C302.577 117.19 302.531 117.187 302.487 117.176C302.443 117.164 302.402 117.143 302.366 117.116C301.674 116.6 300.95 116.104 300.221 115.643C300.164 115.607 300.119 115.556 300.091 115.496C300.063 115.436 300.053 115.369 300.061 115.303ZM305.495 119.549C305.504 119.487 305.53 119.429 305.57 119.38C305.61 119.332 305.662 119.295 305.721 119.275C305.781 119.254 305.845 119.251 305.906 119.264C305.967 119.278 306.024 119.308 306.069 119.351C306.707 119.962 307.328 120.605 307.917 121.261C307.947 121.295 307.971 121.334 307.986 121.377C308.002 121.419 308.009 121.464 308.006 121.51C308.004 121.555 307.993 121.599 307.974 121.64C307.954 121.681 307.927 121.718 307.893 121.748C307.859 121.778 307.82 121.802 307.777 121.817C307.734 121.831 307.689 121.838 307.644 121.835C307.599 121.832 307.555 121.82 307.514 121.8C307.473 121.78 307.437 121.752 307.407 121.718C306.831 121.075 306.222 120.445 305.597 119.847C305.558 119.809 305.528 119.762 305.51 119.71C305.492 119.659 305.487 119.603 305.495 119.549H305.495ZM309.971 124.796C309.98 124.727 310.01 124.662 310.057 124.611C310.103 124.559 310.165 124.523 310.232 124.507C310.3 124.491 310.371 124.496 310.435 124.522C310.5 124.547 310.555 124.592 310.594 124.649C311.097 125.376 311.578 126.13 312.022 126.892C312.045 126.931 312.059 126.974 312.066 127.018C312.072 127.063 312.069 127.108 312.058 127.152C312.046 127.195 312.027 127.236 312 127.272C311.972 127.308 311.938 127.338 311.9 127.361C311.861 127.384 311.818 127.398 311.774 127.405C311.729 127.411 311.684 127.408 311.64 127.397C311.597 127.385 311.556 127.366 311.52 127.338C311.484 127.311 311.454 127.277 311.432 127.238C310.996 126.492 310.526 125.753 310.032 125.04C309.981 124.97 309.959 124.883 309.971 124.796V124.796ZM313.304 130.838C313.315 130.764 313.349 130.696 313.402 130.643C313.455 130.591 313.524 130.557 313.598 130.547C313.672 130.538 313.747 130.552 313.812 130.589C313.876 130.626 313.927 130.683 313.957 130.752C314.303 131.564 314.62 132.4 314.903 133.237C314.93 133.323 314.923 133.416 314.883 133.496C314.842 133.576 314.772 133.638 314.687 133.666C314.602 133.695 314.509 133.689 314.428 133.65C314.347 133.611 314.285 133.541 314.255 133.456C313.978 132.635 313.666 131.816 313.328 131.02C313.303 130.963 313.295 130.9 313.304 130.838ZM315.353 137.428C315.364 137.348 315.403 137.275 315.463 137.221C315.524 137.167 315.601 137.137 315.681 137.134C315.762 137.132 315.84 137.158 315.903 137.208C315.967 137.259 316.01 137.329 316.026 137.408C316.164 138.102 316.289 138.81 316.388 139.512C316.412 139.686 316.435 139.859 316.457 140.033C316.464 140.078 316.462 140.124 316.45 140.168C316.439 140.213 316.419 140.254 316.392 140.291C316.364 140.327 316.33 140.358 316.29 140.38C316.251 140.403 316.207 140.418 316.162 140.424C316.116 140.429 316.07 140.426 316.027 140.413C315.983 140.401 315.942 140.38 315.906 140.352C315.87 140.323 315.841 140.288 315.819 140.248C315.797 140.208 315.783 140.163 315.779 140.118C315.758 139.948 315.735 139.779 315.71 139.609C315.612 138.92 315.493 138.226 315.354 137.546C315.347 137.507 315.346 137.467 315.353 137.428ZM316.052 144.296C316.064 144.211 316.108 144.133 316.175 144.078C316.243 144.024 316.328 143.997 316.414 144.003C316.5 144.01 316.581 144.048 316.64 144.111C316.699 144.175 316.732 144.258 316.732 144.345C316.732 145.229 316.7 146.123 316.634 147.004C316.631 147.049 316.619 147.094 316.599 147.134C316.579 147.175 316.551 147.212 316.517 147.242C316.483 147.271 316.443 147.294 316.4 147.309C316.357 147.323 316.312 147.329 316.266 147.325C316.221 147.322 316.177 147.309 316.137 147.289C316.096 147.268 316.06 147.239 316.031 147.205C316.002 147.17 315.98 147.129 315.966 147.086C315.952 147.043 315.948 146.997 315.952 146.952C316.017 146.089 316.049 145.212 316.048 144.346C316.048 144.33 316.049 144.313 316.052 144.296ZM314.737 153.723C314.739 153.708 314.742 153.693 314.746 153.677C314.984 152.846 315.193 151.992 315.369 151.145C315.377 151.099 315.394 151.056 315.419 151.018C315.443 150.979 315.476 150.946 315.514 150.92C315.552 150.894 315.594 150.876 315.639 150.867C315.684 150.858 315.73 150.858 315.775 150.868C315.82 150.877 315.863 150.895 315.9 150.921C315.938 150.947 315.97 150.981 315.995 151.02C316.019 151.058 316.036 151.102 316.043 151.147C316.051 151.192 316.049 151.239 316.038 151.283C315.862 152.148 315.649 153.016 315.407 153.867C315.383 153.951 315.328 154.022 315.254 154.067C315.18 154.112 315.091 154.126 315.006 154.108C314.922 154.09 314.847 154.04 314.797 153.969C314.748 153.898 314.727 153.811 314.739 153.725L314.737 153.723Z" fill="#441346"></path><path d="M312.737 159.018C312.742 158.984 312.752 158.951 312.766 158.919C312.96 158.512 313.148 158.096 313.324 157.685C313.361 157.603 313.429 157.539 313.512 157.506C313.595 157.474 313.688 157.476 313.771 157.511C313.853 157.546 313.918 157.612 313.952 157.695C313.986 157.778 313.986 157.871 313.953 157.954C313.772 158.374 313.581 158.798 313.384 159.214C313.349 159.288 313.289 159.348 313.214 159.381C313.139 159.415 313.054 159.42 312.976 159.396C312.897 159.373 312.83 159.321 312.786 159.252C312.742 159.183 312.724 159.1 312.736 159.018L312.737 159.018Z" fill="#441346"></path><path d="M304.299 158.561C304.353 158.495 304.384 158.413 304.389 158.327C304.394 158.242 304.372 158.157 304.326 158.084L301.664 153.848C302.688 151.711 303.357 149.42 303.644 147.067L308.163 144.935C308.24 144.898 308.303 144.838 308.345 144.763C308.387 144.689 308.404 144.604 308.396 144.519L307.747 138.549C307.737 138.464 307.702 138.384 307.645 138.32C307.588 138.257 307.513 138.212 307.43 138.193L302.559 137.084C301.772 134.848 300.627 132.756 299.168 130.889L300.858 126.175C300.887 126.094 300.89 126.007 300.867 125.925C300.844 125.842 300.796 125.769 300.729 125.715L296.056 121.954C295.99 121.9 295.908 121.869 295.823 121.864C295.737 121.859 295.653 121.88 295.58 121.926L291.351 124.593C289.217 123.567 286.93 122.897 284.581 122.609L282.452 118.083C282.415 118.006 282.356 117.942 282.281 117.9C282.207 117.859 282.121 117.841 282.037 117.85L276.077 118.5C275.992 118.51 275.912 118.545 275.849 118.602C275.785 118.659 275.74 118.734 275.72 118.817L274.613 123.696C272.381 124.484 270.292 125.631 268.428 127.092L263.722 125.399C263.641 125.371 263.554 125.368 263.472 125.391C263.389 125.415 263.316 125.463 263.262 125.529L259.507 130.209C259.453 130.276 259.422 130.358 259.417 130.443C259.412 130.529 259.434 130.614 259.48 130.686L262.142 134.923C261.118 137.06 260.449 139.351 260.161 141.704L255.643 143.837C255.566 143.873 255.502 143.933 255.46 144.007C255.419 144.082 255.401 144.168 255.411 144.253L256.059 150.222C256.068 150.307 256.104 150.387 256.161 150.451C256.217 150.515 256.293 150.559 256.376 150.578L261.247 151.687C262.033 153.923 263.179 156.016 264.638 157.882L262.948 162.596C262.919 162.676 262.916 162.764 262.939 162.846C262.962 162.928 263.01 163.002 263.077 163.055L267.75 166.817C267.816 166.87 267.898 166.902 267.983 166.907C268.069 166.911 268.153 166.89 268.226 166.844L272.455 164.177C274.589 165.203 276.876 165.873 279.225 166.161L281.355 170.686C281.391 170.763 281.451 170.827 281.525 170.869C281.6 170.911 281.685 170.929 281.77 170.92L287.73 170.269C287.815 170.26 287.895 170.225 287.958 170.168C288.022 170.111 288.067 170.035 288.086 169.952L289.193 165.074C291.425 164.285 293.514 163.138 295.378 161.677L300.083 163.37C300.164 163.399 300.251 163.402 300.334 163.379C300.416 163.355 300.489 163.307 300.543 163.24L304.299 158.561Z" fill="#441346"></path><path d="M276.125 143.559C276.206 143.003 276.366 142.462 276.6 141.951C277.215 140.617 278.31 139.566 279.667 139.009C281.024 138.451 282.541 138.429 283.914 138.946C285.286 139.463 286.412 140.482 287.065 141.797C287.719 143.112 287.851 144.626 287.435 146.035C287.019 147.443 286.086 148.642 284.824 149.39C283.562 150.137 282.064 150.379 280.631 150.065C279.198 149.752 277.937 148.906 277.101 147.699C276.265 146.492 275.917 145.013 276.125 143.559ZM286.669 145.068C286.844 143.86 286.555 142.629 285.861 141.625C285.167 140.621 284.119 139.918 282.927 139.656C281.736 139.395 280.49 139.596 279.441 140.217C278.391 140.839 277.615 141.836 277.27 143.007C276.924 144.178 277.034 145.437 277.578 146.53C278.122 147.624 279.059 148.47 280.201 148.899C281.342 149.328 282.604 149.308 283.731 148.844C284.859 148.379 285.769 147.503 286.278 146.394C286.472 145.973 286.603 145.527 286.669 145.068Z" fill="#DFAFA2"></path><path d="M266.973 142.174C267.494 138.559 269.314 135.258 272.091 132.89C274.868 130.523 278.413 129.252 282.059 129.315C285.706 129.379 289.204 130.772 291.897 133.235C294.591 135.698 296.295 139.06 296.69 142.692C296.794 143.649 296.806 144.615 296.727 145.575C296.719 145.679 296.709 145.782 296.698 145.886L295.678 145.78C295.78 144.79 295.778 143.792 295.67 142.803C295.657 142.682 295.642 142.561 295.626 142.441C295.625 142.439 295.625 142.438 295.626 142.437C295.196 139.198 293.639 136.216 291.228 134.015C291.006 133.812 290.775 133.615 290.536 133.424C288.6 131.857 286.279 130.842 283.815 130.484C281.54 130.151 279.219 130.386 277.056 131.169C274.894 131.951 272.958 133.257 271.421 134.969C269.884 136.681 268.793 138.748 268.245 140.984C267.697 143.221 267.709 145.558 268.281 147.789C268.852 150.019 269.965 152.074 271.52 153.77C273.075 155.466 275.024 156.751 277.195 157.511C279.365 158.27 281.689 158.481 283.96 158.125C286.232 157.768 288.38 156.854 290.214 155.466L290.837 156.284C288.468 158.078 285.621 159.125 282.657 159.295C279.692 159.464 276.745 158.748 274.188 157.236C271.631 155.725 269.58 153.486 268.295 150.805C267.011 148.124 266.55 145.121 266.973 142.177L266.973 142.174Z" fill="#DFAFA2"></path><path d="M251.795 197.801C251.803 197.744 251.826 197.69 251.861 197.644C251.896 197.598 251.942 197.561 251.995 197.537C252.401 197.357 252.806 197.158 253.198 196.947C253.277 196.907 253.369 196.9 253.454 196.927C253.538 196.953 253.609 197.012 253.651 197.09C253.694 197.169 253.704 197.26 253.68 197.346C253.656 197.431 253.599 197.504 253.522 197.549C253.115 197.769 252.692 197.975 252.271 198.163C252.215 198.188 252.154 198.197 252.093 198.19C252.033 198.183 251.975 198.16 251.926 198.123C251.878 198.086 251.84 198.037 251.817 197.98C251.793 197.924 251.786 197.862 251.795 197.801Z" fill="#441346"></path><path d="M227.135 180.567C227.148 180.48 227.193 180.401 227.263 180.347C227.332 180.292 227.42 180.267 227.508 180.276C227.595 180.285 227.676 180.327 227.733 180.395C227.79 180.462 227.82 180.548 227.814 180.637C227.758 181.535 227.771 182.437 227.855 183.333C227.863 183.423 227.835 183.514 227.777 183.584C227.719 183.654 227.636 183.697 227.545 183.706C227.455 183.714 227.365 183.686 227.295 183.628C227.225 183.57 227.181 183.487 227.173 183.396C227.086 182.464 227.073 181.527 227.131 180.593C227.131 180.586 227.131 180.576 227.135 180.567ZM228.138 187.673C228.149 187.597 228.184 187.527 228.239 187.474C228.294 187.42 228.365 187.387 228.441 187.379C228.517 187.371 228.594 187.389 228.658 187.43C228.723 187.47 228.773 187.531 228.798 187.603C229.103 188.45 229.473 189.272 229.906 190.061C229.929 190.1 229.943 190.144 229.949 190.189C229.955 190.234 229.952 190.28 229.939 190.324C229.927 190.368 229.906 190.409 229.878 190.445C229.85 190.481 229.814 190.511 229.774 190.533C229.734 190.555 229.69 190.568 229.645 190.573C229.6 190.578 229.554 190.573 229.51 190.56C229.467 190.547 229.426 190.525 229.391 190.496C229.356 190.466 229.327 190.43 229.306 190.39C228.857 189.57 228.472 188.716 228.156 187.835C228.137 187.783 228.131 187.728 228.138 187.673V187.673ZM231.891 193.784C231.902 193.707 231.938 193.636 231.995 193.583C232.028 193.552 232.066 193.528 232.108 193.512C232.15 193.496 232.195 193.488 232.24 193.489C232.285 193.491 232.329 193.501 232.37 193.519C232.412 193.538 232.449 193.564 232.479 193.597C233.097 194.251 233.764 194.856 234.474 195.407C234.538 195.465 234.578 195.544 234.586 195.63C234.594 195.716 234.569 195.801 234.516 195.87C234.464 195.938 234.388 195.984 234.303 195.999C234.218 196.013 234.131 195.995 234.059 195.948C233.32 195.376 232.625 194.747 231.983 194.067C231.947 194.03 231.92 193.984 231.904 193.935C231.888 193.885 231.883 193.832 231.891 193.781V193.784ZM237.766 197.891C237.771 197.862 237.779 197.833 237.791 197.805C237.808 197.764 237.834 197.727 237.866 197.695C237.898 197.664 237.936 197.639 237.978 197.622C238.019 197.606 238.064 197.597 238.109 197.598C238.154 197.599 238.198 197.608 238.239 197.626C239.065 197.98 239.918 198.27 240.789 198.491C240.832 198.502 240.873 198.521 240.909 198.548C240.945 198.575 240.975 198.609 240.998 198.648C241.021 198.686 241.036 198.729 241.043 198.774C241.049 198.818 241.047 198.864 241.036 198.907C241.025 198.951 241.005 198.992 240.979 199.028C240.952 199.064 240.918 199.094 240.879 199.117C240.841 199.14 240.798 199.155 240.754 199.162C240.709 199.168 240.664 199.166 240.62 199.155C239.715 198.924 238.829 198.623 237.97 198.254C237.901 198.224 237.844 198.173 237.807 198.107C237.77 198.042 237.756 197.966 237.766 197.892V197.891ZM244.789 199.307C244.801 199.226 244.841 199.152 244.903 199.098C244.965 199.045 245.043 199.015 245.125 199.014C245.894 199.008 246.663 198.951 247.424 198.843C247.553 198.824 247.681 198.805 247.809 198.784C247.898 198.769 247.99 198.791 248.063 198.844C248.137 198.897 248.187 198.977 248.201 199.067C248.216 199.156 248.194 199.248 248.142 199.322C248.089 199.396 248.009 199.445 247.919 199.46C247.787 199.482 247.654 199.502 247.52 199.521C246.728 199.633 245.93 199.692 245.13 199.699C245.085 199.7 245.041 199.691 244.999 199.675C244.957 199.658 244.919 199.633 244.887 199.601C244.855 199.57 244.829 199.532 244.811 199.491C244.794 199.449 244.785 199.405 244.784 199.359C244.784 199.342 244.786 199.324 244.789 199.307V199.307Z" fill="#441346"></path><path d="M227.987 176.17C227.989 176.15 227.994 176.131 228.001 176.112C228.146 175.671 228.311 175.232 228.491 174.806C228.526 174.722 228.593 174.656 228.677 174.621C228.761 174.587 228.855 174.588 228.938 174.623C229.022 174.658 229.088 174.725 229.122 174.809C229.157 174.893 229.156 174.987 229.121 175.071C228.948 175.482 228.79 175.903 228.65 176.327C228.622 176.408 228.566 176.475 228.492 176.516C228.417 176.557 228.33 176.569 228.248 176.55C228.165 176.53 228.093 176.48 228.045 176.41C227.996 176.34 227.976 176.255 227.987 176.17H227.987Z" fill="#441346"></path><path d="M237.665 165.556C237.674 165.498 237.697 165.444 237.732 165.397C237.767 165.351 237.814 165.314 237.867 165.291C238.291 165.107 238.728 164.937 239.167 164.786C239.21 164.769 239.255 164.762 239.301 164.764C239.347 164.766 239.392 164.777 239.433 164.796C239.474 164.816 239.511 164.844 239.542 164.878C239.572 164.912 239.596 164.952 239.61 164.995C239.625 165.038 239.631 165.084 239.628 165.13C239.625 165.175 239.613 165.22 239.592 165.261C239.572 165.301 239.543 165.338 239.508 165.367C239.473 165.397 239.433 165.419 239.389 165.433C238.968 165.578 238.547 165.742 238.14 165.918C238.099 165.936 238.055 165.946 238.01 165.946C237.965 165.947 237.92 165.939 237.879 165.922C237.837 165.906 237.799 165.881 237.767 165.85C237.734 165.819 237.709 165.781 237.691 165.74C237.665 165.682 237.657 165.619 237.665 165.556Z" fill="#441346"></path><path d="M243.228 164.158C243.239 164.081 243.276 164.011 243.332 163.958C243.389 163.905 243.461 163.873 243.538 163.866C244.454 163.79 245.374 163.784 246.29 163.848C246.335 163.851 246.379 163.863 246.419 163.883C246.459 163.903 246.495 163.931 246.525 163.965C246.554 163.999 246.577 164.039 246.591 164.081C246.605 164.124 246.611 164.169 246.608 164.214C246.605 164.259 246.593 164.303 246.573 164.343C246.553 164.383 246.525 164.419 246.491 164.448C246.457 164.478 246.418 164.501 246.375 164.515C246.332 164.529 246.287 164.535 246.243 164.532C245.361 164.47 244.476 164.475 243.595 164.549C243.544 164.553 243.492 164.546 243.444 164.527C243.396 164.509 243.353 164.48 243.318 164.442C243.282 164.405 243.256 164.36 243.241 164.311C243.225 164.262 243.221 164.21 243.228 164.159V164.158ZM250.225 164.997C250.228 164.976 250.233 164.957 250.239 164.937C250.268 164.851 250.33 164.78 250.411 164.739C250.492 164.699 250.586 164.692 250.672 164.721C251.543 165.012 252.391 165.371 253.208 165.793C253.248 165.813 253.284 165.841 253.313 165.875C253.343 165.91 253.365 165.95 253.379 165.993C253.392 166.036 253.398 166.081 253.394 166.126C253.39 166.171 253.378 166.215 253.357 166.255C253.336 166.295 253.308 166.331 253.274 166.36C253.239 166.389 253.199 166.411 253.156 166.425C253.113 166.438 253.068 166.443 253.023 166.439C252.978 166.435 252.934 166.422 252.894 166.401C252.109 165.995 251.293 165.651 250.454 165.37C250.379 165.344 250.315 165.292 250.273 165.224C250.231 165.156 250.214 165.075 250.225 164.996V164.997ZM256.328 168.526C256.337 168.46 256.366 168.398 256.41 168.348C256.44 168.314 256.476 168.286 256.516 168.267C256.557 168.247 256.601 168.235 256.646 168.232C256.691 168.229 256.736 168.236 256.779 168.25C256.821 168.265 256.861 168.288 256.894 168.318C257.582 168.928 258.223 169.59 258.81 170.297C258.841 170.332 258.865 170.372 258.88 170.415C258.895 170.459 258.901 170.505 258.898 170.552C258.895 170.598 258.882 170.643 258.861 170.684C258.84 170.725 258.811 170.761 258.775 170.791C258.74 170.82 258.699 170.843 258.655 170.856C258.61 170.869 258.564 170.873 258.518 170.868C258.472 170.863 258.428 170.848 258.388 170.825C258.348 170.802 258.313 170.772 258.285 170.735C257.72 170.054 257.103 169.417 256.442 168.831C256.399 168.793 256.366 168.746 256.346 168.692C256.327 168.639 256.321 168.581 256.329 168.525L256.328 168.526ZM260.563 174.168C260.573 174.095 260.607 174.027 260.659 173.975C260.71 173.923 260.778 173.888 260.85 173.877C260.923 173.866 260.997 173.879 261.062 173.914C261.127 173.949 261.179 174.004 261.211 174.07C261.603 174.902 261.931 175.764 262.191 176.647C262.214 176.733 262.202 176.824 262.158 176.902C262.115 176.979 262.043 177.037 261.957 177.062C261.872 177.087 261.781 177.078 261.702 177.037C261.623 176.996 261.564 176.925 261.536 176.841C261.286 175.992 260.97 175.164 260.593 174.364C260.564 174.303 260.553 174.234 260.563 174.167V174.168ZM262.237 181.023C262.25 180.939 262.294 180.863 262.36 180.809C262.425 180.755 262.509 180.728 262.594 180.732C262.678 180.737 262.759 180.773 262.818 180.833C262.878 180.894 262.913 180.974 262.917 181.059C262.954 181.979 262.919 182.901 262.815 183.815C262.804 183.906 262.759 183.988 262.688 184.044C262.616 184.101 262.526 184.127 262.436 184.116C262.346 184.106 262.263 184.06 262.207 183.989C262.151 183.918 262.125 183.827 262.135 183.737C262.236 182.857 262.269 181.972 262.234 181.087C262.233 181.065 262.235 181.044 262.238 181.022L262.237 181.023Z" fill="#441346"></path><path d="M260.55 189.261C260.555 189.226 260.565 189.193 260.58 189.162C260.772 188.757 260.949 188.343 261.108 187.928C261.124 187.886 261.149 187.848 261.179 187.815C261.21 187.783 261.247 187.756 261.288 187.738C261.329 187.72 261.374 187.71 261.419 187.709C261.463 187.707 261.508 187.715 261.55 187.731C261.592 187.747 261.63 187.772 261.663 187.803C261.696 187.833 261.722 187.871 261.74 187.912C261.758 187.953 261.768 187.997 261.77 188.042C261.771 188.087 261.763 188.132 261.747 188.174C261.582 188.605 261.397 189.035 261.193 189.455C261.158 189.529 261.098 189.588 261.023 189.621C260.948 189.654 260.864 189.66 260.786 189.636C260.708 189.612 260.641 189.561 260.597 189.492C260.553 189.424 260.535 189.341 260.546 189.26L260.55 189.261Z" fill="#441346"></path><path d="M256.377 189.051C256.405 189.017 256.421 188.975 256.424 188.931C256.426 188.887 256.415 188.843 256.391 188.806L255.023 186.63C255.55 185.532 255.893 184.355 256.041 183.146L258.361 182.051C258.401 182.032 258.434 182.001 258.456 181.963C258.477 181.924 258.486 181.88 258.482 181.836L258.148 178.77C258.144 178.726 258.125 178.685 258.096 178.652C258.067 178.62 258.028 178.597 257.986 178.587L255.484 178.016C255.08 176.868 254.492 175.793 253.743 174.834L254.611 172.414C254.625 172.373 254.626 172.327 254.614 172.285C254.601 172.243 254.576 172.205 254.541 172.178L252.141 170.246C252.107 170.218 252.065 170.202 252.021 170.199C251.977 170.197 251.933 170.208 251.896 170.232L249.723 171.601C248.627 171.075 247.453 170.731 246.246 170.582L245.153 168.257C245.134 168.218 245.103 168.185 245.064 168.163C245.026 168.142 244.982 168.133 244.938 168.138L241.877 168.471C241.833 168.475 241.792 168.493 241.759 168.523C241.726 168.552 241.704 168.591 241.695 168.635L241.126 171.14C239.979 171.545 238.906 172.134 237.949 172.885L235.533 172.016C235.491 172.001 235.446 171.999 235.404 172.012C235.361 172.024 235.324 172.05 235.297 172.085L233.368 174.49C233.34 174.524 233.324 174.566 233.321 174.61C233.318 174.654 233.33 174.697 233.354 174.734L234.721 176.911C234.195 178.009 233.851 179.185 233.704 180.394L231.383 181.489C231.343 181.508 231.31 181.539 231.289 181.577C231.267 181.615 231.258 181.659 231.263 181.703L231.596 184.769C231.601 184.813 231.619 184.855 231.648 184.888C231.677 184.921 231.716 184.943 231.759 184.953L234.261 185.523C234.665 186.671 235.254 187.746 236.003 188.705L235.135 191.125C235.12 191.166 235.119 191.212 235.131 191.254C235.144 191.296 235.169 191.334 235.204 191.361L237.605 193.293C237.639 193.32 237.681 193.336 237.725 193.339C237.768 193.341 237.812 193.33 237.849 193.307L240.022 191.937C241.118 192.464 242.293 192.808 243.499 192.956L244.593 195.281C244.612 195.321 244.643 195.353 244.681 195.375C244.72 195.396 244.764 195.405 244.807 195.401L247.868 195.067C247.912 195.062 247.953 195.044 247.985 195.014C248.018 194.985 248.041 194.947 248.051 194.904L248.62 192.398C249.767 191.993 250.84 191.404 251.798 190.653L254.213 191.523C254.255 191.538 254.3 191.539 254.343 191.527C254.385 191.514 254.422 191.488 254.449 191.453L256.377 189.051Z" fill="#441346"></path><path d="M241.66 181.309C241.704 181 241.793 180.698 241.923 180.414C242.265 179.672 242.874 179.087 243.629 178.776C244.383 178.465 245.228 178.452 245.991 178.74C246.755 179.027 247.382 179.594 247.746 180.325C248.11 181.057 248.184 181.899 247.953 182.683C247.722 183.467 247.203 184.134 246.501 184.55C245.799 184.967 244.966 185.102 244.168 184.927C243.371 184.753 242.669 184.284 242.204 183.612C241.738 182.941 241.544 182.118 241.66 181.309ZM247.076 182.085C247.129 181.717 247.088 181.342 246.958 180.994C246.779 180.512 246.438 180.107 245.994 179.848C245.55 179.589 245.03 179.492 244.523 179.574C244.016 179.656 243.553 179.912 243.213 180.297C242.872 180.683 242.676 181.175 242.657 181.689C242.638 182.203 242.798 182.708 243.109 183.117C243.42 183.527 243.864 183.816 244.363 183.934C244.863 184.053 245.389 183.995 245.851 183.769C246.312 183.544 246.681 183.164 246.895 182.697C246.984 182.502 247.045 182.296 247.076 182.085Z" fill="#DFAFA2"></path><path d="M236.959 180.598C237.235 178.681 238.2 176.93 239.673 175.675C241.147 174.42 243.026 173.746 244.96 173.78C246.894 173.814 248.749 174.553 250.178 175.86C251.606 177.166 252.509 178.95 252.718 180.876C252.718 180.895 252.722 180.915 252.725 180.935C252.774 181.419 252.779 181.906 252.74 182.391C252.74 182.429 252.733 182.468 252.729 182.506L252.723 182.572L251.703 182.465C251.87 180.88 251.486 179.286 250.617 177.951C249.747 176.616 248.445 175.622 246.93 175.136C245.414 174.65 243.778 174.703 242.296 175.284C240.814 175.866 239.578 176.941 238.795 178.329C238.013 179.716 237.731 181.332 237.999 182.903C238.267 184.474 239.066 185.905 240.264 186.955C241.462 188.004 242.984 188.608 244.574 188.665C246.165 188.722 247.726 188.228 248.995 187.266L249.614 188.085C248.358 189.037 246.847 189.592 245.275 189.682C243.702 189.772 242.138 189.391 240.782 188.589C239.426 187.787 238.338 186.599 237.657 185.176C236.977 183.753 236.733 182.16 236.959 180.598Z" fill="#DFAFA2"></path><path d="M165.581 133.236L208.323 131.844C208.54 131.841 208.753 131.894 208.943 131.998C209.133 132.102 209.293 132.254 209.406 132.438C209.52 132.622 209.585 132.833 209.593 133.05C209.601 133.267 209.553 133.482 209.454 133.674L206.863 138.684C206.75 138.901 206.704 139.147 206.729 139.39C206.754 139.634 206.849 139.865 207.004 140.054C207.159 140.244 207.365 140.384 207.598 140.458C207.832 140.531 208.081 140.535 208.316 140.468L248.876 129.031C249.142 128.956 249.376 128.794 249.542 128.572C249.707 128.349 249.794 128.078 249.788 127.8C249.783 127.523 249.687 127.255 249.513 127.039C249.34 126.823 249.1 126.67 248.831 126.605L208.347 116.804C208.127 116.751 207.897 116.759 207.682 116.826C207.466 116.893 207.272 117.017 207.121 117.186C206.97 117.354 206.868 117.56 206.824 117.782C206.781 118.004 206.798 118.234 206.875 118.447L209.139 124.76C209.204 124.942 209.227 125.136 209.205 125.328C209.182 125.52 209.116 125.704 209.011 125.866C208.906 126.029 208.765 126.164 208.599 126.263C208.433 126.361 208.246 126.42 208.054 126.434L165.471 130.732C165.145 130.756 164.841 130.908 164.625 131.154C164.408 131.4 164.297 131.721 164.314 132.049C164.332 132.372 164.473 132.676 164.709 132.897C164.945 133.119 165.257 133.24 165.581 133.236Z" fill="#DFAFA2"></path><path d="M235.315 130.829C235.274 130.829 235.233 130.814 235.201 130.786C235.17 130.759 235.15 130.72 235.145 130.679C235.14 130.637 235.15 130.595 235.174 130.56C235.198 130.526 235.233 130.501 235.274 130.491L243.988 128.325C244.062 128.305 244.127 128.262 244.174 128.201C244.22 128.14 244.246 128.066 244.246 127.989C244.246 127.913 244.22 127.838 244.174 127.778C244.127 127.717 244.062 127.674 243.988 127.654C234.765 125.464 213.271 120.354 212.876 120.212C212.853 120.205 212.833 120.194 212.815 120.179C212.797 120.164 212.783 120.146 212.772 120.125C212.762 120.105 212.756 120.082 212.754 120.059C212.753 120.036 212.756 120.013 212.764 119.991C212.771 119.969 212.784 119.949 212.799 119.932C212.815 119.915 212.834 119.901 212.855 119.892C212.876 119.882 212.899 119.877 212.922 119.877C212.945 119.876 212.968 119.881 212.99 119.89C213.462 120.049 236.895 125.619 244.066 127.322C244.216 127.357 244.35 127.442 244.445 127.563C244.541 127.683 244.594 127.833 244.594 127.987C244.595 128.141 244.544 128.291 244.449 128.413C244.354 128.535 244.221 128.621 244.072 128.657L235.358 130.824C235.344 130.827 235.33 130.829 235.315 130.829Z" fill="#030323"></path><path d="M163.296 128.734L140.16 85.6103C140.057 85.4193 140.006 85.2049 140.011 84.988C140.016 84.7712 140.077 84.5593 140.188 84.3731C140.299 84.1869 140.456 84.0327 140.644 83.9257C140.833 83.8186 141.046 83.7624 141.262 83.7623H146.895C147.139 83.7623 147.378 83.6909 147.582 83.5566C147.786 83.4224 147.947 83.2314 148.044 83.007C148.141 82.7826 148.171 82.5347 148.129 82.2938C148.087 82.0529 147.976 81.8294 147.809 81.651L119.014 50.8395C118.825 50.6368 118.574 50.5027 118.301 50.4582C118.027 50.4136 117.747 50.4612 117.503 50.5934C117.26 50.7256 117.067 50.935 116.955 51.1887C116.843 51.4425 116.818 51.7263 116.884 51.9957L126.818 92.5079C126.872 92.7278 126.984 92.9289 127.143 93.0901C127.302 93.2512 127.501 93.3663 127.72 93.4232C127.938 93.48 128.168 93.4765 128.385 93.413C128.602 93.3495 128.798 93.2283 128.952 93.0624L133.506 88.1452C133.637 88.0035 133.799 87.8941 133.98 87.8256C134.16 87.7571 134.354 87.7312 134.546 87.7501C134.738 87.7689 134.923 87.832 135.087 87.9343C135.251 88.0366 135.389 88.1754 135.49 88.34L161.126 129.985C161.298 130.264 161.572 130.465 161.889 130.544C162.206 130.623 162.542 130.575 162.824 130.41C163.104 130.246 163.31 129.979 163.398 129.667C163.485 129.354 163.449 129.02 163.296 128.734Z" fill="#DFAFA2"></path><path d="M127.586 87.1076C127.545 87.1075 127.505 87.0925 127.474 87.0653C127.443 87.0382 127.423 87.0008 127.417 86.9599C127.355 86.5628 123.396 70.6576 119.71 55.9066C119.673 55.7571 119.687 55.5993 119.75 55.4588C119.813 55.3182 119.921 55.2029 120.057 55.1315C120.194 55.06 120.35 55.0366 120.501 55.0649C120.652 55.0932 120.79 55.1717 120.891 55.2876L126.821 62.041C126.849 62.0752 126.863 62.1194 126.86 62.1641C126.857 62.2087 126.836 62.2502 126.802 62.2797C126.769 62.3093 126.725 62.3245 126.681 62.3221C126.636 62.3197 126.594 62.2999 126.564 62.267L120.634 55.5135C120.583 55.4571 120.514 55.4193 120.439 55.406C120.364 55.3927 120.287 55.4046 120.219 55.44C120.151 55.4753 120.097 55.5321 120.065 55.6014C120.033 55.6708 120.025 55.7488 120.041 55.8234C121.836 63.0086 127.697 86.4851 127.756 86.917C127.759 86.9393 127.758 86.962 127.752 86.9837C127.746 87.0055 127.736 87.0259 127.723 87.0438C127.709 87.0617 127.692 87.0767 127.673 87.088C127.653 87.0993 127.632 87.1067 127.609 87.1097L127.586 87.1076Z" fill="#030323"></path><path d="M170.95 130.882C170.95 132.034 170.609 133.16 169.971 134.117C169.332 135.075 168.424 135.821 167.362 136.262C166.3 136.702 165.131 136.818 164.003 136.593C162.876 136.368 161.84 135.814 161.027 134.999C160.214 134.185 159.66 133.148 159.436 132.018C159.212 130.889 159.327 129.718 159.767 128.654C160.207 127.59 160.952 126.681 161.908 126.041C162.864 125.401 163.988 125.06 165.137 125.06C165.901 125.06 166.657 125.21 167.362 125.503C168.067 125.796 168.708 126.225 169.248 126.765C169.788 127.306 170.216 127.948 170.508 128.654C170.8 129.361 170.95 130.118 170.95 130.882Z" fill="#DFAFA2"></path><path d="M92.1864 65.2571C92.1359 65.2823 92.0799 65.2946 92.0235 65.2928C91.9671 65.291 91.912 65.2751 91.8632 65.2467C91.4771 65.0221 91.0792 64.8045 90.6792 64.5986C90.6388 64.5783 90.6028 64.5503 90.5732 64.516C90.5437 64.4817 90.5213 64.4419 90.5072 64.3989C90.4932 64.3559 90.4877 64.3106 90.4913 64.2654C90.4949 64.2203 90.5073 64.1763 90.5279 64.1361C90.5485 64.0958 90.5769 64.06 90.6115 64.0308C90.646 64.0016 90.686 63.9795 90.7291 63.9659C90.7721 63.9523 90.8175 63.9473 90.8625 63.9513C90.9075 63.9553 90.9513 63.9683 90.9913 63.9893C91.4016 64.1973 91.8099 64.4239 92.2058 64.6541C92.2592 64.6851 92.3032 64.7302 92.3332 64.7843C92.3631 64.8385 92.3779 64.8997 92.3758 64.9616C92.3737 65.0235 92.355 65.0836 92.3215 65.1356C92.2881 65.1877 92.2411 65.2297 92.1857 65.2571H92.1864Z" fill="#441346"></path><path d="M90.6032 111.946C90.3472 112.073 90.0895 112.195 89.8302 112.313C89.7477 112.35 89.6537 112.353 89.5688 112.322C89.4839 112.29 89.4152 112.226 89.3776 112.143C89.3577 112.102 89.3463 112.058 89.3441 112.012C89.342 111.967 89.3491 111.922 89.365 111.879C89.381 111.837 89.4054 111.798 89.4368 111.766C89.4683 111.733 89.5061 111.707 89.5478 111.69C90.3742 111.313 91.1803 110.894 91.963 110.434C92.0018 110.408 92.0452 110.391 92.0907 110.383C92.1362 110.375 92.1828 110.377 92.2278 110.388C92.2727 110.398 92.315 110.418 92.3522 110.445C92.3893 110.473 92.4206 110.507 92.4439 110.547C92.4673 110.587 92.4824 110.631 92.4883 110.677C92.4942 110.723 92.4907 110.77 92.4781 110.814C92.4655 110.859 92.444 110.9 92.4149 110.936C92.3859 110.972 92.3499 111.002 92.309 111.023C91.754 111.351 91.1804 111.66 90.6032 111.946ZM95.9408 108.444C95.8659 108.481 95.7799 108.489 95.6992 108.467C95.6185 108.445 95.5486 108.394 95.5028 108.324C95.457 108.254 95.4385 108.17 95.4508 108.087C95.463 108.004 95.5051 107.928 95.5692 107.874C95.8502 107.637 96.1291 107.389 96.3996 107.143C96.7976 106.776 97.1872 106.396 97.5581 106.012C97.5892 105.979 97.6264 105.953 97.6677 105.935C97.7089 105.917 97.7533 105.907 97.7984 105.906C97.8434 105.905 97.8882 105.913 97.9301 105.93C97.972 105.946 98.0103 105.971 98.0427 106.002C98.0752 106.033 98.1011 106.071 98.119 106.112C98.1369 106.153 98.1465 106.198 98.1472 106.243C98.1479 106.288 98.1397 106.333 98.123 106.375C98.1063 106.417 98.0816 106.455 98.0501 106.487C97.6702 106.881 97.2709 107.271 96.8626 107.648C96.5858 107.901 96.2993 108.154 96.0107 108.398C95.9893 108.416 95.9659 108.431 95.9408 108.444ZM100.781 103.079C100.713 103.113 100.636 103.123 100.562 103.108C100.488 103.093 100.421 103.054 100.372 102.997C100.322 102.94 100.293 102.868 100.288 102.792C100.284 102.717 100.304 102.642 100.347 102.579C100.858 101.828 101.329 101.051 101.759 100.25C101.802 100.172 101.875 100.114 101.961 100.088C102.048 100.063 102.14 100.073 102.219 100.116C102.298 100.158 102.358 100.23 102.384 100.316C102.41 100.402 102.402 100.495 102.361 100.575C101.92 101.397 101.436 102.195 100.912 102.965C100.878 103.014 100.833 103.053 100.78 103.079H100.781ZM103.986 96.6044C103.925 96.6343 103.857 96.6456 103.79 96.6369C103.723 96.6281 103.66 96.5997 103.61 96.5552C103.559 96.5108 103.522 96.4522 103.504 96.3869C103.487 96.3217 103.489 96.2526 103.51 96.1885C103.798 95.3265 104.041 94.45 104.238 93.5628C104.257 93.4741 104.311 93.3969 104.388 93.3482C104.465 93.2994 104.557 93.2831 104.646 93.3029C104.734 93.3227 104.812 93.3769 104.86 93.4536C104.909 93.5302 104.925 93.6232 104.905 93.7119C104.703 94.6218 104.453 95.5207 104.157 96.4048C104.143 96.4478 104.121 96.4877 104.091 96.5219C104.062 96.5562 104.025 96.5842 103.985 96.6044H103.986ZM105.321 89.5009C105.268 89.5272 105.209 89.539 105.149 89.5353C105.09 89.5315 105.032 89.5123 104.983 89.4796C104.933 89.4468 104.893 89.4016 104.866 89.3485C104.839 89.2953 104.826 89.2361 104.829 89.1765C104.874 88.2686 104.873 87.3589 104.824 86.4511C104.82 86.4053 104.826 86.3592 104.84 86.3154C104.854 86.2717 104.877 86.2313 104.907 86.1966C104.937 86.1619 104.974 86.1336 105.015 86.1134C105.056 86.0932 105.101 86.0815 105.147 86.0791C105.192 86.0766 105.238 86.0834 105.281 86.0991C105.325 86.1147 105.364 86.1389 105.398 86.1702C105.431 86.2015 105.458 86.2392 105.477 86.2811C105.496 86.3231 105.506 86.3684 105.507 86.4143C105.557 87.3459 105.559 88.2795 105.512 89.2112C105.509 89.2724 105.49 89.3316 105.456 89.3827C105.422 89.4338 105.376 89.4749 105.321 89.5017L105.321 89.5009ZM104.698 82.2977C104.674 82.3097 104.649 82.3188 104.622 82.3247C104.579 82.3347 104.533 82.3359 104.489 82.3282C104.445 82.3206 104.402 82.3043 104.364 82.2803C104.326 82.2563 104.294 82.225 104.268 82.1883C104.242 82.1515 104.223 82.11 104.213 82.0661C104.013 81.1794 103.766 80.3037 103.474 79.4426C103.449 79.3577 103.458 79.2663 103.498 79.1877C103.539 79.1091 103.609 79.0492 103.692 79.0208C103.776 78.9924 103.867 78.9976 103.947 79.0352C104.027 79.0729 104.09 79.1401 104.121 79.2228C104.422 80.1065 104.676 81.0054 104.883 81.9157C104.9 81.9908 104.891 82.0694 104.858 82.1389C104.824 82.2083 104.769 82.2645 104.7 82.2984L104.698 82.2977ZM102.152 75.5311C102.073 75.5701 101.982 75.577 101.898 75.5502C101.814 75.5235 101.743 75.4652 101.701 75.3876C101.267 74.589 100.792 73.8137 100.277 73.0648C100.252 73.0278 100.234 72.9861 100.224 72.9421C100.215 72.8981 100.214 72.8527 100.223 72.8085C100.239 72.7192 100.29 72.6401 100.365 72.5886C100.44 72.5372 100.532 72.5175 100.621 72.534C100.71 72.5505 100.789 72.6019 100.84 72.6767C101.368 73.4453 101.856 74.2409 102.301 75.0604C102.323 75.1 102.336 75.1435 102.341 75.1882C102.345 75.233 102.341 75.2782 102.328 75.3214C102.315 75.3645 102.294 75.4047 102.266 75.4396C102.237 75.4745 102.202 75.5035 102.163 75.5249L102.152 75.5311ZM97.8702 69.7086C97.8051 69.7399 97.7319 69.7501 97.6608 69.7376C97.5897 69.7252 97.5243 69.6908 97.4737 69.6393C96.8411 68.9871 96.1754 68.3679 95.4792 67.7844C95.4448 67.7555 95.4164 67.7201 95.3956 67.6803C95.3748 67.6404 95.362 67.5969 95.358 67.5521C95.3541 67.5073 95.3589 67.4621 95.3724 67.4192C95.3858 67.3763 95.4075 67.3364 95.4364 67.3019C95.4652 67.2674 95.5005 67.239 95.5403 67.2181C95.5801 67.1973 95.6236 67.1845 95.6683 67.1806C95.713 67.1766 95.7581 67.1814 95.8009 67.1949C95.8438 67.2083 95.8836 67.2301 95.918 67.2589C96.6323 67.8577 97.3153 68.4931 97.9643 69.1624C97.9957 69.1946 98.0205 69.2328 98.0372 69.2747C98.0539 69.3166 98.0621 69.3613 98.0615 69.4064C98.0609 69.4515 98.0513 69.496 98.0335 69.5374C98.0156 69.5788 97.9898 69.6162 97.9574 69.6476C97.932 69.6731 97.9028 69.6946 97.8709 69.7114L97.8702 69.7086Z" fill="#441346"></path><path d="M85.6088 113.811C85.588 113.822 85.5662 113.83 85.5438 113.836C85.0974 113.952 84.6441 114.058 84.1964 114.15C84.1524 114.159 84.107 114.16 84.0629 114.151C84.0188 114.143 83.9768 114.126 83.9393 114.101C83.9017 114.076 83.8694 114.044 83.8442 114.007C83.819 113.97 83.8013 113.928 83.7922 113.884C83.7831 113.84 83.7828 113.795 83.7913 113.75C83.7997 113.706 83.8167 113.664 83.8414 113.627C83.8661 113.589 83.8979 113.557 83.9351 113.531C83.9722 113.506 84.014 113.488 84.0579 113.479C84.4946 113.389 84.9361 113.286 85.3728 113.172C85.4548 113.151 85.5419 113.16 85.6173 113.199C85.6926 113.238 85.7507 113.304 85.7804 113.383C85.8101 113.463 85.8092 113.551 85.7778 113.63C85.7465 113.709 85.687 113.773 85.6109 113.811L85.6088 113.811Z" fill="#441346"></path><path d="M64.8784 110.648C64.8261 110.674 64.7681 110.686 64.7098 110.683C64.6515 110.68 64.595 110.662 64.5455 110.631C64.1552 110.386 63.767 110.128 63.3919 109.865C63.319 109.812 63.2698 109.733 63.2548 109.644C63.2398 109.556 63.2603 109.464 63.3119 109.391C63.3635 109.317 63.442 109.267 63.5304 109.25C63.6188 109.234 63.71 109.254 63.7843 109.304C64.1504 109.561 64.5283 109.812 64.9089 110.05C64.9603 110.083 65.0022 110.128 65.0303 110.182C65.0584 110.236 65.0716 110.297 65.0685 110.358C65.0655 110.418 65.0464 110.477 65.0131 110.528C64.9798 110.579 64.9335 110.62 64.8791 110.648H64.8784Z" fill="#441346"></path><path d="M60.3559 107.066C60.292 107.097 60.2202 107.108 60.1501 107.096C60.08 107.085 60.0151 107.053 59.9642 107.003C59.641 106.684 59.3185 106.349 59.0071 106.009C58.6957 105.669 58.3974 105.325 58.1075 104.975C58.0766 104.941 58.053 104.9 58.0381 104.857C58.0231 104.813 58.0172 104.767 58.0205 104.721C58.0239 104.675 58.0365 104.63 58.0576 104.589C58.0787 104.548 58.1078 104.512 58.1433 104.482C58.1788 104.453 58.2198 104.431 58.264 104.418C58.3082 104.404 58.3545 104.4 58.4003 104.406C58.4461 104.411 58.4903 104.425 58.5304 104.448C58.5705 104.471 58.6055 104.502 58.6334 104.538C58.9158 104.879 59.2113 105.219 59.5109 105.546C59.8106 105.873 60.1289 106.204 60.4438 106.517C60.4825 106.555 60.5115 106.602 60.5284 106.654C60.5453 106.706 60.5496 106.761 60.5409 106.815C60.5323 106.869 60.5109 106.92 60.4786 106.964C60.4463 107.008 60.404 107.043 60.3552 107.068L60.3559 107.066ZM56.003 101.445C55.9249 101.483 55.8351 101.49 55.7521 101.464C55.669 101.438 55.5989 101.382 55.556 101.306C55.2605 100.795 54.9781 100.266 54.7172 99.7382C54.5728 99.4461 54.4344 99.1518 54.302 98.8551C54.2826 98.8142 54.2718 98.7698 54.27 98.7246C54.2683 98.6794 54.2756 98.6342 54.2917 98.5919C54.3078 98.5497 54.3323 98.5111 54.3637 98.4785C54.3951 98.446 54.4327 98.4201 54.4743 98.4025C54.5153 98.384 54.5595 98.3739 54.6044 98.3726C54.6493 98.3713 54.694 98.3789 54.736 98.395C54.7779 98.411 54.8163 98.4351 54.849 98.466C54.8816 98.4969 54.9079 98.534 54.9262 98.5751C55.0554 98.8634 55.1901 99.1499 55.3303 99.4346C55.5843 99.9503 55.8597 100.465 56.1476 100.96C56.1931 101.038 56.2055 101.132 56.1821 101.219C56.1587 101.307 56.1015 101.382 56.0231 101.427L56.003 101.445ZM53.3041 94.8597C53.2819 94.8702 53.2587 94.8784 53.2349 94.884C53.1473 94.9063 53.0545 94.8931 52.9767 94.8471C52.8989 94.8011 52.8425 94.7262 52.8197 94.6386C52.5894 93.7501 52.4046 92.8503 52.266 91.9429C52.256 91.8549 52.2804 91.7664 52.3341 91.696C52.3878 91.6256 52.4666 91.5788 52.5541 91.5654C52.6415 91.5521 52.7307 91.5732 52.803 91.6243C52.8752 91.6754 52.9248 91.7526 52.9415 91.8396C53.0764 92.7239 53.2563 93.6008 53.4805 94.4667C53.5016 94.5429 53.4957 94.624 53.4638 94.6963C53.4319 94.7686 53.3759 94.8276 53.3055 94.8632L53.3041 94.8597ZM52.4557 87.7972C52.4032 87.823 52.345 87.8349 52.2866 87.8318C52.2282 87.8287 52.1716 87.8107 52.1221 87.7794C52.0727 87.7481 52.0321 87.7046 52.0042 87.6531C51.9763 87.6016 51.9621 87.5438 51.9629 87.4852C51.9762 86.5676 52.036 85.6512 52.1422 84.7397C52.1464 84.6942 52.1596 84.65 52.1811 84.6098C52.2027 84.5695 52.232 84.534 52.2674 84.5053C52.3028 84.4765 52.3437 84.4552 52.3874 84.4425C52.4312 84.4298 52.4771 84.426 52.5224 84.4313C52.5676 84.4366 52.6114 84.4509 52.651 84.4734C52.6907 84.4959 52.7255 84.5261 52.7533 84.5623C52.7811 84.5985 52.8015 84.6398 52.8131 84.684C52.8247 84.7281 52.8274 84.7742 52.8211 84.8194C52.7175 85.7077 52.659 86.6007 52.646 87.4949C52.6459 87.5584 52.6281 87.6206 52.5948 87.6746C52.5614 87.7286 52.5137 87.7722 52.457 87.8006L52.4557 87.7972ZM53.5055 80.763C53.446 80.7924 53.3792 80.8039 53.3134 80.7959C53.2475 80.788 53.1853 80.7611 53.1345 80.7184C53.0837 80.6757 53.0463 80.6191 53.027 80.5555C53.0077 80.4919 53.0074 80.4241 53.0259 80.3603C53.2811 79.4792 53.5814 78.6118 53.9255 77.7616C53.9412 77.7184 53.9655 77.6788 53.9968 77.6452C54.0282 77.6115 54.0659 77.5845 54.1079 77.5658C54.1499 77.5472 54.1952 77.5371 54.2411 77.5364C54.2871 77.5356 54.3327 77.5441 54.3752 77.5614C54.4178 77.5787 54.4565 77.6044 54.4889 77.637C54.5213 77.6696 54.5469 77.7084 54.564 77.7511C54.5811 77.7938 54.5895 77.8395 54.5886 77.8855C54.5877 77.9315 54.5775 77.9768 54.5587 78.0188C54.2236 78.8474 53.931 79.6925 53.6819 80.5509C53.6694 80.5971 53.6474 80.6402 53.6172 80.6773C53.587 80.7144 53.5495 80.7448 53.5069 80.7665L53.5055 80.763ZM56.3864 74.2626C56.32 74.295 56.245 74.305 56.1725 74.2912C56.1 74.2773 56.0339 74.2403 55.9841 74.1857C55.9343 74.131 55.9035 74.0618 55.8963 73.9882C55.8891 73.9146 55.9059 73.8406 55.9442 73.7774C56.4261 72.9965 56.9476 72.2409 57.5068 71.5135C57.5637 71.4472 57.6438 71.4052 57.7307 71.3961C57.8176 71.3871 57.9047 71.4117 57.974 71.4649C58.0433 71.5181 58.0897 71.5959 58.1036 71.6823C58.1175 71.7687 58.0978 71.8571 58.0486 71.9294C57.5037 72.638 56.9955 73.3741 56.5262 74.1351C56.4936 74.1912 56.4455 74.2367 56.3878 74.2661L56.3864 74.2626ZM60.8963 68.77C60.8227 68.8065 60.7384 68.8153 60.6589 68.7946C60.5793 68.7739 60.5099 68.7253 60.4632 68.6575C60.4166 68.5897 60.3959 68.5074 60.4049 68.4256C60.4139 68.3438 60.452 68.268 60.5123 68.212L60.6438 68.0908C61.2756 67.5106 61.9392 66.956 62.6174 66.4431C62.6532 66.4158 62.6941 66.3958 62.7376 66.3843C62.7811 66.3728 62.8264 66.37 62.871 66.3761C62.9156 66.3821 62.9586 66.3969 62.9975 66.4196C63.0364 66.4423 63.0704 66.4724 63.0977 66.5083C63.125 66.5441 63.1449 66.585 63.1564 66.6286C63.1679 66.6722 63.1707 66.7176 63.1646 66.7623C63.1586 66.8069 63.1438 66.85 63.1212 66.8889C63.0986 66.9279 63.0685 66.962 63.0326 66.9893C62.3718 67.4898 61.7254 68.0291 61.1095 68.5947L60.9808 68.7139C60.9561 68.7379 60.9278 68.758 60.897 68.7735L60.8963 68.77ZM69.1647 63.536L69.1391 63.5478C68.3087 63.8768 67.4959 64.2486 66.7039 64.6617C66.623 64.7013 66.53 64.7082 66.4441 64.6811C66.3582 64.654 66.286 64.595 66.2423 64.5161C66.2014 64.4353 66.1937 64.3417 66.2208 64.2553C66.248 64.1689 66.3079 64.0965 66.3876 64.0538C67.2006 63.6297 68.0349 63.248 68.8872 62.9101C68.9683 62.8815 69.0572 62.8845 69.1362 62.9186C69.2151 62.9527 69.2783 63.0153 69.3133 63.094C69.3482 63.1727 69.3522 63.2616 69.3246 63.3432C69.2969 63.4247 69.2396 63.4928 69.164 63.5339L69.1647 63.536Z" fill="#441346"></path><path d="M74.7412 62.0131C74.7102 62.0284 74.6771 62.039 74.6429 62.0443C74.2042 62.1136 73.7578 62.1968 73.3163 62.2897C73.2714 62.3016 73.2245 62.3042 73.1785 62.2974C73.1325 62.2906 73.0884 62.2745 73.0489 62.25C73.0093 62.2255 72.9752 62.1932 72.9485 62.1551C72.9219 62.1169 72.9032 62.0737 72.8938 62.0281C72.8844 61.9825 72.8843 61.9355 72.8937 61.8899C72.903 61.8443 72.9216 61.801 72.9482 61.7628C72.9748 61.7246 73.0088 61.6923 73.0483 61.6677C73.0878 61.6432 73.1319 61.627 73.1779 61.6201C73.6305 61.5244 74.0886 61.4391 74.5391 61.3677C74.6202 61.3538 74.7037 61.3696 74.7741 61.4123C74.8446 61.455 74.8972 61.5217 74.9225 61.6002C74.9477 61.6787 74.9439 61.7636 74.9116 61.8395C74.8793 61.9153 74.8207 61.977 74.7467 62.0131H74.7412Z" fill="#441346"></path><path d="M78.1086 67.5271C78.0426 67.522 77.9768 67.5377 77.9202 67.572C77.8636 67.6063 77.8191 67.6575 77.793 67.7184L76.263 71.2722C74.4549 71.5543 72.7049 72.1297 71.0817 72.976L67.7475 71.0261C67.6905 70.9926 67.6244 70.9777 67.5585 70.9837C67.4926 70.9897 67.4302 71.0161 67.38 71.0594L63.8666 74.0857C63.8166 74.1289 63.7813 74.1866 63.7655 74.2508C63.7498 74.3151 63.7544 74.3826 63.7787 74.4441L65.2043 78.0381C64.1261 79.5187 63.296 81.1656 62.7469 82.9138L59.01 83.8973C58.9461 83.9142 58.889 83.9507 58.8468 84.0017C58.8046 84.0526 58.7794 84.1155 58.7746 84.1815L58.4286 88.8104C58.4237 88.8765 58.4394 88.9424 58.4736 88.9991C58.5079 89.0557 58.5589 89.1003 58.6196 89.1265L62.1677 90.6591C62.4492 92.4701 63.0237 94.223 63.8687 95.8487L61.922 99.1883C61.8886 99.2454 61.8739 99.3115 61.8799 99.3774C61.8858 99.4432 61.9122 99.5056 61.9552 99.5557L64.9766 103.076C65.0197 103.126 65.0773 103.161 65.1415 103.177C65.2056 103.193 65.273 103.188 65.3344 103.164L68.9226 101.736C70.4008 102.816 72.0449 103.647 73.7903 104.197L74.7723 107.94C74.7891 108.004 74.8254 108.061 74.8761 108.104C74.9268 108.146 74.9895 108.171 75.0554 108.177L79.6767 108.523C79.7426 108.528 79.8085 108.512 79.865 108.478C79.9216 108.444 79.966 108.393 79.9923 108.332L81.5168 104.779C83.3249 104.496 85.0749 103.921 86.6981 103.075L90.0323 105.025C90.0893 105.058 90.1553 105.073 90.221 105.067C90.2867 105.061 90.349 105.034 90.3991 104.991L93.9132 101.964C93.9633 101.921 93.9987 101.864 94.0144 101.799C94.0302 101.735 94.0256 101.668 94.0011 101.606L92.5748 98.0114C93.6533 96.5309 94.4834 94.884 95.0322 93.1357L98.7692 92.1521C98.8331 92.1354 98.8902 92.0991 98.9325 92.0483C98.9748 91.9974 99.0002 91.9346 99.0051 91.8686L99.3512 87.2397C99.356 87.1738 99.3402 87.108 99.306 87.0515C99.2717 86.9949 99.2208 86.9505 99.1602 86.9243L95.6121 85.3918C95.3307 83.5807 94.7561 81.8278 93.9111 80.2021L95.8578 76.8618C95.8912 76.8047 95.9059 76.7387 95.8999 76.6728C95.894 76.6069 95.8676 76.5446 95.8246 76.4944L92.8025 72.9746C92.7593 72.9246 92.7017 72.8892 92.6376 72.8735C92.5735 72.8577 92.5061 72.8623 92.4447 72.8866L88.8565 74.3145C87.378 73.2345 85.7337 72.4031 83.9881 71.8531L83.0061 68.11C82.9893 68.046 82.953 67.9889 82.9023 67.9465C82.8516 67.9042 82.7889 67.8787 82.7231 67.8736L78.1086 67.5271Z" fill="#441346"></path><path d="M80.9464 92.1812C80.5474 92.3779 80.1223 92.5164 79.6841 92.5923C78.7824 92.7494 77.8544 92.6351 77.0175 92.2639C76.1806 91.8926 75.4724 91.2812 74.9824 90.5068C74.4925 89.7324 74.2429 88.8299 74.265 87.9134C74.2872 86.9969 74.5802 86.1075 75.107 85.3578C75.5131 84.7813 76.0451 84.3053 76.6626 83.966C77.2801 83.6266 77.9668 83.4329 78.6704 83.3997C79.374 83.3664 80.0758 83.4945 80.7225 83.7741C81.3692 84.0537 81.9436 84.4775 82.402 85.0131C82.8604 85.5487 83.1906 86.1821 83.3676 86.865C83.5446 87.5479 83.5636 88.2621 83.4232 88.9535C83.2829 89.6448 82.9868 90.295 82.5575 90.8543C82.1283 91.4137 81.5773 91.8675 80.9464 92.1812ZM77.2918 84.7901C76.7532 85.057 76.2903 85.4553 75.9458 85.9484C75.4671 86.6305 75.2393 87.4577 75.3011 88.2892C75.363 89.1206 75.7108 89.9049 76.2852 90.5083C76.8595 91.1118 77.625 91.4972 78.4513 91.5988C79.2775 91.7004 80.1133 91.5119 80.8163 91.0656C81.5194 90.6192 82.0462 89.9424 82.3071 89.1507C82.5679 88.3589 82.5466 87.5011 82.2469 86.7232C81.9471 85.9454 81.3874 85.2957 80.6631 84.8848C79.9387 84.474 79.0946 84.3273 78.2745 84.4699C77.9333 84.5293 77.6023 84.6374 77.2918 84.7908V84.7901Z" fill="#DFAFA2"></path><path d="M84.054 98.6429C81.7272 99.7853 79.0877 100.122 76.5492 99.6011C74.0106 99.0799 71.7164 97.73 70.0259 95.7628C69.3797 95.0114 68.8307 94.1814 68.392 93.2924C67.2518 90.9619 66.9155 88.3185 67.4358 85.7761C67.9561 83.2337 69.3037 80.936 71.2674 79.2428L71.329 79.1901C71.8679 78.7323 72.447 78.324 73.0591 77.9702L73.1905 77.8953L73.3178 77.826L73.8078 78.7271C73.141 79.0911 72.5147 79.5249 71.9393 80.0213C70.1476 81.566 68.9181 83.6624 68.4434 85.982C67.9686 88.3017 68.2755 90.7135 69.3159 92.8398C69.7162 93.6507 70.217 94.4078 70.8065 95.0932C72.5012 97.0602 74.8531 98.3418 77.4226 98.6984C79.992 99.055 82.6032 98.4622 84.768 97.0307C86.9328 95.5993 88.5031 93.4272 89.1854 90.9205C89.8677 88.4138 89.6153 85.744 88.4754 83.4101C87.8489 82.1401 86.9778 81.0068 85.9122 80.0754C84.8466 79.1441 83.6076 78.4331 82.2665 77.9834L82.5897 77.0088C84.7891 77.7461 86.7204 79.1211 88.1384 80.9594C89.5564 82.7978 90.3973 85.0166 90.5544 87.3344C90.7115 89.6522 90.1777 91.9645 89.0208 93.9779C87.8638 95.9914 86.1359 97.6153 84.0561 98.6436L84.054 98.6429Z" fill="#DFAFA2"></path><path d="M79.5581 122.637C79.5049 122.663 79.4458 122.675 79.3866 122.672C79.3273 122.668 79.2701 122.649 79.2204 122.617C78.8475 122.375 78.4627 122.152 78.0675 121.949C77.9878 121.907 77.9278 121.835 77.9007 121.749C77.8735 121.663 77.8814 121.57 77.9225 121.489C77.9636 121.409 78.0346 121.348 78.1202 121.32C78.2058 121.292 78.299 121.299 78.3796 121.339C78.7952 121.553 79.1999 121.788 79.592 122.042C79.6426 122.075 79.6836 122.121 79.7108 122.175C79.7381 122.229 79.7505 122.289 79.747 122.349C79.7435 122.41 79.7241 122.468 79.6908 122.518C79.6575 122.569 79.6115 122.609 79.5574 122.636L79.5581 122.637Z" fill="#441346"></path><path d="M79.943 145.225C79.8658 145.262 79.7775 145.269 79.6956 145.244C79.6136 145.219 79.544 145.164 79.5005 145.09C79.457 145.016 79.4428 144.929 79.4606 144.845C79.4785 144.761 79.5272 144.687 79.597 144.637C80.0785 144.299 80.5374 143.93 80.9707 143.532C81.1455 143.371 81.315 143.207 81.4793 143.039C81.5428 142.974 81.6295 142.938 81.7202 142.937C81.8109 142.936 81.8983 142.971 81.963 143.035C82.0278 143.098 82.0647 143.185 82.0656 143.276C82.0665 143.367 82.0314 143.454 81.9679 143.519C81.7953 143.695 81.6172 143.868 81.4336 144.037C80.9782 144.455 80.4958 144.844 79.9894 145.199C79.9746 145.209 79.9591 145.217 79.943 145.225ZM84.2723 140.255C84.2079 140.287 84.1352 140.298 84.0643 140.286C83.9935 140.274 83.9283 140.24 83.8778 140.189C83.8273 140.137 83.7942 140.072 83.7832 140.001C83.7721 139.93 83.7837 139.857 83.8163 139.793C84.1905 139.058 84.4954 138.29 84.727 137.498C84.7534 137.412 84.8126 137.34 84.8918 137.297C84.9709 137.255 85.0637 137.245 85.15 137.27C85.2363 137.296 85.3091 137.354 85.3527 137.433C85.3964 137.511 85.4072 137.604 85.383 137.691C85.1392 138.523 84.8184 139.331 84.4246 140.104C84.3914 140.169 84.338 140.222 84.2723 140.255ZM85.754 133.83C85.7088 133.853 85.6591 133.865 85.6087 133.865C85.5182 133.867 85.431 133.832 85.3662 133.769C85.3013 133.705 85.2641 133.619 85.2626 133.529C85.2486 132.703 85.1583 131.881 84.9927 131.073C84.9837 131.029 84.9833 130.983 84.9917 130.939C85.0002 130.895 85.0172 130.853 85.0419 130.815C85.0666 130.778 85.0984 130.745 85.1356 130.72C85.1727 130.695 85.2145 130.677 85.2585 130.668C85.3024 130.659 85.3478 130.658 85.3919 130.667C85.4361 130.675 85.478 130.692 85.5156 130.717C85.5531 130.742 85.5854 130.774 85.6106 130.811C85.6359 130.848 85.6536 130.89 85.6626 130.934C85.8368 131.784 85.9317 132.649 85.9464 133.517C85.9474 133.582 85.9298 133.646 85.8957 133.702C85.8616 133.757 85.8125 133.802 85.754 133.83ZM84.0523 127.459C83.9738 127.498 83.8835 127.506 83.7998 127.48C83.7161 127.454 83.6454 127.397 83.6024 127.321C83.2018 126.599 82.735 125.917 82.208 125.283C82.1793 125.248 82.1576 125.208 82.1443 125.165C82.131 125.122 82.1263 125.077 82.1304 125.032C82.1345 124.988 82.1474 124.944 82.1683 124.904C82.1892 124.864 82.2178 124.829 82.2523 124.8C82.2868 124.772 82.3267 124.75 82.3696 124.737C82.4125 124.723 82.4576 124.719 82.5023 124.723C82.547 124.727 82.5905 124.74 82.6302 124.761C82.67 124.782 82.7052 124.81 82.7339 124.845C83.2878 125.512 83.7785 126.23 84.1997 126.988C84.2215 127.027 84.2354 127.071 84.2405 127.115C84.2457 127.16 84.2419 127.205 84.2296 127.248C84.2172 127.292 84.1965 127.332 84.1686 127.367C84.1407 127.403 84.1061 127.432 84.0668 127.454L84.0523 127.459Z" fill="#441346"></path><path d="M76.2507 147.046C76.2348 147.054 76.2184 147.06 76.2016 147.066C75.7559 147.206 75.3034 147.324 74.8459 147.419C74.8013 147.43 74.7551 147.431 74.7099 147.424C74.6646 147.416 74.6214 147.4 74.5827 147.375C74.544 147.351 74.5106 147.318 74.4845 147.281C74.4584 147.243 74.4402 147.2 74.4309 147.155C74.4216 147.11 74.4215 147.064 74.4304 147.019C74.4394 146.974 74.4574 146.931 74.4832 146.893C74.509 146.855 74.5421 146.823 74.5806 146.798C74.6192 146.773 74.6623 146.756 74.7075 146.749C75.1426 146.658 75.5729 146.546 75.9968 146.413C76.0789 146.387 76.1676 146.394 76.2453 146.43C76.323 146.467 76.3839 146.532 76.416 146.612C76.448 146.692 76.4489 146.781 76.4182 146.862C76.3876 146.942 76.3278 147.008 76.2507 147.047V147.046Z" fill="#441346"></path><path d="M64.9651 145.603C64.9128 145.629 64.8548 145.642 64.7965 145.639C64.7382 145.636 64.6817 145.618 64.6322 145.587C64.2361 145.338 63.8526 145.069 63.4834 144.782C63.4142 144.726 63.3697 144.644 63.3596 144.555C63.3495 144.466 63.3745 144.377 63.4293 144.306C63.4841 144.236 63.5644 144.189 63.6528 144.177C63.7413 144.165 63.831 144.188 63.9028 144.241C64.2538 144.514 64.6183 144.768 64.9948 145.004C65.0329 145.028 65.0659 145.059 65.0919 145.096C65.1179 145.132 65.1364 145.174 65.1464 145.217C65.1565 145.261 65.1578 145.307 65.1503 145.351C65.1428 145.395 65.1267 145.438 65.1028 145.476C65.0698 145.531 65.0221 145.575 64.9651 145.603Z" fill="#441346"></path><path d="M61.0577 141.893C60.9844 141.928 60.9011 141.936 60.8224 141.916C60.7437 141.896 60.6746 141.849 60.6272 141.783C60.2103 141.192 59.8401 140.57 59.52 139.922C59.4623 139.805 59.4062 139.687 59.3518 139.569C59.332 139.528 59.3207 139.484 59.3184 139.438C59.3162 139.393 59.3232 139.348 59.3389 139.306C59.3547 139.263 59.3788 139.224 59.4099 139.192C59.441 139.159 59.4785 139.133 59.52 139.115C59.5608 139.096 59.6049 139.085 59.6497 139.084C59.6946 139.082 59.7393 139.089 59.7814 139.105C59.8235 139.12 59.8621 139.144 59.895 139.175C59.928 139.205 59.9545 139.242 59.9732 139.283C60.0249 139.396 60.0782 139.508 60.1331 139.619C60.437 140.236 60.7885 140.827 61.1843 141.389C61.2364 141.463 61.2571 141.555 61.2416 141.644C61.2262 141.734 61.1759 141.813 61.1019 141.866C61.0878 141.876 61.073 141.885 61.0577 141.893ZM58.6999 135.851C58.6512 135.875 58.5975 135.888 58.5432 135.887C58.4888 135.886 58.4355 135.872 58.3876 135.847C58.3396 135.821 58.2985 135.784 58.2676 135.74C58.2367 135.695 58.217 135.643 58.2099 135.589C58.0987 134.744 58.0646 133.89 58.1082 133.038C58.1161 132.95 58.1578 132.868 58.2245 132.81C58.2912 132.752 58.3778 132.722 58.466 132.726C58.5543 132.731 58.6374 132.769 58.6979 132.834C58.7584 132.898 58.7916 132.984 58.7906 133.072C58.7495 133.882 58.7819 134.694 58.8874 135.498C58.8979 135.57 58.8853 135.643 58.8516 135.707C58.8179 135.771 58.7648 135.823 58.6999 135.855V135.851ZM59.3988 129.405C59.3377 129.435 59.2689 129.446 59.2014 129.437C59.1338 129.428 59.0706 129.399 59.0198 129.353C58.969 129.308 58.9329 129.248 58.9162 129.182C58.8995 129.115 58.903 129.046 58.9262 128.981C59.2171 128.18 59.581 127.406 60.0134 126.671C60.0349 126.63 60.0646 126.594 60.1005 126.565C60.1364 126.536 60.1778 126.514 60.2222 126.502C60.2666 126.489 60.3132 126.486 60.359 126.492C60.4048 126.497 60.4489 126.513 60.4887 126.536C60.5286 126.559 60.5632 126.591 60.5906 126.628C60.618 126.665 60.6377 126.708 60.6483 126.753C60.6589 126.798 60.6603 126.844 60.6524 126.89C60.6445 126.935 60.6274 126.979 60.6023 127.018C60.1912 127.716 59.8454 128.451 59.5691 129.214C59.5398 129.298 59.4786 129.367 59.3988 129.406V129.405ZM62.9974 124.016C62.9236 124.053 62.8393 124.061 62.7599 124.04C62.6805 124.019 62.6112 123.97 62.5648 123.902C62.5185 123.834 62.498 123.752 62.5073 123.67C62.5166 123.588 62.555 123.513 62.6154 123.457C63.2437 122.881 63.9231 122.364 64.6451 121.911C64.722 121.865 64.8138 121.851 64.9008 121.872C64.9878 121.893 65.0631 121.948 65.1105 122.024C65.1578 122.1 65.1736 122.192 65.1543 122.279C65.1349 122.367 65.0821 122.443 65.0071 122.492C64.3202 122.922 63.6739 123.414 63.0763 123.962C63.0538 123.984 63.0284 124.003 63.0009 124.018L62.9974 124.016Z" fill="#441346"></path><path d="M70.0301 120.621C69.9993 120.637 69.9664 120.647 69.9325 120.653C69.4952 120.722 69.0564 120.815 68.6288 120.93C68.585 120.943 68.539 120.946 68.4937 120.941C68.4484 120.936 68.4046 120.922 68.3649 120.899C68.3252 120.877 68.2904 120.846 68.2626 120.81C68.2347 120.774 68.2143 120.733 68.2027 120.688C68.1911 120.644 68.1884 120.598 68.1948 120.553C68.2012 120.508 68.2166 120.464 68.24 120.425C68.2635 120.386 68.2946 120.352 68.3314 120.325C68.3682 120.298 68.41 120.278 68.4544 120.268C68.9062 120.149 69.3638 120.052 69.8253 119.979C69.9064 119.965 69.9898 119.981 70.0603 120.023C70.1307 120.066 70.1834 120.133 70.2086 120.211C70.2339 120.29 70.23 120.375 70.1977 120.451C70.1654 120.526 70.1069 120.588 70.0329 120.624L70.0301 120.621Z" fill="#441346"></path><path d="M71.6872 123.306C71.6534 123.304 71.6196 123.312 71.5906 123.33C71.5616 123.347 71.5388 123.373 71.5253 123.405L70.7391 125.23C69.8103 125.375 68.9112 125.671 68.0776 126.106L66.3648 125.104C66.3355 125.087 66.3015 125.079 66.2676 125.082C66.2337 125.086 66.2017 125.099 66.1759 125.121L64.3711 126.676C64.3455 126.698 64.3275 126.728 64.3194 126.761C64.3113 126.794 64.3137 126.828 64.3261 126.86L65.0583 128.706C64.5045 129.467 64.0781 130.313 63.796 131.211L61.8763 131.716C61.8436 131.725 61.8144 131.744 61.7927 131.77C61.771 131.796 61.7579 131.828 61.7552 131.862L61.5767 134.24C61.574 134.274 61.582 134.308 61.5995 134.337C61.617 134.366 61.6431 134.389 61.6742 134.402L63.4964 135.19C63.6412 136.12 63.9364 137.02 64.3704 137.855L63.3704 139.571C63.3534 139.6 63.346 139.634 63.3491 139.668C63.3522 139.702 63.3657 139.734 63.3877 139.76L64.9399 141.567C64.9621 141.593 64.9917 141.611 65.0247 141.619C65.0578 141.627 65.0925 141.625 65.124 141.612L66.9669 140.879C67.7262 141.434 68.5707 141.861 69.4672 142.143L69.9717 144.066C69.9803 144.099 69.999 144.128 70.025 144.15C70.0511 144.172 70.0832 144.185 70.117 144.187L72.4907 144.366C72.5245 144.369 72.5583 144.361 72.5873 144.343C72.6163 144.325 72.6392 144.299 72.6526 144.268L73.4388 142.443C74.3675 142.298 75.2665 142.002 76.1003 141.567L77.8131 142.569C77.8424 142.586 77.8762 142.593 77.91 142.59C77.9437 142.587 77.9756 142.574 78.0013 142.552L79.8061 140.997C79.8319 140.975 79.8501 140.945 79.8582 140.912C79.8664 140.879 79.8642 140.844 79.8518 140.812L79.1189 138.966C79.6729 138.205 80.0992 137.359 80.3812 136.461L82.3009 135.956C82.3337 135.948 82.363 135.929 82.3848 135.903C82.4065 135.877 82.4195 135.844 82.422 135.811L82.6012 133.433C82.6037 133.399 82.5956 133.365 82.578 133.336C82.5603 133.307 82.5341 133.284 82.5029 133.271L80.6808 132.483C80.536 131.553 80.2408 130.653 79.8068 129.818L80.8068 128.102C80.8238 128.073 80.8313 128.039 80.8282 128.005C80.8251 127.971 80.8116 127.939 80.7895 127.913L79.2373 126.105C79.2151 126.079 79.1854 126.061 79.1524 126.053C79.1194 126.045 79.0847 126.047 79.0532 126.06L77.2096 126.794C76.4503 126.239 75.6058 125.812 74.7093 125.53L74.2048 123.607C74.1962 123.574 74.1775 123.545 74.1515 123.523C74.1254 123.501 74.0933 123.488 74.0595 123.486L71.6872 123.306Z" fill="#441346"></path><path d="M73.2563 136.194C72.7329 136.451 72.139 136.527 71.568 136.409C70.997 136.291 70.4813 135.987 70.1019 135.543C69.7225 135.1 69.5009 134.543 69.472 133.96C69.4431 133.376 69.6085 132.8 69.9422 132.321C70.1719 131.992 70.4739 131.719 70.8251 131.524C71.1762 131.33 71.5672 131.218 71.9681 131.198C72.369 131.178 72.769 131.251 73.1377 131.409C73.5064 131.568 73.8339 131.81 74.0951 132.115C74.3563 132.42 74.5443 132.781 74.6446 133.17C74.745 133.56 74.7551 133.967 74.6741 134.36C74.5932 134.754 74.4233 135.124 74.1775 135.442C73.9318 135.76 73.6167 136.017 73.2563 136.194ZM71.3788 132.398C71.1394 132.517 70.9335 132.694 70.7802 132.913C70.5557 133.232 70.4555 133.623 70.4984 134.012C70.5413 134.4 70.7245 134.76 71.0134 135.023C71.3023 135.285 71.6771 135.434 72.0673 135.439C72.4576 135.445 72.8364 135.307 73.1326 135.053C73.4289 134.798 73.6221 134.444 73.676 134.057C73.73 133.67 73.6409 133.276 73.4255 132.95C73.2101 132.624 72.8833 132.388 72.5064 132.287C72.1295 132.185 71.7285 132.225 71.3788 132.398Z" fill="#DFAFA2"></path><path d="M74.8613 139.506C73.4951 140.183 71.9291 140.337 70.4575 139.939C68.9859 139.541 67.7098 138.619 66.8688 137.346C66.0278 136.073 65.6797 134.536 65.8899 133.024C66.1 131.512 66.854 130.128 68.0102 129.134C68.3286 128.859 68.6736 128.618 69.0399 128.412L69.1092 128.375L69.5984 129.276C69.2713 129.455 68.9639 129.667 68.6815 129.911C67.8067 130.665 67.2059 131.688 66.9725 132.821C66.7392 133.953 66.8865 135.131 67.3916 136.171C67.8966 137.21 68.7309 138.053 69.7644 138.568C70.7979 139.084 71.9725 139.242 73.1051 139.018C74.2376 138.794 75.2645 138.201 76.0255 137.332C76.7865 136.463 77.2389 135.365 77.3121 134.212C77.3853 133.058 77.0752 131.912 76.4303 130.953C75.7853 129.994 74.8416 129.276 73.7465 128.91L74.0689 127.936C75.2457 128.329 76.2794 129.063 77.0388 130.045C77.7983 131.027 78.2492 132.213 78.3343 133.453C78.4194 134.692 78.135 135.929 77.517 137.006C76.899 138.084 75.9754 138.953 74.8634 139.503L74.8613 139.506Z" fill="#DFAFA2"></path><defs><linearGradient id="paint0_linear" x1="1541.89" y1="234.043" x2="1541.47" y2="235.949" gradientUnits="userSpaceOnUse"><stop stop-color="#A737D5"></stop><stop offset="1" stop-color="#EF497A"></stop></linearGradient><linearGradient id="paint1_linear" x1="168.205" y1="128.54" x2="79.4298" y2="238.27" gradientUnits="userSpaceOnUse"><stop stop-color="#5B315D"></stop><stop offset="1" stop-color="#2C102D"></stop></linearGradient><linearGradient id="paint2_linear" x1="181.936" y1="297.371" x2="189.547" y2="436.025" gradientUnits="userSpaceOnUse"><stop stop-color="#5B315D"></stop><stop offset="1" stop-color="#030323"></stop></linearGradient></defs></svg> 