<?xml version="1.0" encoding="UTF-8"?> <svg xmlns="http://www.w3.org/2000/svg" width="328" height="220" viewBox="0 0 328 220" fill="none"><path d="M315.765 104.808C307.495 92.4268 289.966 85.7939 289.511 67.2386C289.215 55.1815 294.319 48.6469 286.152 38.3553C266.409 13.4768 235.985 10.5617 210.008 20.9543C184.03 31.3469 180.714 32.8486 151.842 31.5941C136.119 30.9103 76.3011 19.8034 72.1116 20.9543C56.4067 25.2681 28.3564 32.9184 23.1347 50.9141C9.4684 95.8682 39.0811 83.3186 39.4546 109.558C29.9711 125.53 13.7567 149.397 10.2419 166.976C6.02331 188.074 22.1409 206.422 39.4546 206.995C50.4752 207.36 71.8496 216.456 81.2117 209.166C92.611 200.288 114.719 211.648 128.009 211.988C153.3 212.635 178.321 208.242 203.285 212.586C224.677 216.307 234.18 209.39 255.859 210.09C271.781 210.604 285.293 210.836 293.909 192.292C304.205 170.131 333.112 130.777 315.765 104.808Z" fill="#DFAFA2" fill-opacity="0.34"></path><path d="M90.5727 200.857C90.5606 202.096 90.7954 203.326 91.2635 204.474C91.7315 205.621 92.4234 206.664 93.2986 207.541C94.1738 208.417 95.2148 209.11 96.3607 209.579C97.5065 210.048 98.7342 210.283 99.9719 210.271H224.044C225.281 210.283 226.509 210.048 227.655 209.579C228.801 209.111 229.842 208.418 230.717 207.541C231.592 206.664 232.284 205.621 232.752 204.474C233.22 203.326 233.455 202.096 233.443 200.857C233.443 194.831 230.811 189.182 225.924 185.793C221.036 182.404 218.404 176.756 218.404 170.73C218.421 159.401 216.205 148.18 211.882 137.711C207.559 127.241 201.215 117.73 193.214 109.723L177.047 93.5301V82.2338L190.206 65.6641C191.376 64.1516 192.034 62.3049 192.085 60.392C192.066 58.2007 191.189 56.1045 189.642 54.5549C188.094 53.0053 186.002 52.1263 183.814 52.1072H165.769L158.249 59.6391L154.49 52.1072H140.203C138.015 52.1263 135.923 53.0053 134.375 54.5549C132.828 56.1045 131.951 58.2007 131.932 60.392C131.983 62.3052 132.641 64.1522 133.812 65.6647L146.971 82.2345V93.5308L130.804 109.724C122.802 117.731 116.458 127.242 112.135 137.711C107.813 148.18 105.596 159.401 105.614 170.731C105.614 176.756 102.982 182.404 98.0938 185.794C93.2058 189.183 90.5727 194.832 90.5727 200.857Z" fill="#441346"></path><path d="M90.5747 199.728V200.481C90.5624 201.721 90.7972 202.951 91.2652 204.099C91.7332 205.246 92.4251 206.289 93.3004 207.166C94.1756 208.042 95.2167 208.735 96.3626 209.204C97.5085 209.673 98.7362 209.908 99.9739 209.895H224.046C226.186 209.874 228.253 209.113 229.898 207.741C231.542 206.368 232.662 204.469 233.068 202.364H120.278C111.631 202.364 106.745 192.197 112.384 186.171C112.76 186.171 113.135 185.795 113.511 185.417C115.935 183.511 117.854 181.037 119.1 178.214C120.346 175.39 120.88 172.303 120.655 169.224C119.152 147.761 125.166 126.671 140.582 111.23L154.493 97.2968H180.811L177.052 93.5311H158.253V82.2348L145.094 65.6651C143.924 64.1526 143.266 62.3059 143.214 60.393C143.24 59.3454 143.497 58.3165 143.967 57.3803C144.718 55.121 143.214 52.1082 140.583 52.1082C137.575 52.1082 134.567 53.2378 133.063 55.8738C131.184 59.2627 131.56 63.0297 133.815 65.6651L146.975 82.2348V93.5311L132.688 107.465C116.145 124.409 105.241 146.63 105.621 170.355C105.646 173.336 104.98 176.282 103.675 178.961C102.37 181.641 100.462 183.98 98.1011 185.795C93.5846 189.183 90.5747 194.079 90.5747 199.728Z" fill="#030323"></path><path d="M139.453 87.8813C139.489 86.3948 140.095 84.9792 141.145 83.9278C142.195 82.8764 143.608 82.2696 145.092 82.2332H178.929C180.414 82.2696 181.827 82.8764 182.876 83.9278C183.926 84.9792 184.532 86.3948 184.568 87.8813C184.532 89.3678 183.926 90.7834 182.876 91.8348C181.827 92.8863 180.414 93.4931 178.929 93.5295H145.091C143.607 93.4929 142.194 92.8861 141.145 91.8347C140.095 90.7832 139.489 89.3677 139.453 87.8813Z" fill="#FFB8A5"></path><path d="M139.451 87.8807C139.488 89.3673 140.093 90.7829 141.143 91.8343C142.193 92.8858 143.606 93.4925 145.09 93.5289H178.927C180.084 93.5159 181.209 93.1479 182.15 92.4746C183.092 91.8012 183.804 90.8549 184.192 89.7632H150.73C150.228 89.7936 149.726 89.717 149.256 89.5385C148.786 89.36 148.359 89.0837 148.004 88.7277C147.649 88.3718 147.373 87.9444 147.195 87.4738C147.016 87.0032 146.94 86.5 146.97 85.9976V82.2319H145.09C143.606 82.2682 142.192 82.875 141.143 83.9266C140.093 84.9782 139.487 86.3941 139.451 87.8807Z" fill="#E89E8A"></path><path d="M158.25 93.53H165.77V123.657H158.25V93.53Z" fill="#FFB8A5"></path><path d="M158.25 93.5302V123.657H162.01V97.2958H165.769V93.5295L158.25 93.5302Z" fill="#E89E8A"></path><path d="M162.009 180.144C178.621 180.144 192.087 166.656 192.087 150.018C192.087 133.379 178.621 119.891 162.009 119.891C145.398 119.891 131.932 133.379 131.932 150.018C131.932 166.656 145.398 180.144 162.009 180.144Z" fill="#E89E8A"></path><path d="M128.172 153.784C128.195 161.767 131.372 169.416 137.008 175.061C142.643 180.706 150.28 183.887 158.25 183.911C162.64 183.892 166.971 182.904 170.935 181.016C174.9 179.129 178.399 176.388 181.184 172.99C175.885 177.649 169.062 180.195 162.012 180.145C154.042 180.122 146.405 176.94 140.769 171.295C135.133 165.651 131.957 158.001 131.933 150.018C131.884 142.957 134.426 136.122 139.077 130.815C132.308 136.085 128.173 144.37 128.172 153.784Z" fill="#030323"></path><path d="M180.62 168.659C190.898 158.364 190.898 141.673 180.62 131.379C170.342 121.084 153.679 121.084 143.401 131.379C133.123 141.673 133.123 158.364 143.401 168.659C153.679 178.953 170.342 178.953 180.62 168.659Z" fill="#FFB8A5"></path><path d="M165.769 146.252H158.249C157.252 146.252 156.296 145.855 155.591 145.149C154.886 144.443 154.49 143.485 154.49 142.486C154.49 141.488 154.886 140.53 155.591 139.824C156.296 139.118 157.252 138.721 158.249 138.721H169.527C170.525 138.721 171.481 138.324 172.186 137.618C172.891 136.912 173.287 135.954 173.287 134.955C173.287 133.956 172.891 132.999 172.186 132.292C171.481 131.586 170.525 131.189 169.527 131.189H165.768C165.768 130.191 165.372 129.233 164.667 128.527C163.962 127.821 163.005 127.424 162.008 127.424C161.011 127.424 160.055 127.821 159.35 128.527C158.645 129.233 158.249 130.191 158.249 131.189C155.258 131.189 152.389 132.38 150.274 134.498C148.159 136.617 146.971 139.49 146.971 142.486C146.971 145.482 148.159 148.355 150.274 150.474C152.389 152.592 155.258 153.782 158.249 153.782H165.769C166.766 153.782 167.722 154.179 168.427 154.885C169.132 155.591 169.528 156.549 169.528 157.548C169.528 158.547 169.132 159.504 168.427 160.211C167.722 160.917 166.766 161.313 165.769 161.313H154.491C153.493 161.313 152.537 161.71 151.832 162.416C151.127 163.123 150.731 164.08 150.731 165.079C150.731 166.078 151.127 167.036 151.832 167.742C152.537 168.448 153.493 168.845 154.491 168.845H158.25C158.25 169.843 158.646 170.801 159.351 171.508C160.056 172.214 161.013 172.61 162.01 172.61C163.007 172.61 163.963 172.214 164.668 171.508C165.373 170.801 165.769 169.843 165.769 168.845C168.76 168.845 171.629 167.655 173.744 165.536C175.859 163.418 177.047 160.544 177.047 157.548C177.047 154.552 175.859 151.679 173.744 149.561C171.629 147.442 168.76 146.252 165.769 146.252Z" fill="#441346"></path><path d="M108.607 201.191C90.0577 201.191 75.0195 197.358 75.0195 193.427V202.479C75.0301 206.408 90.0631 210.249 108.607 210.249C127.152 210.249 142.185 206.408 142.195 202.479V193.427C142.195 197.358 127.157 201.191 108.607 201.191Z" fill="#E89E8A"></path><path d="M104.732 186.958C86.1827 186.958 71.1445 183.125 71.1445 179.194V188.247C71.1551 192.175 86.188 196.015 104.732 196.015C123.277 196.015 138.31 192.174 138.32 188.247V179.194C138.32 183.125 123.282 186.958 104.732 186.958Z" fill="#E89E8A"></path><path d="M112.484 172.724C93.9347 172.724 78.8965 168.891 78.8965 164.96V174.013C78.9071 177.941 93.94 181.782 112.484 181.782C131.029 181.782 146.062 177.941 146.072 174.013V164.96C146.072 168.891 131.034 172.724 112.484 172.724Z" fill="#E89E8A"></path><path d="M104.732 157.196C86.1827 157.196 71.1445 153.364 71.1445 149.433V158.485C71.1551 162.413 86.188 166.255 104.732 166.255C123.277 166.255 138.31 162.414 138.32 158.485V149.433C138.32 153.364 123.282 157.196 104.732 157.196Z" fill="#E89E8A"></path><path d="M76.3125 153.414V162.465C77.098 162.755 77.9593 163.033 78.8965 163.301V154.249C77.9584 153.983 77.0971 153.705 76.3125 153.414Z" fill="#DC7567"></path><path d="M130.57 154.248V163.298C131.508 163.032 132.37 162.753 133.154 162.462V153.411C132.369 153.701 131.507 153.979 130.57 154.245" fill="#DC7567"></path><path d="M82.7715 155.187V164.241C83.5985 164.413 84.4599 164.576 85.3555 164.73V155.676C84.4603 155.523 83.599 155.36 82.7715 155.187Z" fill="#DC7567"></path><path d="M124.111 155.676V164.731C125.006 164.576 125.868 164.413 126.695 164.241V155.187C125.868 155.359 125.006 155.522 124.111 155.676Z" fill="#DC7567"></path><path d="M89.2305 156.253V165.308C90.073 165.417 90.9321 165.518 91.8138 165.608V156.553C90.9314 156.463 90.0723 156.361 89.2305 156.253Z" fill="#DC7567"></path><path d="M117.652 156.554V165.609C118.535 165.517 119.394 165.416 120.236 165.309V156.252C119.394 156.362 118.535 156.463 117.652 156.553" fill="#DC7567"></path><path d="M95.6895 156.887V165.943C96.5382 166.003 97.3995 166.054 98.2735 166.098V157.041C97.3991 156.997 96.5377 156.945 95.6895 156.887Z" fill="#DC7567"></path><path d="M111.191 157.041V166.098C112.066 166.054 112.929 166.002 113.779 165.943V156.887C112.93 156.946 112.068 156.998 111.191 157.041Z" fill="#DC7567"></path><path d="M104.733 157.199C104.301 157.199 103.871 157.195 103.441 157.191V166.249C103.871 166.253 104.304 166.257 104.733 166.257C105.162 166.257 105.596 166.253 106.025 166.249V157.191C105.596 157.195 105.166 157.199 104.733 157.199Z" fill="#DC7567"></path><path d="M84.0645 168.94V177.991C84.8499 178.281 85.7112 178.559 86.6484 178.827V169.775C85.7104 169.509 84.8491 169.231 84.0645 168.94Z" fill="#DC7567"></path><path d="M138.32 169.775V178.827C139.258 178.561 140.12 178.282 140.904 177.991V168.94C140.118 169.23 139.257 169.508 138.32 169.775Z" fill="#DC7567"></path><path d="M90.5234 170.714V179.768C91.3505 179.94 92.2116 180.103 93.1068 180.257V171.203C92.2116 171.05 91.3505 170.887 90.5234 170.714Z" fill="#DC7567"></path><path d="M131.861 171.203V180.258C132.756 180.103 133.618 179.94 134.445 179.768V170.714C133.618 170.887 132.756 171.05 131.861 171.203Z" fill="#DC7567"></path><path d="M96.9824 171.781V180.836C97.825 180.945 98.6834 181.046 99.5664 181.137V172.082C98.684 171.99 97.825 171.889 96.9824 171.781Z" fill="#DC7567"></path><path d="M125.402 172.08V181.137C126.285 181.045 127.144 180.944 127.986 180.836V171.781C127.144 171.89 126.285 171.991 125.402 172.08Z" fill="#DC7567"></path><path d="M103.441 172.415V181.471C104.29 181.53 105.15 181.584 106.025 181.627V172.569C105.151 172.525 104.29 172.473 103.441 172.415Z" fill="#DC7567"></path><path d="M118.943 172.568V181.626C119.818 181.583 120.678 181.53 121.527 181.47V172.414C120.679 172.473 119.817 172.525 118.943 172.568Z" fill="#DC7567"></path><path d="M112.484 172.726C112.051 172.726 111.621 172.722 111.191 172.718V181.776C111.621 181.78 112.054 181.784 112.484 181.784C112.914 181.784 113.346 181.78 113.776 181.776V172.718C113.347 172.722 112.914 172.726 112.484 172.726Z" fill="#DC7567"></path><path d="M76.3125 183.173V192.224C77.098 192.514 77.9593 192.793 78.8965 193.06V184.008C77.9584 183.742 77.0971 183.464 76.3125 183.173Z" fill="#DC7567"></path><path d="M130.57 184.008V193.06C131.508 192.794 132.37 192.516 133.154 192.224V183.173C132.369 183.463 131.507 183.742 130.57 184.008Z" fill="#DC7567"></path><path d="M82.7715 184.948V194.001C83.5985 194.174 84.4599 194.337 85.3555 194.49V185.437C84.4603 185.283 83.599 185.12 82.7715 184.948Z" fill="#DC7567"></path><path d="M124.111 185.437V194.492C125.006 194.337 125.868 194.173 126.695 194.001V184.948C125.868 185.12 125.006 185.283 124.111 185.437Z" fill="#DC7567"></path><path d="M89.2305 186.015V195.069C90.073 195.177 90.9321 195.278 91.8138 195.37V186.315C90.9314 186.222 90.0723 186.122 89.2305 186.014" fill="#DC7567"></path><path d="M117.652 186.314V195.37C118.535 195.278 119.394 195.177 120.236 195.07V186.015C119.394 186.123 118.535 186.224 117.652 186.314Z" fill="#DC7567"></path><path d="M95.6895 186.647V195.704C96.5382 195.763 97.3995 195.815 98.2735 195.859V186.801C97.3991 186.757 96.5377 186.706 95.6895 186.648" fill="#DC7567"></path><path d="M111.191 186.801V195.859C112.066 195.815 112.929 195.763 113.779 195.704V186.647C112.93 186.707 112.068 186.758 111.191 186.801" fill="#DC7567"></path><path d="M104.733 186.959C104.301 186.959 103.871 186.956 103.441 186.951V196.009C103.871 196.013 104.304 196.017 104.733 196.017C105.162 196.017 105.596 196.013 106.025 196.009V186.951C105.596 186.955 105.166 186.959 104.733 186.959Z" fill="#DC7567"></path><path d="M80.1875 197.407V206.458C80.973 206.748 81.8343 207.026 82.7715 207.294V198.241C81.8334 197.976 80.9721 197.697 80.1875 197.407Z" fill="#DC7567"></path><path d="M134.445 198.241V207.294C135.383 207.028 136.245 206.749 137.029 206.458V197.407C136.243 197.696 135.382 197.975 134.445 198.241Z" fill="#DC7567"></path><path d="M86.6465 199.181V208.235C87.4735 208.406 88.3346 208.57 89.2298 208.724V199.67C88.3346 199.516 87.4735 199.353 86.6465 199.181Z" fill="#DC7567"></path><path d="M127.986 199.67V208.725C128.881 208.57 129.743 208.406 130.57 208.235V199.181C129.743 199.353 128.881 199.516 127.986 199.67Z" fill="#DC7567"></path><path d="M93.1055 200.248V209.306C93.948 209.415 94.8071 209.516 95.6888 209.606V200.551C94.8064 200.459 93.9473 200.358 93.1055 200.251" fill="#DC7567"></path><path d="M121.527 200.547V209.603C122.41 209.511 123.269 209.411 124.111 209.303V200.248C123.269 200.357 122.41 200.458 121.527 200.547Z" fill="#DC7567"></path><path d="M99.5664 200.881V209.937C100.415 209.997 101.276 210.049 102.15 210.092V201.035C101.275 200.99 100.414 200.939 99.5664 200.881" fill="#DC7567"></path><path d="M115.07 201.035V210.092C115.945 210.048 116.806 209.996 117.654 209.937V200.881C116.805 200.94 115.944 200.991 115.07 201.034" fill="#DC7567"></path><path d="M108.608 201.191C108.176 201.191 107.746 201.187 107.316 201.183V210.241C107.745 210.245 108.176 210.249 108.608 210.249C109.041 210.249 109.471 210.245 109.9 210.241V201.183C109.471 201.187 109.041 201.191 108.608 201.191Z" fill="#DC7567"></path><path d="M138.322 149.601C138.322 153.531 123.284 157.197 104.734 157.197C86.1847 157.197 71.1465 153.531 71.1465 149.601C71.1465 145.671 86.1847 142.963 104.734 142.963C123.284 142.963 138.322 145.67 138.322 149.601Z" fill="#FFB8A5"></path><path d="M112.484 181.782C95.4148 181.782 81.3299 178.526 79.1877 174.946C74.1763 176.083 71.1445 177.599 71.1445 179.362C71.1445 183.292 86.1828 186.957 104.732 186.957C123.282 186.957 138.32 183.292 138.32 179.362C138.317 179.188 138.284 179.015 138.223 178.851C132.062 180.588 122.821 181.782 112.483 181.782" fill="#FFB8A5"></path><path d="M137.303 190.026C133.635 193.258 120.446 196.015 104.734 196.015C92.4487 196.015 81.7094 194.329 75.8534 192.049C75.6134 192.233 75.4151 192.466 75.2717 192.733C75.1283 192.999 75.043 193.293 75.0215 193.595C75.0215 197.527 90.0597 201.19 108.609 201.19C127.159 201.19 142.197 197.527 142.197 193.595C142.197 192.241 140.406 191.029 137.304 190.026" fill="#FFB8A5"></path><path d="M137.02 160.494C133.001 163.625 120.072 166.254 104.733 166.254C94.827 166.254 85.9253 165.156 79.7775 163.536C79.5248 163.723 79.3153 163.962 79.1632 164.238C79.0112 164.513 78.9202 164.818 78.8965 165.131C78.8965 169.062 93.9347 172.726 112.484 172.726C131.034 172.726 146.072 169.062 146.072 165.131C146.072 163.252 142.632 161.655 137.021 160.498" fill="#FFB8A5"></path><path d="M274.402 77.9999L223.887 98.8112L237.999 110.139C225.652 126.033 210.221 145.981 209.853 146.882C209.236 148.389 192.417 122.146 192.417 122.146L160.44 167.026L144.983 150.839L119.5 187.033L144.678 165.19L161.694 182.767L190.776 145.371L208.18 172.518L251.925 121.323L267.092 133.498L274.402 77.9999Z" fill="#DFAFA2"></path><path d="M208.107 172.157L252.817 121.534L249.63 118.554L208.107 172.157Z" fill="#DC7567"></path><path d="M161.631 182.127L192.754 147.969L190.454 144.413L161.631 182.127Z" fill="#DC7567"></path><path d="M144.692 164.538L119.682 186.488L146.574 166.741L144.692 164.538Z" fill="#DC7567"></path><path d="M232.613 85.3063L214.868 103.08L197.123 85.3063H205.337V78.6482H224.398V85.305L232.613 85.3063Z" fill="#441346"></path><path d="M224.398 71.188H205.338V74.8473H224.398V71.188Z" fill="#441346"></path><path d="M224.398 75.4314H205.338V77.2607H224.398V75.4314Z" fill="#441346"></path><path d="M206.251 44.8708H205.792C205.541 44.8708 205.338 45.0743 205.338 45.3254V68.231C205.338 68.482 205.541 68.6855 205.792 68.6855H206.251C206.501 68.6855 206.705 68.482 206.705 68.231V45.3254C206.705 45.0743 206.501 44.8708 206.251 44.8708Z" fill="#441346"></path><path d="M223.944 48.0159H223.485C223.234 48.0159 223.031 48.2194 223.031 48.4704V63.3662C223.031 63.6173 223.234 63.8208 223.485 63.8208H223.944C224.195 63.8208 224.398 63.6173 224.398 63.3662V48.4704C224.398 48.2194 224.195 48.0159 223.944 48.0159Z" fill="#441346"></path><path d="M219.807 51.3179H219.348C219.098 51.3179 218.895 51.5214 218.895 51.7724V66.6682C218.895 66.9193 219.098 67.1228 219.348 67.1228H219.807C220.058 67.1228 220.261 66.9193 220.261 66.6682V51.7724C220.261 51.5214 220.058 51.3179 219.807 51.3179Z" fill="#441346"></path><path d="M215.782 44.2417H215.323C215.072 44.2417 214.869 44.4452 214.869 44.6962V59.5921C214.869 59.8431 215.072 60.0466 215.323 60.0466H215.782C216.033 60.0466 216.236 59.8431 216.236 59.5921V44.6962C216.236 44.4452 216.033 44.2417 215.782 44.2417Z" fill="#441346"></path><path d="M215.323 65.3425H215.782C215.902 65.3425 216.018 65.3904 216.103 65.4757C216.188 65.5609 216.236 65.6765 216.236 65.797V71.19H214.869V65.797C214.869 65.6765 214.917 65.5609 215.002 65.4757C215.087 65.3904 215.203 65.3425 215.323 65.3425V65.3425Z" fill="#441346"></path><path d="M215.782 60.6252H215.323C215.072 60.6252 214.869 60.8287 214.869 61.0798V63.3656C214.869 63.6166 215.072 63.8201 215.323 63.8201H215.782C216.033 63.8201 216.236 63.6166 216.236 63.3656V61.0798C216.236 60.8287 216.033 60.6252 215.782 60.6252Z" fill="#441346"></path><path d="M212.485 65.5254H212.026C211.775 65.5254 211.572 65.7289 211.572 65.9799V68.2657C211.572 68.5168 211.775 68.7203 212.026 68.7203H212.485C212.736 68.7203 212.939 68.5168 212.939 68.2657V65.9799C212.939 65.7289 212.736 65.5254 212.485 65.5254Z" fill="#441346"></path><path d="M212.485 48.0159H212.026C211.775 48.0159 211.572 48.2194 211.572 48.4704V63.3662C211.572 63.6173 211.775 63.8208 212.026 63.8208H212.485C212.736 63.8208 212.939 63.6173 212.939 63.3662V48.4704C212.939 48.2194 212.736 48.0159 212.485 48.0159Z" fill="#441346"></path><path d="M209.368 54.4629H208.909C208.658 54.4629 208.455 54.6664 208.455 54.9174V69.8133C208.455 70.0643 208.658 70.2678 208.909 70.2678H209.368C209.619 70.2678 209.822 70.0643 209.822 69.8133V54.9174C209.822 54.6664 209.619 54.4629 209.368 54.4629Z" fill="#441346"></path><path d="M126.066 41.1797L108.321 58.9535L90.5762 41.1797H98.7905V34.5222H117.851V41.179L126.066 41.1797Z" fill="#441346"></path><path d="M117.851 27.0605H98.791V30.7199H117.851V27.0605Z" fill="#441346"></path><path d="M117.851 31.304H98.791V33.1333H117.851V31.304Z" fill="#441346"></path><path d="M99.7039 0.743408H99.2448C98.9942 0.743408 98.791 0.9469 98.791 1.19792V24.1035C98.791 24.3546 98.9942 24.5581 99.2448 24.5581H99.7039C99.9545 24.5581 100.158 24.3546 100.158 24.1035V1.19792C100.158 0.9469 99.9545 0.743408 99.7039 0.743408Z" fill="#441346"></path><path d="M117.397 3.88843H116.938C116.688 3.88843 116.484 4.09192 116.484 4.34294V19.2388C116.484 19.4898 116.688 19.6933 116.938 19.6933H117.397C117.648 19.6933 117.851 19.4898 117.851 19.2388V4.34294C117.851 4.09192 117.648 3.88843 117.397 3.88843Z" fill="#441346"></path><path d="M113.261 7.19043H112.801C112.551 7.19043 112.348 7.39392 112.348 7.64494V22.5408C112.348 22.7918 112.551 22.9953 112.801 22.9953H113.261C113.511 22.9953 113.714 22.7918 113.714 22.5408V7.64494C113.714 7.39392 113.511 7.19043 113.261 7.19043Z" fill="#441346"></path><path d="M109.233 0.114014H108.774C108.523 0.114014 108.32 0.317505 108.32 0.568525V15.4644C108.32 15.7154 108.523 15.9189 108.774 15.9189H109.233C109.484 15.9189 109.687 15.7154 109.687 15.4644V0.568525C109.687 0.317505 109.484 0.114014 109.233 0.114014Z" fill="#441346"></path><path d="M108.774 21.2151H109.233C109.354 21.2151 109.469 21.263 109.554 21.3482C109.639 21.4334 109.687 21.5491 109.687 21.6696V27.0626H108.32V21.6696C108.32 21.5491 108.368 21.4334 108.453 21.3482C108.538 21.263 108.654 21.2151 108.774 21.2151V21.2151Z" fill="#441346"></path><path d="M109.233 16.498H108.774C108.523 16.498 108.32 16.7015 108.32 16.9526V19.2384C108.32 19.4894 108.523 19.6929 108.774 19.6929H109.233C109.484 19.6929 109.687 19.4894 109.687 19.2384V16.9526C109.687 16.7015 109.484 16.498 109.233 16.498Z" fill="#441346"></path><path d="M105.936 21.3979H105.477C105.227 21.3979 105.023 21.6014 105.023 21.8525V24.1383C105.023 24.3893 105.227 24.5928 105.477 24.5928H105.936C106.187 24.5928 106.39 24.3893 106.39 24.1383V21.8525C106.39 21.6014 106.187 21.3979 105.936 21.3979Z" fill="#441346"></path><path d="M105.936 3.88843H105.477C105.227 3.88843 105.023 4.09192 105.023 4.34294V19.2388C105.023 19.4898 105.227 19.6933 105.477 19.6933H105.936C106.187 19.6933 106.39 19.4898 106.39 19.2388V4.34294C106.39 4.09192 106.187 3.88843 105.936 3.88843Z" fill="#441346"></path><path d="M102.821 10.3354H102.362C102.111 10.3354 101.908 10.5389 101.908 10.79V25.6858C101.908 25.9368 102.111 26.1403 102.362 26.1403H102.821C103.072 26.1403 103.275 25.9368 103.275 25.6858V10.79C103.275 10.5389 103.072 10.3354 102.821 10.3354Z" fill="#441346"></path><path d="M199.981 29.9792L192.092 37.8812L184.201 29.9792H187.85V27.0195H196.324V29.9792H199.981Z" fill="#441346"></path><path d="M196.328 23.7017H187.854V25.3283H196.328V23.7017Z" fill="#441346"></path><path d="M196.328 25.5881H187.854V26.4015H196.328V25.5881Z" fill="#441346"></path><path d="M188.248 12.0007H188.066C187.949 12.0007 187.854 12.0962 187.854 12.214V22.3754C187.854 22.4932 187.949 22.5887 188.066 22.5887H188.248C188.366 22.5887 188.461 22.4932 188.461 22.3754V12.214C188.461 12.0962 188.366 12.0007 188.248 12.0007Z" fill="#441346"></path><path d="M196.115 13.3992H195.934C195.816 13.3992 195.721 13.4947 195.721 13.6125V20.2122C195.721 20.33 195.816 20.4255 195.934 20.4255H196.115C196.233 20.4255 196.328 20.33 196.328 20.2122V13.6125C196.328 13.4947 196.233 13.3992 196.115 13.3992Z" fill="#441346"></path><path d="M194.276 14.8679H194.094C193.976 14.8679 193.881 14.9634 193.881 15.0812V21.6809C193.881 21.7987 193.976 21.8942 194.094 21.8942H194.276C194.393 21.8942 194.489 21.7987 194.489 21.6809V15.0812C194.489 14.9634 194.393 14.8679 194.276 14.8679Z" fill="#441346"></path><path d="M192.487 11.7214H192.305C192.187 11.7214 192.092 11.8169 192.092 11.9347V18.5344C192.092 18.6522 192.187 18.7477 192.305 18.7477H192.487C192.604 18.7477 192.699 18.6522 192.699 18.5344V11.9347C192.699 11.8169 192.604 11.7214 192.487 11.7214Z" fill="#441346"></path><path d="M192.305 21.1028H192.487C192.543 21.1028 192.597 21.1253 192.637 21.1653C192.677 21.2053 192.699 21.2595 192.699 21.3161V23.7016H192.092V21.3161C192.092 21.2595 192.114 21.2053 192.154 21.1653C192.194 21.1253 192.248 21.1028 192.305 21.1028V21.1028Z" fill="#441346"></path><path d="M192.487 19.0056H192.305C192.187 19.0056 192.092 19.1011 192.092 19.2189V20.213C192.092 20.3308 192.187 20.4263 192.305 20.4263H192.487C192.604 20.4263 192.699 20.3308 192.699 20.213V19.2189C192.699 19.1011 192.604 19.0056 192.487 19.0056Z" fill="#441346"></path><path d="M191.02 21.1838H190.838C190.72 21.1838 190.625 21.2793 190.625 21.3971V22.3912C190.625 22.509 190.72 22.6045 190.838 22.6045H191.02C191.137 22.6045 191.233 22.509 191.233 22.3912V21.3971C191.233 21.2793 191.137 21.1838 191.02 21.1838Z" fill="#441346"></path><path d="M191.02 13.3992H190.838C190.72 13.3992 190.625 13.4947 190.625 13.6125V20.2122C190.625 20.33 190.72 20.4255 190.838 20.4255H191.02C191.137 20.4255 191.233 20.33 191.233 20.2122V13.6125C191.233 13.4947 191.137 13.3992 191.02 13.3992Z" fill="#441346"></path><path d="M189.635 16.2659H189.453C189.336 16.2659 189.24 16.3614 189.24 16.4792V23.0789C189.24 23.1967 189.336 23.2922 189.453 23.2922H189.635C189.753 23.2922 189.848 23.1967 189.848 23.0789V16.4792C189.848 16.3614 189.753 16.2659 189.635 16.2659Z" fill="#441346"></path><path d="M77.2312 78.7765L65.7064 90.32L54.1816 78.7765H59.5168V74.4526H71.896V78.7765H77.2312Z" fill="#441346"></path><path d="M71.8968 69.6064H59.5176V71.9827H71.8968V69.6064Z" fill="#441346"></path><path d="M71.8968 72.3621H59.5176V73.5502H71.8968V72.3621Z" fill="#441346"></path><path d="M60.0941 52.5139H59.8287C59.6569 52.5139 59.5176 52.6534 59.5176 52.8256V67.6689C59.5176 67.8411 59.6569 67.9806 59.8287 67.9806H60.0941C60.2659 67.9806 60.4052 67.8411 60.4052 67.6689V52.8256C60.4052 52.6534 60.2659 52.5139 60.0941 52.5139Z" fill="#441346"></path><path d="M71.5843 54.5571H71.319C71.1471 54.5571 71.0078 54.6967 71.0078 54.8688V64.5098C71.0078 64.682 71.1471 64.8215 71.319 64.8215H71.5843C71.7562 64.8215 71.8955 64.682 71.8955 64.5098V54.8688C71.8955 54.6967 71.7562 54.5571 71.5843 54.5571Z" fill="#441346"></path><path d="M68.8988 56.7017H68.6334C68.4616 56.7017 68.3223 56.8412 68.3223 57.0133V66.6551C68.3223 66.8272 68.4616 66.9667 68.6334 66.9667H68.8988C69.0706 66.9667 69.2099 66.8272 69.2099 66.6551V57.0133C69.2099 56.8412 69.0706 56.7017 68.8988 56.7017Z" fill="#441346"></path><path d="M66.2835 52.106H66.0182C65.8463 52.106 65.707 52.2455 65.707 52.4176V62.0587C65.707 62.2308 65.8463 62.3703 66.0182 62.3703H66.2835C66.4554 62.3703 66.5947 62.2308 66.5947 62.0587V52.4176C66.5947 52.2455 66.4554 52.106 66.2835 52.106Z" fill="#441346"></path><path d="M66.0182 65.8103H66.2835C66.3244 65.8103 66.3649 65.8184 66.4026 65.834C66.4404 65.8497 66.4747 65.8726 66.5035 65.9016C66.5324 65.9305 66.5554 65.9649 66.571 66.0027C66.5866 66.0405 66.5947 66.081 66.5947 66.1219V69.6065H65.707V66.1219C65.707 66.0393 65.7398 65.96 65.7982 65.9016C65.8565 65.8431 65.9357 65.8103 66.0182 65.8103V65.8103Z" fill="#441346"></path><path d="M66.2835 62.7463H66.0182C65.8463 62.7463 65.707 62.8859 65.707 63.058V64.5099C65.707 64.682 65.8463 64.8215 66.0182 64.8215H66.2835C66.4554 64.8215 66.5947 64.682 66.5947 64.5099V63.058C66.5947 62.8859 66.4554 62.7463 66.2835 62.7463Z" fill="#441346"></path><path d="M64.141 65.9287H63.8756C63.7038 65.9287 63.5645 66.0682 63.5645 66.2404V67.6923C63.5645 67.8644 63.7038 68.0039 63.8756 68.0039H64.141C64.3128 68.0039 64.4521 67.8644 64.4521 67.6923V66.2404C64.4521 66.0682 64.3128 65.9287 64.141 65.9287Z" fill="#441346"></path><path d="M64.141 54.5571H63.8756C63.7038 54.5571 63.5645 54.6967 63.5645 54.8688V64.5098C63.5645 64.682 63.7038 64.8215 63.8756 64.8215H64.141C64.3128 64.8215 64.4521 64.682 64.4521 64.5098V54.8688C64.4521 54.6967 64.3128 54.5571 64.141 54.5571Z" fill="#441346"></path><path d="M62.1175 58.7441H61.8522C61.6803 58.7441 61.541 58.8837 61.541 59.0558V68.6969C61.541 68.869 61.6803 69.0085 61.8522 69.0085H62.1175C62.2894 69.0085 62.4287 68.869 62.4287 68.6969V59.0558C62.4287 58.8837 62.2894 58.7441 62.1175 58.7441Z" fill="#441346"></path></svg> 