<?xml version="1.0" encoding="UTF-8"?> <svg xmlns="http://www.w3.org/2000/svg" width="328" height="220" viewBox="0 0 328 220" fill="none"><path d="M313.608 96.7903C305.386 84.5009 287.96 77.9128 287.507 59.4994C287.213 47.5316 292.288 41.0456 284.168 30.8312C264.54 6.13792 234.295 3.24447 208.466 13.5595C182.638 23.8745 162.016 44.5425 133.312 43.2969C117.681 42.6185 103.157 34.6767 87.6842 33.1863C82.917 32.7247 73.423 31.4552 69.2601 32.5928C53.647 36.8744 44.899 54.6217 39.7081 72.4828C35.4999 86.9624 40.8762 101.252 34.2675 115.431C27.2251 130.544 13.3555 141.041 9.86109 158.49C5.66683 179.428 21.6904 197.646 38.9036 198.212C49.8599 198.574 71.1099 207.603 80.4176 200.366C91.7507 191.554 113.73 202.829 126.942 203.169C152.084 203.811 176.962 199.451 201.781 203.762C223.049 207.455 232.495 200.59 254.048 201.285C269.876 201.795 283.313 202.027 291.876 183.62C302.116 161.627 330.853 122.563 313.608 96.7903Z" fill="#DFAFA2" fill-opacity="0.34"></path><path d="M100.794 165.983C106.929 173.17 114.248 179.254 122.435 183.971C122.668 184.106 122.925 184.193 123.192 184.227C123.459 184.26 123.731 184.24 123.99 184.167C124.249 184.095 124.491 183.971 124.702 183.803C124.912 183.636 125.087 183.428 125.216 183.191L127.645 178.731C127.895 178.27 128.315 177.925 128.816 177.769C129.317 177.614 129.859 177.66 130.326 177.898C137.924 181.768 146.128 184.31 154.583 185.413C155.102 185.482 155.574 185.751 155.898 186.162C156.223 186.574 156.374 187.095 156.32 187.617L155.804 192.645C155.777 192.913 155.804 193.184 155.883 193.441C155.962 193.699 156.092 193.938 156.265 194.144C156.438 194.351 156.65 194.521 156.89 194.644C157.129 194.767 157.391 194.841 157.66 194.861C167.083 195.602 176.563 194.73 185.693 192.285C185.95 192.215 186.191 192.094 186.402 191.93C186.613 191.766 186.788 191.561 186.919 191.328C187.05 191.095 187.133 190.839 187.164 190.574C187.195 190.308 187.172 190.04 187.098 189.783L185.658 184.909C185.509 184.406 185.562 183.864 185.806 183.399C186.051 182.935 186.467 182.584 186.967 182.422C195.074 179.796 202.665 175.788 209.407 170.577C209.823 170.257 210.348 170.113 210.869 170.175C211.39 170.236 211.866 170.499 212.196 170.906L215.411 174.851C215.58 175.058 215.789 175.23 216.025 175.356C216.262 175.482 216.521 175.559 216.788 175.584C217.054 175.608 217.323 175.579 217.579 175.498C217.834 175.418 218.071 175.287 218.275 175.114C225.469 168.978 231.551 161.647 236.253 153.444C236.387 153.211 236.473 152.954 236.506 152.687C236.539 152.421 236.518 152.15 236.445 151.892C236.372 151.633 236.249 151.392 236.081 151.181C235.914 150.971 235.706 150.797 235.471 150.668L231.01 148.238C230.548 147.988 230.203 147.566 230.048 147.064C229.892 146.562 229.94 146.02 230.179 145.552C234.063 137.968 236.61 129.771 237.709 121.321C237.779 120.803 238.048 120.332 238.46 120.009C238.871 119.686 239.392 119.536 239.912 119.59L244.941 120.106C245.209 120.133 245.479 120.106 245.737 120.027C245.994 119.948 246.233 119.818 246.44 119.645C246.646 119.473 246.816 119.26 246.939 119.02C247.062 118.781 247.136 118.519 247.156 118.25C247.944 108.133 246.876 97.9575 244.004 88.2245L243.978 88.2459L241.45 88.9681L237.183 90.226C236.679 90.3747 236.138 90.3211 235.673 90.0764C235.209 89.8317 234.858 89.4154 234.696 88.9161C232.077 80.8183 228.075 73.235 222.868 66.5022C222.548 66.086 222.404 65.5615 222.466 65.0404C222.527 64.5192 222.79 64.0428 223.198 63.7126L227.143 60.4977C227.351 60.3287 227.524 60.1197 227.651 59.883C227.777 59.6463 227.855 59.3867 227.88 59.1195C227.904 58.8522 227.875 58.5828 227.794 58.3269C227.713 58.0711 227.582 57.8341 227.408 57.6298C221.264 50.4278 213.926 44.3383 205.714 39.6286C205.481 39.4947 205.224 39.4087 204.957 39.3756C204.691 39.3426 204.42 39.363 204.161 39.4359C203.903 39.5088 203.661 39.6325 203.451 39.8C203.241 39.9674 203.067 40.1751 202.938 40.4109L200.508 44.8706C200.258 45.3321 199.836 45.6773 199.335 45.8325C198.833 45.9878 198.29 45.9408 197.823 45.7015C190.246 41.8267 182.057 39.2889 173.617 38.2C173.097 38.1311 172.625 37.8624 172.3 37.451C171.976 37.0396 171.824 36.5178 171.878 35.9965L172.395 30.968C172.422 30.7 172.395 30.4293 172.316 30.1718C172.237 29.9143 172.107 29.6753 171.934 29.4688C171.762 29.2623 171.549 29.0925 171.309 28.9694C171.07 28.8463 170.808 28.7725 170.539 28.7522C161.116 28.0173 151.636 28.8915 142.506 31.3373C142.245 31.4064 142.001 31.527 141.788 31.6921C141.575 31.8571 141.397 32.0632 141.264 32.2982C141.132 32.5332 141.048 32.7923 141.018 33.0602C140.987 33.3282 141.011 33.5995 141.087 33.8582L142.517 38.7218C142.666 39.2251 142.612 39.7663 142.367 40.2303C142.122 40.6944 141.706 41.0445 141.207 41.2064C133.108 43.8278 125.524 47.8314 118.791 53.0398C118.375 53.3592 117.85 53.5035 117.329 53.4419C116.808 53.3803 116.332 53.1177 116.002 52.7101L112.791 48.7656C112.622 48.5572 112.413 48.3848 112.176 48.2584C111.939 48.1319 111.68 48.0541 111.413 48.0295C111.145 48.0048 110.876 48.0338 110.62 48.1148C110.364 48.1958 110.127 48.3271 109.923 48.501C102.72 54.6438 96.6296 61.9821 91.9192 70.1936C91.7853 70.4266 91.6993 70.6839 91.6663 70.9505C91.6332 71.2172 91.6537 71.4877 91.7265 71.7463C91.7994 72.0049 91.9232 72.2464 92.0906 72.4565C92.258 72.6666 92.4657 72.8412 92.7015 72.97L97.162 75.3994C97.6235 75.6501 97.9687 76.0714 98.124 76.5731C98.2792 77.0749 98.2322 77.6175 97.993 78.0851C94.1183 85.6617 91.5806 93.8504 90.4914 102.29C90.4225 102.81 90.1539 103.282 89.7424 103.607C89.331 103.931 88.8092 104.083 88.2879 104.029L83.2471 103.515C82.9794 103.488 82.7089 103.515 82.4516 103.594C82.1943 103.673 81.9554 103.802 81.749 103.975C81.5425 104.147 81.3727 104.359 81.2494 104.599C81.1261 104.838 81.052 105.099 81.0312 105.368C80.234 115.486 81.3037 125.666 84.1868 135.398L84.2618 135.38L90.0125 133.686L91.0149 133.391C91.518 133.243 92.0593 133.297 92.5234 133.541C92.9874 133.786 93.3377 134.202 93.4995 134.701C96.1232 142.798 100.126 150.381 105.33 157.116C105.65 157.532 105.794 158.056 105.732 158.577C105.671 159.098 105.408 159.574 105.001 159.905L101.055 163.12C100.847 163.289 100.675 163.498 100.548 163.734C100.422 163.971 100.344 164.23 100.32 164.497C100.295 164.764 100.324 165.034 100.405 165.29C100.486 165.545 100.617 165.782 100.791 165.987" fill="#441346"></path><path d="M156.924 63.277L155.226 51.066C160.305 50.3601 165.453 50.2986 170.548 50.883C175.813 51.49 180.977 52.7769 185.912 54.7113C187.85 55.4709 189.748 56.3274 191.6 57.2775L185.969 68.2412C184.486 67.4807 182.966 66.7951 181.415 66.187C173.638 63.1372 165.208 62.1331 156.932 63.2704L156.924 63.277ZM208.675 92.8784C204.829 83.5863 198.191 75.7191 189.677 70.3656L196.247 59.9327C201.598 63.3016 206.391 67.4855 210.452 72.3333C214.433 77.0839 217.671 82.4109 220.054 88.1327L208.675 92.8784ZM127.301 78.9693L118.142 70.7159C122.35 66.0486 127.252 62.059 132.677 58.8882C138.057 55.739 143.886 53.4279 149.962 52.0346L152.72 64.0511C142.909 66.2797 134.029 71.492 127.301 78.9717V78.9693ZM210.178 126.345C213.224 116.763 213.213 106.47 210.147 96.8946L221.895 93.1571C223.768 99.0351 224.739 105.163 224.776 111.332C224.812 117.685 223.854 124.004 221.936 130.06L210.178 126.345ZM102.45 109.646C102.682 102.694 104.101 95.8325 106.646 89.3585C108.672 84.1777 111.393 79.2967 114.735 74.85L124.586 82.265C121.916 85.8166 119.743 89.715 118.125 93.8528C116.092 99.0216 114.957 104.5 114.771 110.051L102.45 109.646ZM197.354 162.681L190.558 152.394C198.954 146.859 205.423 138.852 209.069 129.479L220.548 133.976C215.978 145.716 207.873 155.745 197.354 162.677V162.681ZM115.537 149.515C111.676 144.604 108.588 139.132 106.38 133.288C104.159 127.426 102.852 121.257 102.505 114.998L114.815 114.32C115.357 124.366 118.993 133.998 125.226 141.896L115.537 149.515ZM156.53 172.432L157.961 160.186C167.95 161.359 178.058 159.403 186.889 154.587L192.763 165.427C187.301 168.388 181.421 170.504 175.324 171.7C169.135 172.917 162.794 173.164 156.529 172.432H156.53ZM141.285 168.613C137.013 166.941 132.941 164.796 129.146 162.218C125.468 159.715 122.075 156.816 119.029 153.573L128.014 145.133C132.964 150.412 139.036 154.513 145.781 157.134C148.364 158.147 151.027 158.94 153.743 159.504L151.241 171.576C147.845 170.87 144.514 169.879 141.284 168.613H141.285ZM146.779 81.6278L142.527 74.0512C145.678 72.2827 149.04 70.9192 152.532 69.993C156.143 69.0392 159.862 68.5574 163.596 68.5594C165.062 68.5593 166.528 68.6331 167.987 68.7804L167.112 77.4236C165.944 77.3059 164.77 77.2467 163.596 77.2464C157.708 77.2444 151.918 78.7526 146.779 81.627L146.779 81.6278ZM188.343 87.7461C183.431 82.6364 177.053 79.1796 170.091 77.8539L171.72 69.3203C176.097 70.155 180.317 71.6683 184.228 73.8056C188.061 75.8995 191.555 78.5627 194.59 81.7044L188.343 87.7461ZM131.376 99.5342L123.246 96.4726C124.807 92.3285 126.998 88.4504 129.743 84.9754C132.463 81.5262 135.694 78.5117 139.322 76.0354L144.221 83.2072C138.356 87.1906 133.87 92.8925 131.377 99.5292L131.376 99.5342ZM197.933 109.31C197.468 102.24 194.816 95.4897 190.343 89.9949L197.091 84.522C199.83 87.8977 202.043 91.669 203.653 95.7076C205.309 99.8685 206.304 104.263 206.601 108.732L197.933 109.31ZM122.957 126.044C121.321 121.423 120.489 116.556 120.494 111.654C120.492 107.734 121.023 103.833 122.074 100.057L130.442 102.39C129.604 105.406 129.18 108.523 129.182 111.654C129.177 115.568 129.841 119.454 131.146 123.144L122.957 126.044ZM198.858 136.448L191.756 131.445C195.841 125.655 198.027 118.74 198.012 111.654H206.699C206.718 120.531 203.978 129.195 198.858 136.448ZM141.793 148.851C137.997 146.622 134.564 143.825 131.613 140.558C128.65 137.282 126.207 133.57 124.372 129.552L132.275 125.943C135.213 132.395 140.075 137.779 146.194 141.358L141.793 148.851ZM174.581 153.353L172.373 144.951C179.229 143.153 185.358 139.271 189.915 133.842L196.555 139.447C193.732 142.795 190.418 145.694 186.725 148.046C182.977 150.436 178.88 152.227 174.581 153.357V153.353ZM163.598 154.77C160.365 154.771 157.142 154.41 153.989 153.694C150.932 152.997 147.961 151.967 145.128 150.623L148.855 142.775C153.46 144.966 158.498 146.096 163.598 146.082C165.552 146.082 167.504 145.916 169.431 145.588L170.891 154.152C168.481 154.562 166.041 154.767 163.597 154.767" fill="#DC7567"></path><path d="M149.667 114.029C149.633 114.631 149.722 115.233 149.926 115.8C150.131 116.367 150.448 116.887 150.858 117.328C151.269 117.77 151.764 118.123 152.314 118.369C152.865 118.614 153.459 118.745 154.062 118.755C154.942 118.771 155.808 118.526 156.549 118.05C156.647 117.987 156.76 117.952 156.876 117.948C156.993 117.945 157.108 117.973 157.21 118.029C157.311 118.086 157.395 118.17 157.453 118.271C157.511 118.372 157.54 118.486 157.538 118.603L157.424 125.527H157.452L157.396 128.918L145.166 128.73C145.049 128.728 144.934 128.757 144.833 128.815C144.732 128.873 144.649 128.957 144.592 129.059C144.535 129.16 144.507 129.275 144.511 129.392C144.514 129.508 144.549 129.621 144.612 129.719C145.088 130.46 145.334 131.326 145.318 132.206C145.308 132.809 145.177 133.404 144.931 133.955C144.686 134.505 144.331 135.001 143.889 135.411C143.448 135.822 142.927 136.139 142.36 136.343C141.793 136.548 141.19 136.635 140.588 136.601C139.477 136.533 138.43 136.056 137.651 135.261C136.872 134.465 136.416 133.409 136.371 132.297C136.336 131.34 136.609 130.398 137.15 129.608C137.217 129.512 137.257 129.4 137.266 129.284C137.274 129.167 137.251 129.051 137.198 128.946C137.145 128.842 137.065 128.754 136.967 128.692C136.868 128.63 136.754 128.596 136.637 128.593L124.749 128.403L124.924 117.76C124.944 117.652 124.992 117.55 125.063 117.466C125.134 117.381 125.225 117.316 125.328 117.278C125.432 117.239 125.543 117.227 125.652 117.244C125.761 117.261 125.864 117.306 125.951 117.374C126.772 118.037 127.802 118.388 128.858 118.363C129.982 118.332 131.054 117.881 131.861 117.099C132.669 116.316 133.154 115.259 133.221 114.137C133.254 113.535 133.166 112.933 132.961 112.367C132.756 111.801 132.439 111.281 132.028 110.84C131.618 110.4 131.123 110.046 130.573 109.801C130.022 109.556 129.428 109.425 128.826 109.415C127.837 109.397 126.871 109.709 126.079 110.302C125.99 110.369 125.885 110.412 125.775 110.427C125.664 110.442 125.552 110.428 125.449 110.386C125.345 110.345 125.255 110.277 125.185 110.19C125.116 110.103 125.07 110 125.052 109.89L125.222 99.5515L137.328 99.7452C137.448 99.747 137.567 99.7148 137.671 99.6522C137.774 99.5897 137.858 99.4994 137.912 99.3916C137.966 99.2837 137.989 99.1628 137.978 99.0425C137.967 98.9223 137.923 98.8075 137.85 98.7114C137.257 97.9196 136.945 96.9529 136.963 95.9639C136.972 95.3617 137.104 94.7677 137.349 94.2175C137.594 93.6673 137.947 93.1721 138.388 92.7618C138.829 92.3515 139.348 92.0344 139.915 91.8295C140.481 91.6245 141.083 91.5361 141.684 91.5693C142.805 91.6359 143.86 92.1195 144.642 92.9248C145.424 93.7302 145.876 94.799 145.91 95.921C145.935 96.9765 145.584 98.0064 144.921 98.8277C144.847 98.9217 144.801 99.0345 144.788 99.1534C144.774 99.2722 144.795 99.3924 144.846 99.5004C144.897 99.6083 144.978 99.6998 145.079 99.7645C145.179 99.8291 145.296 99.8644 145.415 99.8664L157.863 100.066L157.813 103.152H157.785L157.672 110.077C157.669 110.193 157.635 110.307 157.572 110.406C157.51 110.504 157.422 110.584 157.318 110.637C157.213 110.689 157.097 110.712 156.981 110.704C156.864 110.695 156.752 110.655 156.657 110.588C155.867 110.047 154.924 109.774 153.968 109.81C152.856 109.854 151.799 110.31 151.004 111.089C150.209 111.868 149.731 112.915 149.664 114.026" fill="#DFAFA2"></path><path d="M181.206 89.3329C180.675 89.6199 180.092 89.7967 179.492 89.8527C178.891 89.9087 178.286 89.8427 177.712 89.6588C177.137 89.4748 176.606 89.1767 176.15 88.7823C175.694 88.3878 175.322 87.9053 175.057 87.3635C174.668 86.5732 174.523 85.6853 174.639 84.8122C174.654 84.6969 174.638 84.5797 174.592 84.473C174.546 84.3663 174.471 84.2741 174.377 84.2064C174.282 84.1387 174.171 84.0979 174.055 84.0884C173.94 84.079 173.823 84.1012 173.719 84.1527L167.499 87.197L167.486 87.1723L164.445 88.6668L169.817 99.6537C169.868 99.7579 169.89 99.8741 169.88 99.9899C169.871 100.106 169.83 100.217 169.762 100.311C169.694 100.405 169.602 100.48 169.496 100.526C169.389 100.572 169.272 100.589 169.157 100.574C168.284 100.458 167.396 100.603 166.606 100.992C166.064 101.256 165.582 101.628 165.187 102.084C164.793 102.54 164.494 103.071 164.31 103.645C164.126 104.219 164.06 104.825 164.116 105.425C164.172 106.025 164.348 106.608 164.635 107.139C165.168 108.116 166.045 108.861 167.096 109.229C168.147 109.596 169.297 109.56 170.323 109.128C171.204 108.754 171.941 108.106 172.426 107.281C172.484 107.18 172.569 107.096 172.67 107.039C172.772 106.982 172.888 106.953 173.004 106.957C173.121 106.96 173.235 106.995 173.333 107.058C173.431 107.121 173.511 107.21 173.562 107.314L178.789 117.996L188.345 113.321C188.435 113.257 188.507 113.171 188.554 113.071C188.6 112.971 188.621 112.861 188.612 112.751C188.604 112.641 188.567 112.535 188.506 112.443C188.445 112.352 188.361 112.277 188.263 112.227C187.314 111.765 186.56 110.981 186.135 110.015C185.686 108.984 185.639 107.822 186.004 106.758C186.369 105.695 187.12 104.806 188.108 104.269C188.638 103.984 189.221 103.808 189.821 103.753C190.42 103.698 191.025 103.764 191.598 103.949C192.172 104.133 192.702 104.431 193.158 104.825C193.613 105.219 193.985 105.701 194.249 106.242C194.685 107.13 194.813 108.138 194.613 109.106C194.59 109.215 194.595 109.328 194.628 109.434C194.662 109.541 194.722 109.636 194.803 109.712C194.885 109.788 194.984 109.842 195.092 109.868C195.201 109.894 195.314 109.891 195.421 109.861L204.708 105.316L199.387 94.4356C199.335 94.327 199.314 94.2057 199.327 94.0857C199.339 93.9656 199.386 93.8516 199.46 93.7566C199.535 93.6616 199.634 93.5894 199.748 93.5482C199.861 93.5071 199.984 93.4986 200.102 93.5239C201.071 93.7244 202.079 93.5965 202.967 93.1603C203.508 92.8955 203.99 92.5242 204.384 92.0687C204.778 91.6132 205.076 91.0829 205.26 90.5094C205.444 89.936 205.511 89.3313 205.456 88.7315C205.401 88.1317 205.225 87.5493 204.939 87.019C204.402 86.0309 203.514 85.2801 202.45 84.9149C201.387 84.5497 200.225 84.5966 199.194 85.0463C198.228 85.4714 197.444 86.2253 196.981 87.1739C196.928 87.2817 196.845 87.3722 196.742 87.4352C196.64 87.4981 196.522 87.5311 196.402 87.5302C196.281 87.5294 196.164 87.4947 196.062 87.4303C195.961 87.3658 195.879 87.2742 195.827 87.1657L190.362 75.9785L187.589 77.3354L187.602 77.3601L181.38 80.4044C181.276 80.4564 181.188 80.5358 181.125 80.6341C181.062 80.7325 181.027 80.8461 181.023 80.9627C181.02 81.0794 181.049 81.1948 181.106 81.2966C181.163 81.3983 181.247 81.4826 181.348 81.5404C182.174 82.0258 182.821 82.7636 183.195 83.6449C183.627 84.6709 183.663 85.821 183.296 86.8719C182.928 87.9229 182.183 88.7999 181.206 89.3329Z" fill="#DFAFA2"></path><path d="M301.587 143.607C301.216 143.576 305.925 151.124 302.166 150.718C298.5 150.327 295.561 152.974 292.517 154.55C291.24 155.228 289.888 155.754 288.489 156.117C286.539 156.632 284.489 156.631 282.54 156.116C280.361 151.845 278.449 147.413 276.102 143.195C273.755 138.977 271.161 134.867 269.05 130.517C268.994 130.404 268.941 130.289 268.885 130.175C268.443 129.248 267.902 127.658 267.28 125.856C266.54 123.612 265.678 121.41 264.695 119.261C263.813 117.45 262.854 116.015 261.825 115.52C258.909 114.12 249.596 117.334 245.685 117.251C243.276 117.2 228.141 114.02 215.783 112.646C206.809 111.648 200.111 117.17 199.191 110.272C198.694 106.548 208.062 103.7 211.3 102.741C213.744 102.016 217.205 103.209 219.719 103.098C222.253 102.871 224.77 102.485 227.255 101.941C232.249 101.112 235.208 100.768 234.854 95.2177C234.819 94.6998 234.757 94.1393 234.668 93.5277C233.933 88.6326 229.427 85.629 226.139 82.0531C221.789 77.3235 220.558 74.7395 213.719 75.9014C208.409 76.8057 187.801 82.5427 191.243 74.528C193.607 69.021 209.689 67.5971 215.781 66.2193C225.057 64.1227 229.343 69.0527 235.22 77.39C235.029 77.051 234.832 76.7202 234.629 76.3975C234.624 76.3885 234.618 76.3801 234.612 76.3724C230.697 70.165 226.224 67.66 221.399 62.6768C217.452 58.5985 199.012 44.1438 212.963 42.2235C214.486 42.0141 236.198 65.003 236.111 64.8692C236.105 64.8606 236.099 64.8516 236.094 64.8424C236.089 64.8368 236.085 64.8305 236.082 64.8237C232.313 58.8644 208.651 43.3054 216.034 37.952C222.422 33.3186 242.688 63.3656 247.666 67.8877C247.713 67.9326 221.634 48.61 234.045 42.7074C235.051 42.2291 253.886 57.2953 255.498 64.3872C255.565 65.3007 255.621 66.2147 255.687 67.1281C256.091 72.601 256.766 77.9846 259.349 82.5912C264.396 91.6132 271.691 99.7597 278.032 107.908C278.396 108.376 278.76 108.841 279.113 109.308C280.213 110.747 281.315 112.198 282.419 113.66C283.328 114.864 284.235 116.073 285.139 117.288C294.429 129.725 293.786 130.526 301.587 143.609" fill="#FFB8A5"></path><path d="M215.778 44.0293C225.459 52.9545 234.513 62.1063 242.255 71.7355" stroke="#030323" stroke-width="0.996" stroke-miterlimit="1.5" stroke-linecap="round" stroke-linejoin="round"></path><path d="M230.922 47.2656C240.602 56.1908 240.22 55.0293 247.963 64.6593" stroke="#030323" stroke-width="0.996" stroke-miterlimit="1.5" stroke-linecap="round" stroke-linejoin="round"></path><path d="M285.138 117.286L269.049 130.52C268.993 130.406 268.94 130.292 268.885 130.179C268.443 129.25 267.901 127.661 267.279 125.859C266.416 123.788 265.424 121.773 264.309 119.826C264.259 119.728 264.249 119.615 264.282 119.51C264.315 119.405 264.388 119.317 264.485 119.265C267.86 117.432 274.272 113.269 278.026 107.865C278.048 107.834 278.077 107.809 278.11 107.791C278.144 107.774 278.181 107.764 278.219 107.764C278.257 107.764 278.295 107.773 278.328 107.79C278.362 107.807 278.391 107.832 278.414 107.863C278.733 108.312 279.09 108.873 279.382 109.258C280.485 110.694 281.318 112.195 282.418 113.657C283.327 114.861 284.234 116.071 285.138 117.286Z" fill="white"></path><path d="M308.861 150.445C308.498 151.898 294.312 183.82 292.164 183.24C289.791 178.592 277.466 149.683 274.91 145.094C272.285 140.377 269.382 135.795 267.05 130.929C266.654 130.102 265.271 128.825 264.414 127.308C264.34 127.18 264.293 127.038 264.277 126.891C264.261 126.744 264.276 126.595 264.32 126.454C264.365 126.313 264.438 126.182 264.536 126.071C264.634 125.96 264.754 125.871 264.888 125.809C264.964 125.773 265.037 125.742 265.116 125.706C266.34 125.226 267.529 124.662 268.675 124.017C268.705 123.999 268.738 123.977 268.764 123.959C273.467 120.69 277.884 117.027 281.967 113.011C282.145 112.832 282.36 112.694 282.597 112.606C282.834 112.518 283.087 112.483 283.339 112.502C283.591 112.521 283.836 112.595 284.057 112.718C284.278 112.84 284.469 113.01 284.618 113.214C295.195 127.517 299.89 135.411 308.861 150.445Z" fill="#030323"></path><path d="M225.088 66.5137C231.944 72.0698 235.766 76.832 237.939 80.4748" stroke="#030323" stroke-width="0.996" stroke-miterlimit="1.5" stroke-linecap="round" stroke-linejoin="round"></path><path fill-rule="evenodd" clip-rule="evenodd" d="M83.3698 165.3L56.8763 148.102L26.9843 194.587C33.4329 201.143 46.1941 203.666 56.892 203.922L83.3698 165.3Z" fill="#441346"></path><path fill-rule="evenodd" clip-rule="evenodd" d="M58.1428 147.747L26.4664 195.105L56.5771 202.624L80.3145 162.084L58.1428 147.747Z" fill="#030323"></path><path fill-rule="evenodd" clip-rule="evenodd" d="M82.176 115.182L109.264 101.873L128.123 98.476L128.259 100.554L111.34 105.211L94.0484 115.495L94.0581 115.509L92.3501 116.526L100.827 130.772L94.3895 135.706L82.176 115.182Z" fill="#FFB8A5"></path><path fill-rule="evenodd" clip-rule="evenodd" d="M108.19 156.668L132.02 141.765L143.268 128.977L141.407 127.997L129.848 138.81L128.236 139.65L128.195 139.689L111.384 148.457L102.095 136.212L94.8114 139.031L108.19 156.668Z" fill="#FFB8A5"></path><path fill-rule="evenodd" clip-rule="evenodd" d="M95.4653 142.236L89.3322 132.595L70.1323 144.982L76.2654 154.624L95.4653 142.236Z" fill="#030323"></path><path fill-rule="evenodd" clip-rule="evenodd" d="M79.9353 138.652L70.129 144.977L76.2614 154.623L85.8645 148.43C85.5981 146.482 84.9346 144.608 83.9149 142.927C82.8953 141.245 81.5413 139.79 79.9367 138.653L79.9353 138.652Z" fill="#FFB8A5"></path><path fill-rule="evenodd" clip-rule="evenodd" d="M96.7043 126.935C94.8932 126.651 93.0388 126.909 91.3741 127.677C89.7095 128.444 88.3089 129.687 87.3486 131.249C86.3884 132.81 85.9112 134.62 85.9771 136.452C86.0431 138.284 86.6492 140.056 87.7193 141.544C88.7894 143.033 90.2756 144.171 91.9912 144.817C93.7067 145.463 95.5749 145.587 97.3609 145.174C99.1469 144.761 100.771 143.829 102.029 142.496C103.286 141.162 104.122 139.487 104.43 137.68L104.451 137.554C104.819 135.121 104.212 132.64 102.762 130.651C101.311 128.663 99.1342 127.327 96.7043 126.935Z" fill="white"></path><path fill-rule="evenodd" clip-rule="evenodd" d="M96.7076 126.931C94.7592 126.625 92.7639 126.948 91.0113 127.853C88.9651 129.113 87.487 131.118 86.8872 133.446C86.2873 135.773 86.6124 138.242 87.7942 140.335C88.9761 142.428 90.9227 143.982 93.2255 144.67C95.5283 145.359 98.0082 145.128 100.145 144.027C101.755 143.038 103.024 141.581 103.785 139.852C104.546 138.122 104.761 136.202 104.402 134.347C104.043 132.492 103.127 130.79 101.777 129.469C100.426 128.148 98.7045 127.27 96.842 126.953C96.7963 126.946 96.7524 126.938 96.7076 126.931Z" fill="#FFB8A5"></path><path fill-rule="evenodd" clip-rule="evenodd" d="M58.1802 163.11C56.9108 160.575 56.422 157.719 56.7756 154.906C57.1291 152.092 58.3092 149.446 60.1665 147.303C62.0238 145.16 64.4749 143.616 67.2098 142.866C69.9447 142.117 72.8405 142.195 75.531 143.091C78.2215 143.987 80.5858 145.661 82.3249 147.901C84.064 150.141 85.0997 152.846 85.301 155.675C85.5024 158.504 84.8603 161.329 83.4561 163.792C82.0518 166.256 79.9485 168.248 77.412 169.516V169.516C74.0092 171.199 70.0798 171.47 66.4782 170.27C62.8767 169.07 59.8945 166.497 58.1802 163.11Z" fill="#DC7567"></path><path fill-rule="evenodd" clip-rule="evenodd" d="M59.1365 148.657C61.1614 145.665 64.2416 143.549 67.7605 142.731C71.2793 141.913 74.9772 142.455 78.1139 144.247C81.2505 146.04 83.5944 148.951 84.6764 152.397C85.7584 155.844 85.4985 159.572 83.949 162.836C81.9227 165.825 78.8429 167.939 75.3253 168.755C71.8077 169.571 68.1117 169.029 64.9765 167.237C61.8413 165.446 59.498 162.536 58.4152 159.092C57.3325 155.647 57.59 151.92 59.1365 148.657Z" fill="#441346"></path><path fill-rule="evenodd" clip-rule="evenodd" d="M64.0617 158.459C63.3287 156.993 63.0471 155.341 63.2524 153.715C63.4577 152.088 64.1408 150.558 65.2153 149.32C66.2898 148.081 67.7074 147.189 69.289 146.756C70.8705 146.323 72.5449 146.368 74.1005 146.887C75.6561 147.405 77.023 148.374 78.0285 149.669C79.0339 150.964 79.6326 152.529 79.749 154.164C79.8654 155.8 79.4943 157.433 78.6824 158.858C77.8706 160.283 76.6545 161.435 75.1881 162.168V162.168C73.2192 163.141 70.9457 163.298 68.8622 162.603C66.7787 161.909 65.0536 160.42 64.0621 158.46L64.0617 158.459Z" fill="#030323"></path><path fill-rule="evenodd" clip-rule="evenodd" d="M63.5837 160.406C62.8505 158.939 62.5686 157.288 62.7736 155.662C62.9787 154.035 63.6615 152.506 64.7358 151.267C65.81 150.028 67.2274 149.136 68.8088 148.703C70.3901 148.27 72.0643 148.316 73.6198 148.834C75.1752 149.353 76.5419 150.321 77.5472 151.616C78.5524 152.911 79.151 154.475 79.2672 156.111C79.3835 157.746 79.0121 159.379 78.2001 160.804C77.3882 162.228 76.1721 163.38 74.7056 164.113C72.7374 165.086 70.4647 165.242 68.382 164.547C66.2993 163.853 64.5748 162.365 63.5837 160.406V160.406Z" fill="white"></path><path fill-rule="evenodd" clip-rule="evenodd" d="M63.5565 153.043C64.4372 151.246 65.9382 149.829 67.7823 149.052C69.6265 148.275 71.6893 148.192 73.5901 148.817C75.491 149.442 77.1015 150.734 78.1245 152.454C79.1475 154.174 79.5139 156.205 79.1561 158.174C78.2744 159.97 76.7734 161.386 74.9297 162.161C73.0861 162.937 71.0241 163.02 69.1241 162.395C67.224 161.77 65.614 160.479 64.5908 158.761C63.5676 157.042 63.2002 155.011 63.5565 153.043Z" fill="#E89E8A"></path><path fill-rule="evenodd" clip-rule="evenodd" d="M78.6008 159.136C77.562 160.684 76.0321 161.837 74.2578 162.408C72.4835 162.98 70.5684 162.937 68.8215 162.286C67.0746 161.636 65.5979 160.416 64.6296 158.823C63.6613 157.23 63.2579 155.357 63.4845 153.507C64.5232 151.959 66.0532 150.807 67.8275 150.235C69.6018 149.663 71.5169 149.706 73.2638 150.357C75.0106 151.007 76.4874 152.228 77.4557 153.82C78.424 155.413 78.8274 157.286 78.6008 159.136Z" fill="#FFB8A5"></path><path fill-rule="evenodd" clip-rule="evenodd" d="M97.3532 130.169C96.3056 130.005 95.2329 130.155 94.2699 130.599C93.307 131.043 92.4969 131.762 91.9414 132.665C91.386 133.569 91.11 134.616 91.1482 135.676C91.1863 136.735 91.537 137.76 92.156 138.621C92.7751 139.482 93.6349 140.141 94.6273 140.514C95.6196 140.888 96.7004 140.96 97.7335 140.721C98.7666 140.482 99.706 139.943 100.434 139.171C101.161 138.4 101.644 137.431 101.823 136.385L101.835 136.312C102.048 134.904 101.697 133.469 100.858 132.319C100.018 131.169 98.7589 130.396 97.3532 130.169Z" fill="#441346"></path><path fill-rule="evenodd" clip-rule="evenodd" d="M96.1068 130.806C95.0592 130.642 93.9863 130.791 93.0232 131.235C92.0601 131.679 91.2497 132.398 90.694 133.301C90.1383 134.204 89.8621 135.252 89.9001 136.311C89.9381 137.371 90.2886 138.396 90.9075 139.257C91.5265 140.118 92.3862 140.777 93.3786 141.151C94.3711 141.525 95.4518 141.597 96.4851 141.358C97.5183 141.119 98.4578 140.58 99.1854 139.808C99.9131 139.037 100.396 138.068 100.575 137.022L100.587 136.949C100.799 135.554 100.457 134.131 99.633 132.986C98.8093 131.84 97.5699 131.062 96.18 130.819C96.1548 130.815 96.1304 130.81 96.1052 130.806L96.1068 130.806Z" fill="#E89E8A"></path></svg> 